<svg width="230" height="195" viewBox="0 0 230 195" fill="none" xmlns="http://www.w3.org/2000/svg">
<path d="M54.5865 17.7761C48.9587 3.42015 32.7644 -3.70037 18.3503 1.92714C3.99357 7.55466 -3.12733 23.7481 2.50049 38.1615C7.15205 50.0481 18.9819 56.939 31.099 55.8479L41.1486 60.2696L45.5705 50.2204C55.2182 42.7553 59.2381 29.6053 54.5865 17.7761Z" fill="#31377C"/>
<path d="M97.2046 62.6805L102.201 76.6919C76.7607 106.897 80.6083 151.974 110.815 177.413C141.021 202.852 186.101 199.004 211.541 168.8C236.981 138.595 233.134 93.517 202.927 68.0783C176.568 45.8553 138.15 45.6256 111.561 67.4466L97.2046 62.6805Z" fill="#FBFCFD"/>
<path d="M97.2028 62.6802L111.617 67.3889H111.502C115.235 64.2881 119.255 61.5892 123.562 59.3496C126.203 57.9715 128.96 56.7081 131.774 55.6171C133.267 55.0429 134.875 54.6409 136.425 54.1241C138.091 53.5498 139.756 53.0904 141.421 52.7459L146.762 51.7123L152.39 51.138L153.768 51.0232H158.247C159.281 51.0232 160.257 51.0232 161.291 51.0806L164.392 51.4252C173.408 52.3439 182.137 54.9854 190.177 59.1774C199.135 63.8287 207.003 70.3176 213.32 78.1846L214.583 79.735L215.732 81.4003L217.971 84.7309L218.545 85.5348L219.062 86.4536L220.039 88.2338C220.67 89.4397 221.359 90.6456 221.991 91.8515C222.623 93.0574 223.082 94.3781 223.599 95.6414L224.403 97.5938C224.69 98.2255 224.92 98.8571 225.15 99.5462L226.355 103.566L226.987 105.576C227.16 106.265 227.274 106.954 227.447 107.643C227.734 109.021 228.021 110.457 228.251 111.835C228.423 112.524 228.538 113.271 228.538 113.96L228.71 116.142C228.825 117.52 229.055 119.013 229.055 120.506C229.055 121.999 229.055 123.435 229.055 124.928V127.167L228.825 129.349L228.365 133.771C228.078 135.264 227.791 136.699 227.504 138.192L227.045 140.432C226.872 141.178 226.585 141.81 226.413 142.614L225.035 146.978C224.518 148.356 223.886 149.792 223.312 151.17C222.106 153.984 220.785 156.74 219.235 159.439C218.488 160.817 217.569 162.023 216.708 163.344L215.387 165.296C214.985 165.928 214.411 166.502 214.009 167.134C213.032 168.34 212.056 169.546 211.023 170.809C210.046 172.015 208.84 173.049 207.749 174.197L206.084 175.862C205.51 176.379 204.878 176.896 204.304 177.413L200.686 180.456C199.422 181.375 198.102 182.236 196.838 183.098L194.886 184.419C194.254 184.82 193.507 185.165 192.876 185.567L188.798 187.749C187.42 188.438 185.984 188.955 184.606 189.587C181.792 190.793 178.921 191.769 175.992 192.515C174.557 192.975 173.064 193.319 171.57 193.549C170.077 193.836 168.642 194.123 167.149 194.41L162.669 194.812L160.43 194.984H153.826C152.332 194.984 150.897 194.697 149.461 194.582L147.279 194.353L146.188 194.238L145.097 194.008L140.905 193.147C139.526 192.86 138.148 192.458 136.77 191.998L132.75 190.735L128.845 189.127C127.582 188.61 126.318 188.036 125.055 187.405C122.585 186.199 120.231 184.82 117.991 183.327L114.603 181.088C113.569 180.284 112.536 179.423 111.502 178.619C103.692 172.245 97.3176 164.205 92.7809 155.19C90.7709 150.998 89.0482 146.691 87.7848 142.212C87.2679 140.03 86.6362 137.905 86.4065 135.723C86.2342 134.632 86.0045 133.599 85.8897 132.507L85.5451 129.349C84.856 121.597 85.4303 113.845 87.2679 106.265C88.761 100.063 91.0581 94.091 94.1591 88.5209C96.5136 84.329 99.2701 80.3093 102.314 76.6342V76.749L97.4324 62.7376L102.543 76.749V76.8064C99.4998 80.539 96.8008 84.5012 94.5037 88.6931C87.7848 101.097 84.856 115.223 86.1194 129.292C86.2342 130.325 86.3491 131.359 86.4639 132.45C86.5788 133.541 86.8085 134.575 86.9808 135.608C87.2679 137.733 87.8996 139.8 88.3591 142.04C89.6224 146.461 91.3452 150.768 93.3552 154.903C97.777 163.861 104.094 171.785 111.789 178.102C112.823 178.906 113.799 179.767 114.89 180.571L118.221 182.753C120.461 184.246 122.815 185.567 125.227 186.773C126.433 187.405 127.696 187.979 128.96 188.438L132.807 190.046L136.827 191.252C138.148 191.711 139.526 192.056 140.905 192.343L145.097 193.204L146.13 193.434L147.221 193.549L149.346 193.779C150.724 193.893 152.218 194.123 153.653 194.181H160.2L162.382 193.951L166.804 193.549C168.182 193.319 169.733 192.975 171.168 192.745C172.661 192.515 174.097 192.171 175.533 191.711C178.462 190.907 181.333 189.931 184.089 188.783C185.468 188.208 186.903 187.634 188.282 187.003L192.301 184.82C192.991 184.418 193.68 184.131 194.311 183.672L196.206 182.409C197.47 181.547 198.791 180.686 200.054 179.767L203.614 176.781C204.189 176.264 204.82 175.805 205.395 175.231L207.06 173.565C208.151 172.417 209.3 171.383 210.333 170.177L213.262 166.56C213.779 165.985 214.238 165.354 214.64 164.722L215.904 162.77C216.765 161.506 217.627 160.243 218.431 158.922C219.924 156.281 221.302 153.525 222.508 150.768C223.082 149.39 223.714 147.954 224.173 146.576C224.69 145.198 225.035 143.763 225.494 142.269C225.724 141.58 225.954 140.891 226.126 140.145L226.585 137.963C226.872 136.47 227.217 135.034 227.447 133.599C227.676 132.163 227.791 130.67 227.906 129.234L228.136 127.052V124.87V120.506C228.136 119.07 227.906 117.692 227.791 116.199L227.619 114.074C227.561 113.385 227.504 112.639 227.332 111.95C227.045 110.572 226.757 109.136 226.528 107.758C226.413 107.069 226.298 106.38 226.126 105.691L225.552 103.681C225.15 102.36 224.748 101.039 224.346 99.7185C224.173 99.0294 223.886 98.3978 223.599 97.7661L222.795 95.8711C222.278 94.6078 221.704 93.3445 221.187 92.0811L219.235 88.5209L218.258 86.7407L217.799 85.8794L217.225 85.0755L214.985 81.7449L213.894 80.0796L212.631 78.5866C200.743 63.599 183.343 54.0666 164.277 51.9994L161.234 51.6548C160.2 51.5974 159.166 51.6548 158.19 51.6548H153.826L152.447 51.7697L146.819 52.2865L141.479 53.3201C139.813 53.6647 138.148 54.1241 136.483 54.6409C134.875 55.1577 133.267 55.5597 131.831 56.0191C129.017 57.0527 126.318 58.2586 123.619 59.6368C119.37 61.8763 115.292 64.5178 111.559 67.5612H111.502L97.2028 62.6802Z" fill="#242425"/>
<path d="M164.971 85.248L136.257 87.9469L124.6 91.2775C119.604 92.7131 115.009 95.2972 111.277 98.9148L73.6623 135.034L66.8859 78.9314L48.1074 80.5967L51.2659 152.836C54.1372 161.736 62.4066 167.823 71.7672 167.823C77.395 167.766 82.8505 165.526 86.9278 161.564L113.746 136.355L111.104 169.603L108.635 175.231C126.265 192.401 153.37 198.143 174.561 192.286C174.561 192.286 175.422 189.242 179.557 162.827C182.945 141.408 184.611 94.7803 184.611 94.7803L164.971 85.248Z" fill="#31377C"/>
<path d="M212.466 167.824C212.466 167.824 203.91 120.851 200.809 110.745C197.306 99.3749 182.777 93.9197 182.777 93.9197L178.183 136.069L191.161 185.912C191.104 185.912 206.207 176.954 212.466 167.824Z" fill="#31377C"/>
<path d="M111.099 170.006C110.927 170.006 111.559 158.062 112.477 143.304C113.396 128.546 114.43 116.66 114.602 116.66C114.775 116.66 114.143 128.604 113.224 143.362C112.248 158.12 111.272 170.006 111.099 170.006Z" fill="#242425"/>
<path d="M158.253 139.8C158.195 139.973 158.138 140.202 158.08 140.375L157.449 141.925C157.104 142.729 156.702 143.533 156.3 144.337C155.783 145.256 155.266 146.347 154.577 147.438L153.486 149.218C153.084 149.792 152.625 150.424 152.223 151.055C151.361 152.376 150.27 153.639 149.179 154.96C146.71 157.831 143.953 160.473 141.024 162.827C138.038 165.182 134.822 167.249 131.492 169.029C129.884 169.775 128.448 170.579 127.012 171.096C126.266 171.383 125.634 171.67 124.945 171.957L122.992 172.589C121.729 173.049 120.58 173.278 119.604 173.565C118.743 173.795 117.881 174.025 116.963 174.14L115.297 174.427C115.125 174.484 114.895 174.484 114.723 174.427C114.895 174.369 115.125 174.312 115.297 174.254L116.963 173.852C117.824 173.68 118.685 173.451 119.547 173.163C120.523 172.876 121.729 172.589 122.935 172.072L124.887 171.383C125.577 171.154 126.266 170.809 126.955 170.522C128.333 169.948 129.826 169.144 131.377 168.397C138.038 164.894 143.953 160.128 148.892 154.443C149.983 153.065 151.074 151.859 151.936 150.596C152.395 149.964 152.854 149.39 153.256 148.816L154.348 147.093C155.094 146.002 155.611 144.968 156.128 144.05C156.645 143.131 157.047 142.384 157.391 141.695L158.138 140.202C158.138 139.973 158.253 139.8 158.253 139.8Z" fill="#242425"/>
<path d="M184.442 160.3C184.27 159.898 184.098 159.496 183.983 159.094C183.753 158.29 183.408 157.142 183.006 155.706C182.202 152.835 181.226 148.815 180.193 144.394C179.159 139.972 178.412 135.952 177.896 132.966C177.608 131.588 177.436 130.325 177.321 129.521C177.207 129.119 177.206 128.66 177.206 128.2C177.379 128.602 177.494 129.004 177.551 129.464C177.781 130.44 178.01 131.588 178.298 132.909C178.987 135.952 179.848 139.915 180.824 144.279L183.408 155.591C183.696 156.969 183.983 158.118 184.155 159.037C184.327 159.439 184.385 159.841 184.442 160.3Z" fill="#242425"/>
<path d="M51.3217 85.8803C50.9198 85.0189 50.7475 84.0427 50.7475 83.0665C50.5752 82.0903 50.5752 81.1141 50.8049 80.1953C51.1494 81.0567 51.3791 82.0329 51.3791 83.0091C51.6088 83.9279 51.5514 84.9041 51.3217 85.8803Z" fill="#242425"/>
<path d="M56.8328 86.0519C56.4882 85.0757 56.3159 84.0421 56.3733 83.0659C56.201 82.0323 56.2585 80.9987 56.5456 80.0225C57.0625 81.9748 57.1773 84.0421 56.8328 86.0519Z" fill="#242425"/>
<path d="M62.3572 85.7074C62.0126 84.6164 61.8403 83.4679 61.8403 82.3194C61.668 81.1709 61.7255 80.0224 61.9552 78.9314C62.4721 81.1709 62.5869 83.4679 62.3572 85.7074Z" fill="#242425"/>
<path d="M72.9133 144.739C72.7984 143.073 72.8559 141.408 73.0856 139.743C73.143 138.078 73.4301 136.412 73.8895 134.862C73.9469 138.192 73.6024 141.523 72.9133 144.739Z" fill="#242425"/>
<path d="M194.374 100.925C194.374 101.04 192.881 100.925 190.526 101.442C184.324 102.705 179.213 107.126 177.146 113.156C176.342 115.395 176.227 116.946 176.112 116.888C176.055 116.544 176.055 116.199 176.112 115.797C176.227 114.821 176.399 113.902 176.686 112.984C178.639 106.724 183.922 102.073 190.411 100.982C191.388 100.81 192.307 100.752 193.283 100.81C193.685 100.867 194.029 100.867 194.374 100.925Z" fill="#242425"/>
<path d="M203.27 125.387C202.122 126.019 200.916 126.536 199.71 126.938C197.47 127.799 194.312 128.89 190.809 129.981C187.306 131.072 184.09 131.934 181.792 132.565C180.529 132.91 179.266 133.197 178.002 133.369C179.208 132.852 180.414 132.45 181.678 132.163L190.636 129.464L199.537 126.593C200.743 126.019 202.007 125.674 203.27 125.387Z" fill="#FBFCFD"/>
<path d="M212.465 166.848C211.259 167.307 209.995 167.652 208.732 167.881C206.435 168.456 203.104 169.145 199.658 169.891C196.213 170.638 192.882 171.269 190.528 171.729C189.264 172.016 188.001 172.246 186.68 172.303C187.886 171.844 189.149 171.556 190.413 171.269C192.71 170.695 196.041 170.006 199.486 169.259C202.989 168.513 206.262 167.881 208.617 167.422C209.88 167.135 211.144 166.905 212.465 166.848Z" fill="#FBFCFD"/>
<path d="M127.417 169.948C126.556 169.718 125.752 169.316 124.948 168.914L119.148 166.1L113.29 163.287C112.486 162.942 111.682 162.54 110.936 162.023C111.797 162.195 112.658 162.483 113.462 162.885C115.013 163.516 117.138 164.378 119.435 165.469C121.732 166.56 123.742 167.593 125.178 168.397C125.982 168.857 126.728 169.316 127.417 169.948Z" fill="#FBFCFD"/>
<path d="M175.363 178.045C174.904 177.93 174.387 177.758 173.985 177.528L170.252 175.863C167.094 174.484 162.729 172.589 157.848 170.637C152.967 168.685 148.487 167.019 145.272 165.871L141.424 164.493C140.965 164.32 140.448 164.148 140.046 163.918C140.505 163.976 140.965 164.091 141.424 164.263C142.343 164.55 143.664 164.952 145.329 165.469C148.602 166.56 153.139 168.168 157.905 170.12C162.729 172.073 167.151 174.025 170.31 175.518C171.86 176.265 173.123 176.896 173.985 177.298C174.387 177.528 174.904 177.758 175.363 178.045Z" fill="#FBFCFD"/>
<path d="M179.095 144.222C178.865 144.28 178.635 144.28 178.405 144.222L176.51 143.935L169.504 142.787C163.589 141.811 155.492 140.547 146.476 139.226C137.46 137.906 129.306 136.815 123.391 136.011L116.384 135.092L114.489 134.805C114.26 134.805 114.03 134.747 113.858 134.69C114.087 134.69 114.317 134.69 114.547 134.69L116.442 134.862C118.107 134.977 120.519 135.264 123.448 135.609C129.42 136.24 137.575 137.274 146.591 138.652C155.607 140.03 163.762 141.351 169.619 142.442C172.548 143.016 174.96 143.418 176.625 143.763L178.52 144.165L179.095 144.222Z" fill="#FBFCFD"/>
<path d="M176.398 108.505C176.398 108.677 163.477 106.897 147.627 104.543C131.777 102.189 118.913 100.121 118.913 99.949C118.913 99.7768 131.834 101.557 147.684 103.911C163.534 106.323 176.398 108.333 176.398 108.505Z" fill="#FBFCFD"/>
<path d="M108.916 139.743C108.226 138.479 107.595 137.216 107.078 135.895L102.886 126.478C101.22 122.918 99.7847 119.644 98.6936 117.118C98.0619 115.854 97.4876 114.534 97.0282 113.156C97.2579 113.443 97.4876 113.787 97.6599 114.132C98.0044 114.763 98.5213 115.74 99.0381 116.945C100.244 119.3 101.852 122.573 103.46 126.248C105.068 129.923 106.504 133.254 107.48 135.78C107.939 136.986 108.341 138.02 108.571 138.709C108.743 138.996 108.858 139.398 108.916 139.743Z" fill="#FBFCFD"/>
<path d="M83.2554 164.836C83.0831 164.836 81.4177 157.658 79.5801 148.758C77.7424 139.857 76.3642 132.622 76.5365 132.564C76.7088 132.564 78.3741 139.742 80.2117 148.643C82.0494 157.601 83.4277 164.836 83.2554 164.836Z" fill="#FBFCFD"/>
<path d="M72.5771 125.789C68.9018 126.88 65.1691 127.798 61.3789 128.487C57.7036 129.406 53.9709 130.153 50.1807 130.67C53.856 129.579 57.5887 128.66 61.3789 127.971C65.1116 127.052 68.8444 126.305 72.5771 125.789Z" fill="#FBFCFD"/>
<path d="M68.8972 93.23C67.9209 93.5745 66.9447 93.7468 65.9685 93.8616C64.1308 94.1488 61.604 94.5507 58.7901 94.8378C55.9763 95.125 53.4495 95.3547 51.5544 95.4695C50.5782 95.5843 49.5445 95.5843 48.5682 95.4695C49.5445 95.2398 50.5207 95.0675 51.4969 95.0101L58.6753 94.2062L65.8536 93.4023C66.8872 93.2874 67.9209 93.23 68.8972 93.23Z" fill="#FBFCFD"/>
<path d="M78.5992 36.6687C78.9438 37.3578 87.9023 83.2968 87.9023 83.2968L66.8267 84.273L58.6146 44.7654L78.5992 36.6687Z" fill="#48494B"/>
<path d="M87.8495 83.2957L90.2614 82.2621L81.1306 36.9547L78.2593 36.7825L87.8495 83.2957Z" fill="#242425"/>
<path d="M70.1009 46.7164C70.1583 47.2907 69.7563 47.8649 69.1246 47.9223C68.5503 47.9798 67.9761 47.5778 67.9186 46.9461C67.8612 46.3719 68.2632 45.7976 68.8949 45.7402C69.5266 45.6828 70.0434 46.1422 70.1009 46.7164Z" fill="#242425"/>
<path d="M65.7923 78.9892L65.5051 72.9597L74.5212 69.2272L71.0181 60.9008C69.4102 57.2256 65.1606 55.5604 61.4852 57.1682C61.313 57.2256 61.0833 57.3405 60.911 57.4553C59.705 58.087 58.4417 58.7761 57.2931 59.4077C54.7089 60.7859 52.8712 63.1977 52.1821 66.0689C51.2058 70.8925 50.5167 75.8309 50.0573 80.7694" fill="#DEB097"/>
<path d="M170.141 25.5847C173.587 27.652 174.333 32.2459 174.678 36.2655C175.022 40.2852 175.482 44.8216 178.697 47.2334C181.339 49.2432 185.703 49.5878 186.68 52.6886C187.369 54.641 186.335 56.8231 184.383 57.5122C183.292 57.9142 182.086 57.7419 181.109 57.1103C182.545 59.522 182.258 62.6229 180.42 64.6902C178.468 66.5852 174.62 66.298 173.414 63.7714C174.161 65.4367 173.357 67.3891 171.691 68.1356C170.026 68.8821 168.074 68.0782 167.327 66.4129C167.27 66.298 167.212 66.1832 167.212 66.0683" fill="#242425"/>
<path d="M127.995 59.9241C127.535 62.1062 125.468 63.4844 123.286 63.025C121.103 62.5656 119.725 60.4983 120.185 58.3162C120.185 58.2588 120.242 58.2014 120.242 58.0865C120.701 56.4787 122.137 55.1005 121.965 53.4352C121.85 51.4254 119.553 50.3344 117.6 49.7601C115.648 49.1859 113.408 48.4394 112.834 46.487C112.26 44.5346 113.81 42.8119 115.016 41.2614C116.222 39.711 117.313 37.5289 116.165 35.921C115.59 35.1171 114.557 34.7726 113.81 34.0835C112.26 32.3608 112.317 29.7767 113.925 28.1114C115.533 26.561 117.773 25.757 120.012 25.9293C122.252 26.1016 124.434 26.3887 126.616 26.7907C133.967 27.652 141.375 25.4125 147.003 20.5315" fill="#242425"/>
<path d="M152.388 101.958C160.485 102.475 167.491 96.3307 168.008 88.2339C168.008 88.1191 168.008 87.9468 168.008 87.832L169.788 41.2039C170.535 29.5469 161.749 19.4978 150.091 18.7513C149.861 18.7513 149.632 18.7513 149.459 18.6938H148.368C137.285 18.9235 128.211 27.6519 127.58 38.7347C127.005 49.0135 126.431 60.4409 126.604 65.9535C127.006 77.3808 138.433 78.9313 138.433 78.9313L138.491 87.43C138.606 95.0674 144.636 101.499 152.388 101.958Z" fill="#DEB097"/>
<path d="M138.433 78.7581C143.716 78.7581 148.884 77.1503 153.249 74.2217C153.249 74.2217 149.918 82.5481 138.49 81.7442L138.433 78.7581Z" fill="#BFA190"/>
<path d="M131.72 45.9703C131.72 46.8317 132.467 47.5782 133.328 47.5782C134.189 47.6356 134.936 46.9465 134.993 46.0852C134.993 46.0852 134.993 46.0852 134.993 46.0278C134.993 45.1664 134.247 44.4199 133.386 44.4199C132.524 44.4199 131.778 45.0516 131.72 45.9703C131.72 45.9129 131.72 45.9703 131.72 45.9703Z" fill="#242425"/>
<path d="M130.172 44.2472C130.402 44.4769 131.551 43.5007 133.388 43.5007C135.226 43.5007 136.432 44.3046 136.604 44.0749C136.777 43.8452 136.49 43.6155 135.915 43.2136C135.169 42.6967 134.25 42.467 133.331 42.467C132.412 42.467 131.551 42.8116 130.804 43.3284C130.23 43.8452 130.058 44.1898 130.172 44.2472Z" fill="#242425"/>
<path d="M149.236 45.9698C149.236 46.8885 149.982 47.5776 150.844 47.5776C151.705 47.6351 152.452 47.0034 152.452 46.142V46.0846C152.452 45.2233 151.763 44.4768 150.844 44.4768C150.04 44.4193 149.293 45.051 149.236 45.9698C149.236 45.9123 149.236 45.9123 149.236 45.9698Z" fill="#242425"/>
<path d="M147.459 44.247C147.689 44.4767 148.837 43.5004 150.617 43.5004C152.398 43.5004 153.661 44.3044 153.891 44.0747C154.063 43.845 153.776 43.6153 153.202 43.2133C152.455 42.6965 151.536 42.4668 150.617 42.4668C149.699 42.4668 148.837 42.8113 148.091 43.3282C147.516 43.7301 147.344 44.1321 147.459 44.247Z" fill="#242425"/>
<path d="M141.366 57.3981C140.447 57.111 139.471 56.9962 138.494 56.9388C138.035 56.9388 137.633 56.8239 137.518 56.4794C137.461 56.02 137.576 55.5606 137.805 55.1586C138.207 54.0676 138.609 52.9191 139.069 51.7132C140.275 48.7846 141.193 45.7986 141.883 42.6978C140.504 45.5115 139.298 48.4401 138.38 51.4261C137.978 52.632 137.576 53.7805 137.174 54.8715C136.886 55.4457 136.829 56.02 137.001 56.6516C137.116 56.9962 137.403 57.2259 137.748 57.2833C137.978 57.3407 138.265 57.3407 138.494 57.3407C139.413 57.5704 140.389 57.513 141.366 57.3981Z" fill="#242425"/>
<path d="M146.537 58.4885C146.25 58.4885 146.307 60.3835 144.699 61.7616C143.091 63.1398 141.081 62.9675 141.024 63.2547C140.966 63.5418 141.483 63.5992 142.345 63.5992C143.493 63.5992 144.527 63.1972 145.388 62.4507C146.192 61.7617 146.709 60.728 146.767 59.637C146.882 58.9479 146.652 58.4885 146.537 58.4885Z" fill="#242425"/>
<path d="M146.822 37.3565C146.994 37.8159 148.774 37.5862 150.784 37.7584C152.794 37.9307 154.517 38.5049 154.804 38.0456C154.919 37.8159 154.632 37.4139 153.943 36.9545C153.024 36.3803 151.99 36.0931 150.957 35.9783C149.923 35.8634 148.832 36.0357 147.855 36.4377C147.109 36.7248 146.822 37.1268 146.822 37.3565Z" fill="#242425"/>
<path d="M130.688 39.1948C130.975 39.5967 132.181 39.1948 133.674 39.0799C135.11 38.9651 136.373 39.3096 136.66 38.8502C136.947 38.3908 136.603 38.276 136.028 37.874C135.282 37.4146 134.42 37.1849 133.617 37.2998C132.755 37.3572 131.951 37.6443 131.262 38.1611C130.745 38.5631 130.573 38.9651 130.688 39.1948Z" fill="#242425"/>
<path d="M157.157 28.9157H157.214C159.052 30.2938 160.315 32.3611 160.66 34.658V34.8877C161.177 38.1609 161.176 41.434 161.751 44.7072C162.153 47.9803 163.588 51.0812 165.943 53.4355C166.977 54.3543 168.757 54.9286 169.503 53.8375C169.79 53.3781 169.905 52.8613 169.848 52.3445C170.307 44.4775 172.26 37.4144 172.088 29.2028C172.03 26.9633 170.939 24.896 169.101 23.5753C167.379 22.3694 165.196 21.1635 163.359 22.0823C161.464 23.0585 159.052 26.6762 157.616 28.2266" fill="#242425"/>
<path d="M166.056 46.4295C166.228 46.3721 173.866 43.9603 173.751 51.77C173.694 59.5796 165.827 57.9143 165.827 57.6846C165.884 57.4549 166.056 46.4295 166.056 46.4295Z" fill="#DEB097"/>
<path d="M168.3 54.6987C168.3 54.6987 168.415 54.8135 168.645 54.8709C168.989 54.9858 169.334 54.9858 169.678 54.8709C170.712 54.2393 171.344 53.0908 171.286 51.8849C171.286 51.1958 171.172 50.5641 170.942 49.9325C170.827 49.4157 170.425 49.0137 169.908 48.8988C169.564 48.784 169.219 48.9563 169.104 49.2434C168.989 49.4731 169.104 49.6454 168.989 49.6454C168.874 49.6454 168.817 49.5305 168.874 49.186C168.932 49.0137 169.047 48.8414 169.162 48.6691C169.391 48.4969 169.678 48.4395 169.908 48.4969C170.54 48.6117 171.114 49.0711 171.286 49.7028C171.631 50.3919 171.746 51.1384 171.746 51.8849C171.803 53.3205 170.999 54.6412 169.736 55.2729C169.334 55.3877 168.874 55.3303 168.472 55.0432C168.3 54.8709 168.243 54.6987 168.3 54.6987Z" fill="#BFA190"/>
<path d="M163.65 23.3453C165.487 20.187 160.147 15.8228 156.242 14.6743C152.337 13.5259 147.341 15.5357 143.493 16.9138C141.081 17.7752 138.727 18.9237 136.142 18.8663C134.42 18.7514 132.754 18.3494 131.146 17.7178C129.538 17.0861 127.873 16.799 126.15 16.8564C124.427 16.9139 122.819 17.9475 122.073 19.5553C121.499 21.0484 122.245 22.7711 123.738 23.4027C123.853 23.4601 123.968 23.5176 124.14 23.5176C122.245 22.5414 119.948 23.2879 118.972 25.1829C117.995 27.0778 118.742 29.3748 120.637 30.351C121.441 30.753 122.417 30.8678 123.279 30.6955C122.13 29.8916 120.465 31.2698 120.637 32.7054C120.982 34.0835 122.073 35.232 123.451 35.5765C126.839 36.725 130.572 36.6102 133.903 35.1746C137.233 33.9687 140.335 32.1311 143.723 30.8678C147.111 29.6045 152.624 27.2501 155.955 28.3986C158.424 29.2025 160.147 32.1311 161.582 31.442C162.903 30.6955 163.765 29.3748 163.994 27.8818C164.167 26.3888 164.052 24.8957 163.765 23.4602" fill="#242425"/>
<path d="M128.277 22.2542C127.646 22.0245 126.899 22.1393 126.325 22.5413C124.717 23.6323 124.028 25.6996 124.774 27.4797C125.75 29.7192 128.737 31.0974 131.78 30.8677C135.054 30.4083 138.155 29.145 140.796 27.1352C143.323 25.1828 146.079 23.5175 148.951 22.1393C150.214 21.6225 151.592 21.278 152.913 21.1631C154.119 21.1057 155.325 21.2779 156.416 21.6799C158.082 22.1967 159.517 23.2878 160.436 24.7808C160.723 25.355 160.953 25.9293 161.183 26.5609C161.183 26.3887 161.183 26.2164 161.183 26.0441C161.125 25.5273 160.953 25.0679 160.723 24.666C159.862 23.0581 158.369 21.7948 156.646 21.2205C155.44 20.7611 154.177 20.5889 152.913 20.5889C151.478 20.6463 150.042 20.9908 148.721 21.5651C145.792 22.9432 142.978 24.6085 140.394 26.6184C137.867 28.5708 134.881 29.8341 131.723 30.2935C128.909 30.5806 126.095 29.3173 125.234 27.3649C124.832 26.5035 124.774 25.4699 125.176 24.5511C125.406 23.862 125.865 23.2304 126.44 22.8284C127.071 22.4264 127.646 22.2542 128.277 22.2542Z" fill="#48494B"/>
<path d="M149.583 17.8331C149.583 17.9479 150.617 17.6034 152.282 17.4885C156.704 17.2014 160.839 19.5558 162.849 23.4606C163.595 24.8387 163.825 25.9298 163.94 25.9298C163.94 25.011 163.768 24.0348 163.308 23.2309C161.413 18.9241 156.934 16.3975 152.225 16.9717C151.306 17.0291 150.387 17.3162 149.583 17.8331Z" fill="#48494B"/>
<path d="M170.712 37.5867C171.114 36.955 171.344 36.2085 171.344 35.462C171.631 31.6721 169.277 28.2267 165.601 27.1356C164.912 26.8485 164.108 26.7911 163.362 26.9634C163.362 27.0782 164.166 27.1356 165.429 27.595C168.702 28.8009 170.827 31.9592 170.827 35.4046C170.884 36.7254 170.597 37.5867 170.712 37.5867Z" fill="#48494B"/>
<g filter="url(#filter0_d_10242_125086)">
<path fill-rule="evenodd" clip-rule="evenodd" d="M50.0573 15.162C50.8597 15.2322 51.4532 15.9395 51.383 16.7419L49.1278 42.5189C49.0576 43.3212 48.3503 43.9148 47.5479 43.8446L19.2081 41.3652C19.1421 40.1939 18.2244 39.2182 17.0215 39.1129C15.8185 39.0077 14.7454 39.8092 14.477 40.9513L7.42959 40.3347C6.62721 40.2645 6.03367 39.5571 6.10387 38.7548L8.35906 12.9778C8.42926 12.1754 9.13662 11.5819 9.939 11.6521L16.9868 12.2687C16.9607 12.3797 16.9422 12.4939 16.932 12.6109C16.8165 13.931 17.793 15.0947 19.1131 15.2102C20.4332 15.3257 21.597 14.3492 21.7124 13.0291C21.7227 12.9122 21.7243 12.7965 21.718 12.6826L50.0573 15.162Z" fill="#F6F7FA"/>
</g>
<path d="M20.5385 32.2267L21.3471 22.9853L21.9391 23.0371L21.1306 32.2785L20.5385 32.2267ZM23.0972 25.932C23.0859 25.5624 22.935 25.2631 22.6447 25.034C22.3543 24.8049 21.9853 24.6707 21.5377 24.6316C21.2104 24.6029 20.9194 24.6308 20.6646 24.7152C20.4123 24.7999 20.2094 24.9288 20.056 25.1021C19.9051 25.2757 19.8192 25.4804 19.7986 25.7162C19.7813 25.9135 19.8134 26.0873 19.8949 26.2375C19.9789 26.3855 20.0914 26.513 20.2324 26.6199C20.3737 26.7244 20.5235 26.8139 20.6818 26.8884C20.8404 26.9605 20.9868 27.0205 21.1208 27.0687L21.854 27.3365C22.0421 27.4039 22.2501 27.4924 22.4782 27.6021C22.7087 27.712 22.9255 27.8534 23.1286 28.0264C23.3343 28.1972 23.4978 28.4079 23.6189 28.6586C23.7401 28.9093 23.7855 29.2079 23.7552 29.5544C23.7202 29.9539 23.5839 30.3058 23.3463 30.6099C23.1112 30.9143 22.7855 31.1441 22.3694 31.2993C21.9556 31.4546 21.4648 31.5075 20.8968 31.4578C20.3674 31.4115 19.9164 31.2859 19.5439 31.0812C19.1737 30.8766 18.8914 30.6118 18.6967 30.2868C18.5044 29.962 18.4115 29.5962 18.418 29.1893L19.3422 29.2702C19.3418 29.5515 19.4155 29.7907 19.5631 29.9879C19.7134 30.183 19.911 30.3361 20.1559 30.4472C20.4034 30.5562 20.674 30.6235 20.9676 30.6492C21.3093 30.6791 21.621 30.6506 21.9026 30.5637C22.1845 30.4743 22.4136 30.3367 22.5899 30.1509C22.7664 29.9626 22.8664 29.7337 22.89 29.4642C22.9115 29.2187 22.8604 29.013 22.7367 28.8469C22.613 28.6809 22.4434 28.54 22.228 28.4241C22.0127 28.3083 21.7782 28.2029 21.5246 28.1079L20.6376 27.7684C20.0745 27.5519 19.638 27.2748 19.328 26.9373C19.018 26.5997 18.8849 26.1819 18.9284 25.6837C18.9647 25.2698 19.1081 24.9186 19.3589 24.6301C19.6123 24.3394 19.9366 24.1253 20.3318 23.9877C20.7296 23.8479 21.1644 23.7986 21.6361 23.8399C22.1126 23.8816 22.5287 24.0041 22.8843 24.2074C23.2402 24.4083 23.5136 24.665 23.7045 24.9776C23.8978 25.2903 23.9842 25.6338 23.9636 26.0078L23.0972 25.932Z" fill="#31377C"/>
<path d="M32.3365 36.1543C31.3739 36.0701 30.5281 35.8142 29.7992 35.3867C29.0707 34.9544 28.5104 34.4009 28.1184 33.7264C27.7311 33.0523 27.5589 32.3049 27.6016 31.4841L30.2008 31.7115C30.1958 32.3222 30.4148 32.8409 30.8576 33.2676C31.3008 33.6896 31.857 33.9298 32.526 33.9884C33.0507 34.0343 33.5281 33.9548 33.9583 33.7499C34.3885 33.545 34.7402 33.2387 35.0135 32.831C35.2869 32.4232 35.4451 31.9448 35.4883 31.3957C35.542 30.8377 35.4674 30.3317 35.2647 29.8774C35.0619 29.4232 34.7619 29.055 34.3646 28.7729C33.9678 28.4859 33.4974 28.3187 32.9535 28.2711C32.5111 28.2275 32.0683 28.2713 31.6252 28.4022C31.1821 28.5332 30.8234 28.725 30.5491 28.9774L28.1652 28.3687L29.6047 20.8121L38.182 21.5625L37.9861 23.8007L31.6254 23.2442L30.8564 27.1273L30.9431 27.1349C31.2457 26.8364 31.6565 26.6032 32.1756 26.4352C32.6951 26.2624 33.2533 26.2021 33.8502 26.2543C34.7454 26.3326 35.5259 26.6143 36.1916 27.0994C36.8577 27.5796 37.3607 28.2056 37.7006 28.9774C38.0404 29.7492 38.1689 30.6092 38.086 31.5574C38.0005 32.5345 37.698 33.3859 37.1786 34.1117C36.6645 34.833 35.9887 35.3777 35.1514 35.7458C34.3193 36.1095 33.381 36.2457 32.3365 36.1543Z" fill="#31377C"/>
<defs>
<filter id="filter0_d_10242_125086" x="0.264688" y="11.6465" width="56.9575" height="43.871" filterUnits="userSpaceOnUse" color-interpolation-filters="sRGB">
<feFlood flood-opacity="0" result="BackgroundImageFix"/>
<feColorMatrix in="SourceAlpha" type="matrix" values="0 0 0 0 0 0 0 0 0 0 0 0 0 0 0 0 0 0 127 0" result="hardAlpha"/>
<feOffset dy="5.83355"/>
<feGaussianBlur stdDeviation="2.91677"/>
<feComposite in2="hardAlpha" operator="out"/>
<feColorMatrix type="matrix" values="0 0 0 0 0 0 0 0 0 0 0 0 0 0 0 0 0 0 0.25 0"/>
<feBlend mode="normal" in2="BackgroundImageFix" result="effect1_dropShadow_10242_125086"/>
<feBlend mode="normal" in="SourceGraphic" in2="effect1_dropShadow_10242_125086" result="shape"/>
</filter>
</defs>
</svg>
