<?xml version="1.0" encoding="utf-8"?>
<!-- Generator: Adobe Illustrator 24.1.3, SVG Export Plug-In . SVG Version: 6.00 Build 0)  -->
<svg version="1.1" id="Capa_1" xmlns="http://www.w3.org/2000/svg" xmlns:xlink="http://www.w3.org/1999/xlink" x="0px" y="0px"
	 viewBox="0 0 455.4 455.4" style="enable-background:new 0 0 455.4 455.4;" xml:space="preserve">
<style type="text/css">
	.st0{fill:#F45656;}
	.st1{opacity:0.2;}
	.st2{fill:#FFFFFF;}
</style>
<path class="st0" d="M405.5,412.8c-69.7,56.9-287.3,56.9-355.6,0c-69.7-56.9-62.6-300.1,0-364.1s293-64,355.6,0
	S475.2,355.9,405.5,412.8z"/>
<g class="st1">
	<path class="st2" d="M229.1,313.2C166.6,363,96.9,388.6,31.4,390C-16.9,307.5-7,107,49.9,48.7c51.2-52.6,211.9-62.6,304.4-29.9
		C377,112.7,330.1,232.1,229.1,313.2z"/>
</g>
<path class="st2" d="M335.8,336c-8.5,8.5-22.8,8.5-32.7,0l-75.4-75.4L152.3,336c-8.5,8.5-24.2,8.5-32.7,0s-8.5-24.2,0-32.7
	l76.8-75.4l-76.8-75.4c-8.5-8.5-8.5-22.8,0-32.7c8.5-8.5,24.2-8.5,32.7,0l75.4,76.8l75.4-76.8c8.5-8.5,22.8-8.5,32.7,0
	c8.5,8.5,8.5,24.2,0,32.7l-75.4,75.4l75.4,75.4C345.8,313.2,345.8,327.4,335.8,336z"/>
</svg>
