<svg width="196" height="211" viewBox="0 0 196 211" fill="none" xmlns="http://www.w3.org/2000/svg">
<g clip-path="url(#clip0_1553_82160)">
<path d="M118.559 31.0334C118.559 31.0334 139.391 36.5536 145.979 58.6402L137.152 62.5889C137.152 62.5889 135.123 47.2226 114.483 40.5309C103.314 36.9079 88.5235 42.0167 84.4309 46.7026L74.4893 42.3881C81.1341 35.0335 97.533 25.2732 118.559 31.0334Z" fill="#505798"/>
<path d="M151.647 53.0742L129.626 60.4174L146.525 68.932L151.647 53.0742Z" fill="#505798"/>
<path d="M82.672 210.399L15.0163 210.36C6.87788 210.36 0.285156 203.409 0.285156 194.785L0.319721 15.5843C0.319721 6.98538 6.92726 0.0149354 15.0657 0.0199001L82.7214 0.0596168C90.8598 0.0596168 97.4526 7.03999 97.4526 15.6339L97.418 194.86C97.418 203.434 90.8154 210.404 82.672 210.399Z" fill="#242425"/>
<path d="M82.6521 6.39954H69.5358C67.7728 6.39954 66.3456 7.97335 66.3456 9.91455V12.4118C66.3456 14.353 64.9184 15.9268 63.1604 15.9268H37.5944C35.8363 15.9268 34.4091 14.348 34.4091 12.4068V9.88476C34.4091 7.94356 32.982 6.36975 31.2239 6.36975H26.6115H15.1297C9.42593 6.36975 4.80361 11.2501 4.80361 17.2921L4.76904 192.204C4.76904 198.226 9.38642 203.126 15.0853 203.126L82.6077 203.171C88.3065 203.171 92.9338 198.29 92.9338 192.248L92.9684 17.3368C92.9684 11.2848 88.351 6.4045 82.6521 6.39954Z" fill="white"/>
<path d="M19.0657 189.284V194.418C19.0701 194.521 19.0464 194.623 18.9972 194.713C18.9479 194.803 18.8749 194.878 18.7862 194.929C18.6975 194.98 18.5965 195.006 18.4943 195.003C18.392 195.001 18.2924 194.97 18.2064 194.914L14.1915 192.348C14.112 192.296 14.0465 192.226 14.0012 192.143C13.9559 192.059 13.9321 191.966 13.9321 191.871C13.9321 191.776 13.9559 191.683 14.0012 191.599C14.0465 191.516 14.112 191.446 14.1915 191.394L18.1916 188.808C18.2764 188.749 18.3756 188.715 18.4784 188.71C18.5811 188.704 18.6834 188.728 18.7739 188.777C18.8643 188.826 18.9394 188.9 18.9909 188.989C19.0424 189.079 19.0683 189.181 19.0657 189.284Z" fill="#E1E2E4"/>
<path d="M52.049 191.802C52.048 192.501 51.8406 193.185 51.4531 193.767C51.0657 194.348 50.5154 194.801 49.8719 195.068C49.2285 195.336 48.5206 195.405 47.838 195.268C47.1553 195.131 46.5283 194.793 46.0364 194.298C45.5445 193.803 45.2096 193.172 45.0741 192.485C44.9387 191.799 45.0087 191.087 45.2753 190.441C45.542 189.794 45.9933 189.242 46.5722 188.853C47.1511 188.464 47.8317 188.257 48.5279 188.257C49.4622 188.258 50.3578 188.632 51.018 189.297C51.6782 189.961 52.049 190.862 52.049 191.802Z" fill="#E1E2E4"/>
<path d="M82.8844 188.718H78.2374C77.7274 188.718 77.314 189.134 77.314 189.647V194.333C77.314 194.846 77.7274 195.262 78.2374 195.262H82.8844C83.3945 195.262 83.8079 194.846 83.8079 194.333V189.647C83.8079 189.134 83.3945 188.718 82.8844 188.718Z" fill="#E1E2E4"/>
<path d="M87.5069 24.8236C87.5078 25.0614 87.4386 25.2942 87.3079 25.4924C87.1771 25.6906 86.9908 25.8454 86.7725 25.9371C86.5543 26.0288 86.3138 26.0533 86.0817 26.0075C85.8495 25.9617 85.6361 25.8477 85.4685 25.6799C85.3008 25.512 85.1865 25.298 85.14 25.0648C85.0935 24.8316 85.1169 24.5897 85.2072 24.3699C85.2975 24.1501 85.4507 23.9621 85.6473 23.8299C85.8439 23.6977 86.0752 23.6271 86.3118 23.6271C86.6279 23.6271 86.9311 23.753 87.1551 23.9772C87.3791 24.2015 87.5055 24.5058 87.5069 24.8236Z" fill="#242425"/>
<path d="M86.3118 29.3067C86.9718 29.3067 87.5069 28.7688 87.5069 28.1053C87.5069 27.4417 86.9718 26.9038 86.3118 26.9038C85.6518 26.9038 85.1167 27.4417 85.1167 28.1053C85.1167 28.7688 85.6518 29.3067 86.3118 29.3067Z" fill="#242425"/>
<path d="M86.3118 32.5883C86.9718 32.5883 87.5069 32.0504 87.5069 31.3869C87.5069 30.7233 86.9718 30.1854 86.3118 30.1854C85.6518 30.1854 85.1167 30.7233 85.1167 31.3869C85.1167 32.0504 85.6518 32.5883 86.3118 32.5883Z" fill="#242425"/>
<path d="M15.1496 24.2526L10.2754 27.9265H11.5149V32.3153L14.1421 32.3252V29.0386L16.2163 29.0287V32.3153H18.7546V27.8818L20.0188 27.8669L15.1496 24.2526Z" fill="#242425"/>
<path d="M93.2796 36.9424C93.2796 37.0119 73.3927 37.0715 48.8688 37.0715C24.3448 37.0715 4.45801 37.0119 4.45801 36.9424C4.45801 36.8729 24.3399 36.8134 48.8688 36.8134C73.3977 36.8134 93.2796 36.8729 93.2796 36.9424Z" fill="#E1E2E4"/>
<path d="M47.9305 119.595H47.1404C44.4675 119.595 42.3008 121.773 42.3008 124.46V163.602C42.3008 166.289 44.4675 168.467 47.1404 168.467H47.9305C50.6034 168.467 52.7701 166.289 52.7701 163.602V124.46C52.7701 121.773 50.6034 119.595 47.9305 119.595Z" fill="#C9CCCF"/>
<g filter="url(#filter0_d_1553_82160)">
<path fill-rule="evenodd" clip-rule="evenodd" d="M78.0869 125.844C79.2103 125.722 80.2178 126.537 80.3371 127.665L82.9718 152.567C83.0911 153.694 82.2771 154.707 81.1536 154.829L53.1874 157.861C52.8956 156.711 51.7981 155.921 50.5865 156.052C49.375 156.184 48.4676 157.191 48.4232 158.378L41.8975 159.086C40.774 159.208 39.7666 158.392 39.6473 157.265L37.0125 132.363C36.8932 131.236 37.7073 130.223 38.8308 130.101L45.357 129.393C45.3527 129.509 45.3565 129.626 45.369 129.744C45.5102 131.078 46.7022 132.042 48.0315 131.898C49.3608 131.754 50.324 130.556 50.1829 129.222C50.1704 129.104 50.1496 128.988 50.1213 128.877L78.0869 125.844Z" fill="#505798"/>
</g>
<line y1="-0.125" x2="20.6141" y2="-0.125" transform="matrix(0.105967 0.994545 -0.994078 0.107044 47.7056 134.115)" stroke="#F6F7FA" stroke-width="0.25" stroke-dasharray="0.5 0.5"/>
<path d="M64.4609 149.415L65.6866 149.282L65.5518 147.952C68.0133 147.503 69.2907 145.979 69.0909 144.034C68.8671 141.974 67.0736 141.218 65.2479 140.987L64.8559 140.93L64.5284 137.614C65.4707 137.676 66.1252 138.168 66.3061 138.994L68.3703 138.77C68.1404 136.928 66.5525 135.739 64.3448 135.767L64.2075 134.414L62.9817 134.547L63.119 135.9C60.9741 136.355 59.5542 137.86 59.7632 139.78C59.9436 141.486 61.2558 142.336 63.2578 142.63L63.7923 142.707L64.1405 146.221C63.0884 146.17 62.2799 145.659 62.0936 144.617L59.9832 144.846C60.2944 147.013 61.923 148.146 64.3261 148.085L64.4609 149.415ZM65.3663 146.088L65.0524 142.899C66.1373 143.092 66.851 143.426 66.9439 144.249C67.029 145.109 66.406 145.799 65.3663 146.088ZM63.5969 140.75C62.772 140.581 61.9987 140.236 61.9231 139.411C61.8496 138.661 62.3491 138.02 63.3027 137.746L63.5969 140.75Z" fill="#F6F7FA"/>
<path d="M42.4096 121.556H22.9326V165.325H42.4096V121.556Z" fill="white"/>
<path d="M159.622 91.9791C159.569 92.1638 159.568 92.36 159.62 92.5452C159.672 92.7304 159.774 92.8971 159.916 93.0261C160.062 93.1497 160.241 93.2281 160.431 93.2522C160.62 93.2763 160.813 93.245 160.985 93.162C161.635 92.8423 161.73 91.9472 161.612 91.2279C161.386 90.5315 161.37 89.7837 161.564 89.0779C161.869 88.612 162.249 88.2013 162.689 87.8631C163.034 87.5208 163.295 87.1018 163.45 86.6397C163.606 86.1775 163.652 85.685 163.585 85.2017C163.51 84.7201 163.305 84.2688 162.992 83.8977C162.678 83.5267 162.269 83.2505 161.81 83.0998C160.867 82.82 159.694 83.0997 158.996 82.4044C158.489 81.8929 158.473 81.0697 158.085 80.4703C157.483 79.5352 156.183 79.3674 155.082 79.5032C154.008 79.7801 152.892 79.8479 151.793 79.703C150.937 79.3537 150.115 78.9256 149.337 78.4243C148.423 77.9871 147.397 77.8494 146.401 78.0306C145.406 78.2117 144.492 78.7026 143.788 79.4342C143.083 80.1659 142.624 81.1017 142.473 82.1103C142.323 83.1189 142.489 84.1496 142.95 85.0578C143.274 85.7052 143.924 87.5754 145.977 87.5754" fill="#242425"/>
<path d="M160.05 84.2195V85.7141L159.757 107.98C159.727 108.613 159.574 109.233 159.306 109.805C159.038 110.377 158.66 110.89 158.195 111.314C157.729 111.738 157.185 112.065 156.594 112.276C156.002 112.487 155.375 112.578 154.748 112.544C153.459 112.552 152.216 112.058 151.279 111.164C150.341 110.271 149.782 109.048 149.716 107.749C149.716 104.999 149.645 102.114 149.645 102.114C149.645 102.114 146.143 101.531 145.421 96.9192C145.118 93.888 145.1 90.8347 145.366 87.8C145.406 87.1449 145.578 86.5048 145.869 85.9182C146.161 85.3316 146.568 84.8105 147.065 84.3865C147.561 83.9624 148.138 83.644 148.76 83.4505C149.382 83.257 150.036 83.1924 150.683 83.2604L160.05 84.2195Z" fill="#F0BFA4"/>
<path d="M146.268 90.3722C146.266 90.4488 146.279 90.5251 146.306 90.5967C146.333 90.6683 146.374 90.7338 146.426 90.7895C146.478 90.8452 146.541 90.8899 146.61 90.9212C146.68 90.9524 146.754 90.9695 146.83 90.9716C146.905 90.977 146.98 90.9674 147.051 90.9433C147.122 90.9192 147.187 90.8812 147.243 90.8313C147.299 90.7814 147.345 90.7208 147.377 90.653C147.41 90.5851 147.429 90.5114 147.433 90.4361C147.435 90.282 147.377 90.1331 147.272 90.0211C147.167 89.9091 147.023 89.843 146.87 89.8367C146.795 89.8313 146.721 89.8409 146.65 89.865C146.579 89.8891 146.514 89.9272 146.458 89.977C146.401 90.0269 146.356 90.0875 146.323 90.1554C146.291 90.2232 146.272 90.2969 146.268 90.3722Z" fill="#242425"/>
<path d="M146.142 89.7098C146.213 89.7897 146.657 89.462 147.283 89.462C147.909 89.462 148.376 89.7817 148.448 89.7018C148.519 89.6219 148.408 89.5259 148.202 89.3821C147.934 89.1893 147.612 89.0858 147.283 89.0858C146.953 89.0858 146.632 89.1893 146.363 89.3821C146.165 89.5419 146.102 89.6778 146.142 89.7098Z" fill="#242425"/>
<path d="M152.577 90.3722C152.577 90.5271 152.636 90.6761 152.743 90.7878C152.849 90.8995 152.994 90.9654 153.148 90.9716C153.222 90.977 153.297 90.9674 153.368 90.9433C153.439 90.9192 153.504 90.8812 153.56 90.8313C153.616 90.7815 153.662 90.7208 153.695 90.653C153.727 90.5851 153.746 90.5114 153.75 90.4362C153.75 90.2826 153.692 90.1348 153.587 90.0232C153.483 89.9117 153.339 89.8449 153.187 89.8367C153.112 89.8313 153.037 89.8409 152.966 89.8649C152.895 89.8889 152.829 89.9268 152.772 89.9766C152.715 90.0264 152.669 90.0869 152.635 90.1548C152.602 90.2227 152.582 90.2966 152.577 90.3722Z" fill="#242425"/>
<path d="M152.34 89.8289C152.411 89.9088 152.855 89.5731 153.489 89.5811C154.123 89.5891 154.582 89.9008 154.646 89.8209C154.709 89.7409 154.606 89.645 154.408 89.5012C154.135 89.3055 153.808 89.2019 153.473 89.2055C153.145 89.2093 152.827 89.3154 152.561 89.5092C152.395 89.653 152.3 89.7969 152.34 89.8289Z" fill="#242425"/>
<path d="M150.016 94.5443C149.684 94.4428 149.34 94.3811 148.994 94.3605C148.835 94.3605 148.677 94.3125 148.653 94.2006C148.639 94.034 148.675 93.867 148.756 93.7211C148.915 93.3295 149.073 92.9219 149.239 92.4823C149.692 91.4331 150.058 90.3477 150.333 89.2375C149.817 90.2505 149.374 91.3003 149.01 92.3784L148.558 93.6252C148.455 93.8214 148.424 94.0477 148.471 94.2646C148.495 94.3213 148.532 94.3717 148.579 94.4118C148.626 94.452 148.681 94.4809 148.74 94.4964C148.829 94.5102 148.92 94.5102 149.01 94.4964C149.341 94.5601 149.68 94.5762 150.016 94.5443Z" fill="#242425"/>
<path d="M149.612 102.073C151.763 102.106 153.881 101.536 155.73 100.426C155.73 100.426 154.248 103.623 149.676 103.16L149.612 102.073Z" fill="#EAB292"/>
<path d="M151.904 94.9833C151.801 94.9833 151.801 95.6706 151.215 96.1581C150.628 96.6457 149.899 96.5737 149.899 96.6696C149.899 96.7655 150.058 96.8055 150.367 96.8135C150.767 96.8175 151.156 96.682 151.468 96.4299C151.768 96.1818 151.961 95.8268 152.007 95.4388C152.031 95.1511 151.952 94.9833 151.904 94.9833Z" fill="#242425"/>
<path d="M152.174 87.3355C152.237 87.5114 152.871 87.4314 153.608 87.5194C154.345 87.6073 154.947 87.8151 155.042 87.6552C155.137 87.4954 154.987 87.4234 154.741 87.2556C154.422 87.0465 154.058 86.9177 153.679 86.88C153.302 86.8283 152.918 86.8722 152.562 87.0079C152.285 87.1197 152.15 87.2556 152.174 87.3355Z" fill="#242425"/>
<path d="M146.374 87.871C146.485 88.0149 146.921 87.871 147.444 87.871C147.967 87.871 148.403 87.9749 148.506 87.8231C148.609 87.6712 148.506 87.5993 148.292 87.4634C148.033 87.2952 147.728 87.2141 147.42 87.2317C147.114 87.2328 146.817 87.3337 146.572 87.5194C146.382 87.6393 146.326 87.7991 146.374 87.871Z" fill="#242425"/>
<path d="M145.177 85.5613C146.05 85.9268 146.991 86.0961 147.935 86.0574C148.879 86.0188 149.804 85.7731 150.645 85.3375C152.705 84.3865 155.074 83.9629 155.582 84.3945C156.089 84.826 156.136 86.928 158.125 87.5914C158.125 87.5914 157.856 91.5875 159.449 91.5075C161.041 91.4276 160.804 83.3715 160.804 83.3715L156.422 83.1317L152.214 82.1966L147.808 82.7321L144.693 83.4833L145.177 85.5613Z" fill="#242425"/>
<path d="M160.904 82.3887C160.904 82.3247 160.556 82.1809 160.112 82.3407C159.668 82.5005 159.478 82.8522 159.533 82.8842C159.589 82.9161 159.827 82.7004 160.199 82.5725C160.571 82.4446 160.888 82.4526 160.904 82.3887Z" fill="#242425"/>
<path d="M159.59 81.0296C159.513 81.3656 159.468 81.7081 159.455 82.0526C159.376 82.5961 159.146 82.9877 159.201 83.0277C159.257 83.0676 159.606 82.7 159.693 82.0846C159.778 81.7313 159.742 81.3592 159.59 81.0296Z" fill="#242425"/>
<path d="M159.352 90.0367C159.423 90.0367 161.999 89.1256 162.023 91.819C162.046 94.5124 159.368 93.9769 159.368 93.897C159.368 93.8171 159.352 90.0367 159.352 90.0367Z" fill="#F0BFA4"/>
<path d="M160.168 92.8504C160.168 92.8504 160.216 92.8504 160.295 92.9143C160.35 92.939 160.409 92.9518 160.469 92.9518C160.529 92.9518 160.589 92.939 160.644 92.9143C160.814 92.8013 160.952 92.6451 161.044 92.4613C161.136 92.2776 161.178 92.0728 161.167 91.8673C161.168 91.6358 161.119 91.4067 161.024 91.196C160.999 91.113 160.954 91.0375 160.893 90.9761C160.833 90.9148 160.758 90.8695 160.675 90.8443C160.622 90.831 160.565 90.8364 160.515 90.8596C160.464 90.8828 160.423 90.9225 160.398 90.9722C160.398 91.0521 160.398 91.1001 160.398 91.1081C160.398 91.1161 160.343 91.0601 160.398 90.9482C160.413 90.8823 160.449 90.8232 160.501 90.7804C160.574 90.7261 160.664 90.7005 160.755 90.7085C160.864 90.7311 160.967 90.7809 161.052 90.8535C161.138 90.9261 161.205 91.0191 161.246 91.1241C161.36 91.3547 161.417 91.6097 161.412 91.8673C161.427 92.1073 161.372 92.3465 161.254 92.5553C161.136 92.7641 160.959 92.9334 160.747 93.0422C160.674 93.0629 160.599 93.0671 160.525 93.0547C160.451 93.0423 160.38 93.0134 160.319 92.9703C160.176 92.9143 160.16 92.8584 160.168 92.8504Z" fill="#EAB292"/>
<path d="M171.414 118.992C171.414 118.992 172.293 144.687 172.206 147.764L142.228 148.348L141.855 136.759V126.857L138.844 131.388L129.755 123.796L139.502 111.16C141.236 109.328 143.372 107.932 145.738 107.084C146.997 106.629 148.317 106.373 149.653 106.325C152.724 107.304 156.02 107.304 159.091 106.325L160.676 106.5H160.803C163.635 106.845 166.254 108.19 168.196 110.296C170.139 112.403 171.279 115.136 171.414 118.009V118.992Z" fill="#EA837D"/>
<path d="M141.991 125.802C141.869 124.332 141.829 122.856 141.872 121.382C141.829 119.905 141.869 118.427 141.991 116.954C142.109 118.427 142.148 119.905 142.11 121.382C142.148 122.856 142.109 124.332 141.991 125.802Z" fill="#242425"/>
<path d="M160.737 106.524C160.737 106.524 171.95 106.612 173.337 118.552L174.034 127.424L163.875 127.224L160.737 106.524Z" fill="#EA837D"/>
<g opacity="0.3">
<path opacity="0.3" d="M163.077 116.842L161.46 131.092L165.098 133.298L164.741 127.24L163.759 127.224L163.077 116.842Z" fill="black"/>
</g>
<path d="M143.64 148.436V115.388L160.741 115.037L164.291 148.356L143.64 148.436Z" fill="#FBFCFD"/>
<path d="M146.229 130.853L158.908 142.474C161.951 145.263 167.467 145.958 170.882 143.657C172.926 142.282 173.339 139.756 173.758 137.311C174.199 134.033 174.241 130.713 173.885 127.424L164.748 127.24L165.002 133.107L149.724 124.403L149.446 124.068C149.28 123.636 149.098 123.124 148.908 122.517C148.739 121.985 148.664 121.428 148.686 120.871C148.689 120.247 148.761 119.625 148.9 119.016C148.9 118.977 148.9 118.921 148.947 118.889C148.984 118.808 149.003 118.721 149.003 118.633C149.024 118.517 149.013 118.398 148.97 118.289C148.928 118.18 148.856 118.084 148.763 118.014C148.67 117.943 148.56 117.9 148.444 117.89C148.328 117.879 148.211 117.901 148.107 117.953C147.663 118.241 147.061 119.632 147.045 121.446V121.526C146.982 123.364 145.294 121.07 144.668 120.239C144.042 119.408 141.974 116.954 141.57 116.954C140.983 116.954 140.88 117.61 141.522 118.417C142.164 119.224 143.947 121.798 143.511 122.125C143.075 122.453 139.921 118.193 139.921 118.193C139.921 118.193 139.39 117.17 138.875 117.53C137.94 118.177 141.609 122.437 141.974 122.837C142.219 123.108 141.752 123.484 141.506 123.172C141.261 122.861 138.455 118.857 137.496 119.504C136.759 120 140.484 123.037 140.619 124.203C140.753 125.37 138.019 121.598 137.33 122.109C137.076 122.293 136.91 122.469 138.78 124.395C140.312 125.839 141.923 127.194 143.606 128.455L146.229 130.853Z" fill="#F0BFA4"/>
<path d="M160.206 106.469C159.102 107.744 158.315 109.266 157.911 110.909C157.508 112.552 157.498 114.269 157.885 115.916H159.469C159.469 115.916 158.455 108.123 162.132 106.669C161.502 106.517 160.854 106.45 160.206 106.469Z" fill="#FBFCFD"/>
<path d="M146.499 106.868C146.499 106.868 143.258 109.778 144.439 115.772H146.024C146.024 115.772 145.113 107.859 148.79 106.405C148.002 106.386 147.219 106.544 146.499 106.868Z" fill="#FBFCFD"/>
<path d="M131.143 124.523L117.822 141.251L124.51 145.063L138.6 130.901L131.143 124.523Z" fill="#F0BFA4"/>
<path d="M129.177 143.13C129.136 142.697 129.173 142.261 129.288 141.843C129.344 141.412 129.47 140.994 129.66 140.604C129.628 141.031 129.557 141.454 129.446 141.867C129.387 142.294 129.297 142.716 129.177 143.13Z" fill="#242425"/>
<path d="M116.767 145.377L113.946 140.446H144.867L141.404 145.409L116.767 145.377Z" fill="#48494B"/>
<path d="M166.303 143.13C166.271 142.697 166.309 142.263 166.414 141.843C166.466 141.41 166.595 140.991 166.794 140.604C166.758 141.03 166.686 141.453 166.58 141.867C166.525 142.295 166.432 142.718 166.303 143.13Z" fill="#242425"/>
<path d="M167.593 143.386C167.617 142.845 167.7 142.309 167.839 141.787C167.925 141.261 168.06 140.745 168.243 140.245C168.22 140.785 168.138 141.321 167.997 141.843C167.91 142.369 167.775 142.885 167.593 143.386Z" fill="#242425"/>
<path d="M169.208 142.825C169.238 142.319 169.323 141.818 169.462 141.331C169.549 140.83 169.688 140.34 169.874 139.868C169.76 140.875 169.537 141.867 169.208 142.825Z" fill="#242425"/>
<path d="M185.603 144.473H101.264C98.9089 144.473 97 146.392 97 148.759V206.54C97 208.907 98.9089 210.826 101.264 210.826H185.603C187.958 210.826 189.867 208.907 189.867 206.54V148.759C189.867 146.392 187.958 144.473 185.603 144.473Z" fill="#636467"/>
<path d="M188.496 171.558H164.459C160.47 171.558 157.237 174.808 157.237 178.818V180.011C157.237 184.02 160.47 187.271 164.459 187.271H188.496C192.485 187.271 195.718 184.02 195.718 180.011V178.818C195.718 174.808 192.485 171.558 188.496 171.558Z" fill="#636467"/>
<path d="M188.502 187.543H164.464C162.476 187.54 160.571 186.745 159.166 185.332C157.76 183.919 156.969 182.003 156.966 180.005V178.818C156.969 176.82 157.76 174.905 159.166 173.493C160.571 172.081 162.477 171.287 164.464 171.285H188.502C190.488 171.288 192.392 172.083 193.796 173.495C195.201 174.907 195.991 176.821 195.994 178.818V180.005C195.991 182.002 195.201 183.917 193.797 185.33C192.392 186.743 190.488 187.539 188.502 187.543ZM164.464 171.83C162.621 171.832 160.853 172.568 159.549 173.878C158.245 175.188 157.511 176.965 157.508 178.818V180.005C157.509 181.859 158.243 183.637 159.547 184.948C160.851 186.26 162.62 186.997 164.464 186.998H188.502C190.345 186.995 192.112 186.258 193.415 184.947C194.718 183.636 195.451 181.858 195.452 180.005V178.818C195.449 176.965 194.716 175.19 193.413 173.88C192.11 172.57 190.344 171.833 188.502 171.83H164.464Z" fill="#48494B"/>
<path d="M170.404 182.6C172.168 180.078 171.565 176.596 169.056 174.822C166.548 173.049 163.084 173.655 161.32 176.177C159.555 178.699 160.159 182.181 162.667 183.955C165.176 185.729 168.639 185.122 170.404 182.6Z" fill="#48494B"/>
<path d="M49 111C67.2254 111 82 96.0015 82 77.5C82 58.9985 67.2254 44 49 44C30.7746 44 16 58.9985 16 77.5C16 96.0015 30.7746 111 49 111Z" fill="#DFE1F2"/>
<mask id="mask0_1553_82160" style="mask-type:alpha" maskUnits="userSpaceOnUse" x="15" y="44" width="67" height="67">
<path d="M48.6391 111C66.9934 111 81.8725 96.0416 81.8725 77.5894C81.8725 59.1373 66.9934 44.1788 48.6391 44.1788C30.2848 44.1788 15.4058 59.1373 15.4058 77.5894C15.4058 96.0416 30.2848 111 48.6391 111Z" fill="#F5F5F5"/>
</mask>
<g mask="url(#mask0_1553_82160)">
<path d="M70.1658 97.9546C70.0542 96.8898 69.7023 95.8661 69.3519 94.8535C68.1997 91.5353 67.0502 88.2166 65.9032 84.8974C65.6 84.0227 65.2889 83.1321 64.7358 82.3937C64.1828 81.6552 63.3391 81.0753 62.4199 81.0816L62.9431 102.496L64.2566 105.561C66.0271 105.313 67.6329 104.381 68.7353 102.962C69.8377 101.543 70.3506 99.7477 70.1658 97.9546Z" fill="#2F3476"/>
<path d="M50.5714 84.7234L42.549 76.2837C42.549 76.2837 35.8479 77.8874 34.3475 79.8254C33.2932 81.1865 34.0112 92.0269 34.0112 92.0269C34.0112 92.0269 39.7319 109.076 40.1388 110.687L39.0563 114.681H65.9626L63.5414 101.528L65.4268 79.1408L52.8794 75.9716C53.09 76.5769 50.5714 84.7234 50.5714 84.7234Z" fill="#2F3476"/>
<g opacity="0.3">
<path opacity="0.3" d="M39.5392 113.26C41.4387 112.834 42.8779 111.2 43.6682 109.403C44.4585 107.606 44.7287 105.635 45.1404 103.716C45.552 101.797 46.1569 99.8418 47.4657 98.3887C48.3566 97.3999 49.5224 96.7042 50.4682 95.7677C51.4141 94.8312 52.1525 93.4906 51.8304 92.1944L46.1962 95.7455C45.5866 96.1306 44.9628 96.5267 44.5245 97.102C43.9777 97.8182 43.7735 98.7325 43.5708 99.612C42.5092 104.23 41.0908 108.758 39.3286 113.153" fill="black"/>
</g>
<path d="M42.3463 93.3592C42.3463 93.3592 39.6989 97.6377 39.4475 98.094C39.1961 98.5504 35.771 103.122 35.771 103.122C35.771 103.122 34.6711 106.729 36.3759 108.251C38.0806 109.774 40.1467 110.029 40.5552 110.029C40.9637 110.029 43.1225 105.611 43.1225 105.611L45.8437 97.7961L42.3463 93.3592Z" fill="#A36957"/>
<path d="M34.3473 79.824C34.3473 79.824 32.6001 81.5671 31.6763 85.4922C31.0776 88.0276 30.6299 97.136 30.6299 97.136C30.6299 97.136 30.0108 104.009 30.1585 105.59C30.3062 107.171 31.8318 111.526 32.6582 112.756C33.8225 114.489 39.1755 113.971 40.0585 112.464C40.5298 111.648 42.4451 108.591 42.3477 107.149C42.2502 105.707 37.8148 100.351 37.8148 100.351L34.3473 79.824Z" fill="#2F3476"/>
<g opacity="0.3">
<path opacity="0.3" d="M59.6378 88.2327C59.6142 92.5809 60.3495 96.6138 61.3378 100.846C61.6064 101.997 62.3229 103.653 63.3803 104.153C64.4377 104.654 65.0646 104.787 66.0906 104.267C67.2532 103.673 68.5526 102.144 68.5526 101.463C67.9084 102.143 67.2469 102.833 66.4174 103.26C65.5878 103.686 64.532 103.805 63.7464 103.321C62.6465 102.658 62.3999 101.185 62.2223 99.9019C61.6881 96.037 61.3331 92.1071 59.9991 88.4451" fill="black"/>
</g>
<path d="M38.9952 98.7626C38.9716 98.7626 39.0266 96.5442 39.1178 93.8075C39.2089 91.0709 39.3016 88.8556 39.3251 88.8572C39.3487 88.8588 39.2922 91.0756 39.201 93.8107C39.1099 96.5458 39.0172 98.7626 38.9952 98.7626Z" fill="#48494B"/>
<path d="M37.8121 100.351C37.7639 100.393 37.7112 100.429 37.655 100.459L37.2151 100.724C36.8427 100.946 36.3273 101.252 35.7743 101.614C35.2212 101.977 34.7436 102.339 34.4042 102.61L34.0067 102.934C33.9588 102.978 33.906 103.016 33.8496 103.047C33.8883 102.997 33.932 102.951 33.98 102.911C34.068 102.825 34.1984 102.706 34.3634 102.565C34.7965 102.198 35.2514 101.858 35.7256 101.546C36.2802 101.18 36.8003 100.882 37.1805 100.673C37.3706 100.569 37.5262 100.486 37.6346 100.431C37.6906 100.398 37.7502 100.371 37.8121 100.351Z" fill="#48494B"/>
<path d="M37.8134 100.352C37.6206 100.33 37.4292 100.298 37.2399 100.255C36.888 100.193 36.4009 100.119 35.8573 100.076C35.3137 100.033 34.8203 100.028 34.4621 100.03C34.269 100.041 34.0754 100.041 33.8823 100.03C33.9334 100.015 33.9863 100.007 34.0394 100.006C34.14 99.9951 34.2845 99.9856 34.4637 99.9761C34.9314 99.9545 35.3999 99.9619 35.8667 99.9982C36.3337 100.035 36.7977 100.103 37.2556 100.203C37.43 100.242 37.5699 100.277 37.6673 100.306C37.7174 100.316 37.7664 100.331 37.8134 100.352Z" fill="#48494B"/>
<path d="M42.4214 107.134C42.4123 107.215 42.3954 107.296 42.3711 107.375C42.335 107.533 42.2737 107.75 42.192 108.021C41.976 108.727 41.7135 109.418 41.4064 110.089C41.0984 110.76 40.7467 111.409 40.3537 112.033C40.1966 112.273 40.074 112.463 39.9813 112.59C39.9337 112.658 39.8812 112.723 39.8242 112.784C39.8587 112.71 39.8997 112.639 39.9468 112.572C40.0316 112.439 40.151 112.244 40.2971 112.003C40.6738 111.372 41.0168 110.722 41.3247 110.054C41.6296 109.386 41.8987 108.701 42.1307 108.004C42.2203 107.736 42.2878 107.517 42.335 107.37C42.3565 107.289 42.3854 107.21 42.4214 107.134Z" fill="#48494B"/>
<path d="M54.3774 93.1408C54.3727 93.1723 54.3643 93.2032 54.3523 93.2327L54.2675 93.4894C54.2298 93.6019 54.1826 93.7382 54.1198 93.8935C54.0569 94.0488 53.9925 94.2294 53.9077 94.4228C53.7506 94.8126 53.5322 95.2674 53.2792 95.7618C53.0262 96.2562 52.7089 96.7854 52.3554 97.3226C52.0018 97.8598 51.6295 98.3479 51.2791 98.7805C50.9287 99.2131 50.5894 99.5823 50.294 99.8897C50.1494 100.048 50.0096 100.172 49.8902 100.289C49.7708 100.406 49.6655 100.503 49.5759 100.581L49.3717 100.76C49.349 100.781 49.3243 100.8 49.2979 100.817C49.2979 100.817 49.3167 100.791 49.3607 100.747L49.554 100.557C49.6388 100.476 49.7409 100.376 49.8572 100.256C49.9735 100.135 50.1086 100.004 50.25 99.8485C50.5391 99.5443 50.869 99.1687 51.2194 98.7393C51.5698 98.3099 51.9311 97.8154 52.2862 97.283C52.6413 96.7506 52.9461 96.2213 53.2116 95.7317C53.4772 95.242 53.683 94.7904 53.8574 94.4053C53.9469 94.2152 54.0145 94.0377 54.0805 93.884C54.1465 93.7303 54.1983 93.5956 54.2376 93.4847L54.3366 93.2327C54.3465 93.2005 54.3602 93.1697 54.3774 93.1408Z" fill="#48494B"/>
<path d="M59.522 88.6125C59.527 88.6279 59.5297 88.6439 59.5299 88.6601L59.5424 88.798C59.5529 88.9258 59.5671 89.1033 59.5849 89.3304C59.6226 89.7915 59.6744 90.4602 59.742 91.2858C59.8991 92.9354 60.1442 95.2109 60.5276 97.7083C60.7255 98.957 60.9031 100.15 61.1686 101.209C61.2927 101.71 61.4556 102.202 61.6557 102.678C61.8362 103.089 62.0419 103.489 62.2716 103.876C62.4611 104.194 62.6862 104.49 62.9425 104.757C63.1384 104.955 63.3592 105.126 63.5992 105.267C63.7507 105.354 63.9083 105.43 64.0706 105.495L64.1994 105.544C64.2148 105.549 64.2296 105.555 64.2434 105.563C64.2279 105.561 64.2126 105.557 64.1978 105.552L64.0658 105.511C63.8983 105.453 63.7359 105.381 63.5804 105.295C63.3344 105.157 63.1078 104.987 62.9063 104.788C62.6439 104.523 62.4134 104.227 62.2197 103.907C61.9842 103.521 61.7743 103.119 61.5913 102.705C61.3866 102.226 61.2196 101.732 61.0916 101.228C60.8198 100.163 60.6423 98.9696 60.4443 97.7209C60.0578 95.2204 59.8158 92.9417 59.6807 91.2906C59.6116 90.465 59.5676 89.7947 59.5409 89.332C59.5299 89.1054 59.5204 88.9263 59.5142 88.7995V88.6601C59.5157 88.6441 59.5183 88.6282 59.522 88.6125Z" fill="#48494B"/>
<g opacity="0.3">
<path opacity="0.3" d="M49.4703 100.821C51.0729 100.428 52.2733 99.748 53.1751 98.3535C54.077 96.9591 54.3771 95.2192 54.3849 93.2289C53.1076 96.3363 51.4358 98.9795 49.332 100.846" fill="black"/>
</g>
<path d="M46.6636 80.8509C46.65 80.8524 46.6363 80.8524 46.6228 80.8509L46.5049 80.8272C46.4028 80.805 46.2504 80.7765 46.054 80.7495C45.497 80.6773 44.933 80.6773 44.376 80.7495C43.5502 80.8578 42.743 81.0796 41.9768 81.4087C41.0408 81.8178 40.1374 82.2989 39.2744 82.8476C38.3474 83.4196 37.4723 83.9869 36.616 84.3941C35.8639 84.7712 35.0536 85.0161 34.2199 85.1183C33.6569 85.1863 33.0864 85.1514 32.5356 85.0153C32.3342 84.9674 32.1383 84.8983 31.9512 84.8093C31.9647 84.8103 31.978 84.8135 31.9905 84.8188L32.1036 84.8584C32.1523 84.8774 32.2136 84.8965 32.2874 84.9171C32.3716 84.9436 32.4571 84.9658 32.5435 84.9836C33.0916 85.1065 33.6568 85.1323 34.2137 85.0597C35.0389 84.9494 35.8399 84.6997 36.583 84.3212C37.433 83.914 38.3113 83.3467 39.232 82.7747C40.0983 82.2228 41.0066 81.7411 41.9485 81.3342C42.7216 81.0042 43.5365 80.7844 44.3697 80.6814C44.9315 80.6158 45.4995 80.6259 46.0587 80.7115C46.2106 80.7346 46.3611 80.7658 46.5096 80.805L46.6243 80.8367L46.6636 80.8509Z" fill="white"/>
<path d="M38.7543 93.9477C38.7298 93.9606 38.704 93.9707 38.6773 93.9778L38.451 94.0475C38.3536 94.0776 38.2326 94.1125 38.0897 94.1457C37.9467 94.179 37.788 94.225 37.6073 94.2598C37.2475 94.3375 36.8217 94.4088 36.3331 94.4658C35.8112 94.5211 35.2867 94.5486 34.7619 94.5482C34.2341 94.5413 33.7071 94.5064 33.1829 94.4437C32.7005 94.3803 32.27 94.3026 31.9118 94.2186C31.7311 94.1822 31.5709 94.1362 31.4295 94.0982C31.2881 94.0602 31.1687 94.0269 31.0697 93.9952L30.8387 93.9207C30.812 93.9138 30.7861 93.9036 30.7617 93.8906C30.7895 93.8909 30.8171 93.8957 30.8434 93.9049L31.0728 93.9635C31.1718 93.9905 31.2928 94.0221 31.4342 94.0538C31.5756 94.0855 31.7374 94.1283 31.9165 94.1616C32.2748 94.2377 32.7021 94.309 33.186 94.3676C33.7078 94.4267 34.2322 94.459 34.7572 94.4643C35.315 94.4643 35.846 94.4357 36.3284 94.3898C36.8107 94.3438 37.2397 94.2741 37.5995 94.2028C37.7801 94.1711 37.9404 94.1315 38.0834 94.1014C38.2264 94.0713 38.3473 94.0412 38.4463 94.0158L38.6757 93.9603C38.7012 93.9526 38.7276 93.9483 38.7543 93.9477Z" fill="white"/>
<path d="M36.0484 101.083C35.969 101.091 35.889 101.091 35.8096 101.083C35.6525 101.071 35.4325 101.061 35.1576 101.058C34.8826 101.055 34.5558 101.058 34.1929 101.091C33.8002 101.123 33.4095 101.176 33.0223 101.25C32.6363 101.329 32.2545 101.428 31.8785 101.546C31.5329 101.66 31.2249 101.774 30.9735 101.885C30.7221 101.996 30.5163 102.087 30.3796 102.156C30.3094 102.196 30.2358 102.229 30.1597 102.254C30.2237 102.206 30.2921 102.163 30.3639 102.128C30.4975 102.048 30.6986 101.947 30.95 101.831C31.245 101.696 31.5471 101.577 31.855 101.475C32.2327 101.351 32.6172 101.249 33.0066 101.169C33.3965 101.093 33.7905 101.04 34.1866 101.011C34.5103 100.988 34.8349 100.982 35.1591 100.993C35.4357 101.004 35.6588 101.023 35.8112 101.044C35.8912 101.051 35.9705 101.064 36.0484 101.083Z" fill="white"/>
<path d="M40.9092 104.451C40.8921 104.485 40.871 104.517 40.8464 104.546L40.65 104.809C40.5667 104.923 40.4599 105.061 40.3263 105.213C40.1928 105.365 40.0514 105.546 39.8723 105.728L39.5989 106.018C39.503 106.118 39.3962 106.215 39.2846 106.318C39.0725 106.53 38.8274 106.734 38.5729 106.952C38.0102 107.416 37.4159 107.839 36.7943 108.219C36.1676 108.59 35.5155 108.916 34.8429 109.194C34.5287 109.314 34.2349 109.433 33.9505 109.52C33.8091 109.566 33.6724 109.614 33.5404 109.652L33.1571 109.756C32.9135 109.828 32.6857 109.869 32.4925 109.915C32.2992 109.961 32.1248 109.988 31.985 110.008L31.6707 110.056C31.6336 110.064 31.5956 110.068 31.5576 110.067C31.594 110.055 31.6313 110.046 31.6692 110.04L31.9834 109.977C32.1217 109.951 32.2976 109.92 32.4846 109.869C32.6716 109.818 32.9041 109.777 33.1445 109.701L33.5247 109.592C33.6567 109.554 33.7918 109.503 33.9317 109.457C34.2145 109.368 34.5083 109.246 34.8178 109.126C35.4847 108.845 36.1319 108.519 36.7551 108.15C37.376 107.772 37.9713 107.352 38.5368 106.895C38.7897 106.677 39.0364 106.475 39.2485 106.261C39.3569 106.158 39.4638 106.063 39.5627 105.964L39.8393 105.679C40.0199 105.502 40.1645 105.324 40.2996 105.175C40.4347 105.026 40.5447 104.892 40.6327 104.781L40.8401 104.529C40.8615 104.501 40.8846 104.475 40.9092 104.451Z" fill="white"/>
<path d="M64.148 107.462C64.131 107.471 64.1131 107.479 64.0946 107.484L63.9375 107.54L63.3247 107.743C62.7905 107.917 62.0175 108.164 61.0496 108.427C60.5642 108.552 60.0315 108.69 59.4518 108.803C58.8368 108.931 58.2152 109.024 57.5899 109.083C56.153 109.238 54.7 109.125 53.3038 108.749C51.8237 108.33 50.5071 107.681 49.2863 107.164C48.2183 106.678 47.0978 106.319 45.9475 106.095C45.1699 105.949 44.374 105.931 43.5908 106.042C43.4525 106.058 43.3315 106.088 43.2263 106.109C43.1367 106.125 43.048 106.146 42.9607 106.172L42.8036 106.215C42.7853 106.221 42.7663 106.225 42.7471 106.226C42.7645 106.219 42.7823 106.212 42.8005 106.207L42.9576 106.156C43.0283 106.134 43.1147 106.107 43.2216 106.085C43.3284 106.063 43.4478 106.03 43.5876 106.011C44.3734 105.886 45.1742 105.895 45.957 106.037C46.95 106.196 48.0953 106.573 49.3161 107.094C50.5369 107.616 51.8551 108.251 53.3258 108.666C54.7122 109.04 56.1547 109.155 57.5821 109.005C58.2038 108.95 58.8221 108.861 59.4345 108.739C60.0127 108.628 60.5437 108.495 61.0292 108.373C61.9986 108.118 62.7732 107.879 63.309 107.716L63.9265 107.527L64.0836 107.479C64.1045 107.472 64.1261 107.466 64.148 107.462Z" fill="white"/>
<path d="M52.1224 96.9129C52.1224 96.924 51.9276 96.8273 51.6118 96.6989C51.2008 96.5313 50.7753 96.4024 50.3407 96.3139C49.9052 96.229 49.4629 96.1845 49.0194 96.1808C48.6784 96.1808 48.4679 96.1966 48.4663 96.1808C48.5141 96.1647 48.5637 96.1551 48.614 96.1522C48.7083 96.1396 48.8465 96.1269 49.0194 96.1205C49.919 96.0918 50.8132 96.2706 51.6338 96.6435C51.7582 96.6983 51.8793 96.7602 51.9967 96.8289C52.0423 96.8509 52.0846 96.8792 52.1224 96.9129Z" fill="white"/>
<path d="M60.5905 95.7364C60.5673 95.7476 60.5431 95.7566 60.5183 95.7633L60.3109 95.8251C60.1286 95.8774 59.8631 95.9439 59.5253 96.0153C58.6624 96.1992 57.7858 96.3105 56.9046 96.348C56.0233 96.3855 55.1405 96.35 54.265 96.2418C53.9303 96.1991 53.6601 96.1547 53.4794 96.1182L53.2657 96.0739C53.2403 96.0705 53.2155 96.0635 53.1919 96.0533C53.2174 96.0491 53.2434 96.0491 53.2689 96.0533L53.4841 96.0818C53.6711 96.1087 53.9413 96.1436 54.2776 96.1785C56.0262 96.3637 57.7923 96.2879 59.519 95.9535C59.8505 95.8901 60.1176 95.833 60.3046 95.795L60.5167 95.7475C60.5405 95.7397 60.5655 95.7359 60.5905 95.7364Z" fill="white"/>
<path d="M59.5723 81.8768C59.546 81.8868 59.5185 81.8932 59.4906 81.8958L59.2549 81.9323C59.0507 81.964 58.7521 82.0004 58.3845 82.0416C57.6492 82.1208 56.6279 82.2001 55.4967 82.2254C54.3654 82.2508 53.3426 82.2127 52.6041 82.1636C52.2349 82.1383 51.9364 82.1129 51.7306 82.0907L51.4933 82.0638C51.4655 82.0635 51.4379 82.0586 51.4116 82.0495C51.4393 82.0458 51.4673 82.0458 51.4949 82.0495L51.7321 82.0606L52.6073 82.1066C53.3457 82.1414 54.367 82.1684 55.4951 82.1446C56.6232 82.1208 57.6429 82.0495 58.3798 81.9861L59.2518 81.9037L59.489 81.8816C59.5165 81.8765 59.5444 81.8749 59.5723 81.8768Z" fill="white"/>
<path d="M41.5643 67.6977C40.7787 66.0608 40.0057 64.4096 39.5218 62.6618C39.0379 60.9139 38.8352 59.0472 39.2296 57.2741C39.2893 57.0063 39.858 55.1792 40.1361 55.1697C40.3309 55.1697 40.0513 56.8304 40.1707 56.9857C41.3161 58.4689 41.8283 60.3688 41.9304 62.245C42.0118 64.0704 41.8911 65.8993 41.5706 67.6977" fill="#48494B"/>
<path d="M50.3736 85.3792C47.5973 85.6962 43.1038 80.3909 42.7267 77.6003L40.4595 60.8034C39.7085 56.3094 41.674 52.1228 46.1487 51.489L46.5666 51.4541C48.5906 51.2886 50.6021 51.8978 52.2008 53.1604C53.7994 54.4231 54.8681 56.2466 55.1939 58.268C55.8224 62.1661 55.9434 64.8584 56.1366 66.9612C56.608 72.013 52.6424 73.9842 52.6424 73.9842C52.6424 73.9842 52.7539 74.9921 52.911 76.2645C53.2661 79.1263 52.7461 85.0607 49.907 85.3872L50.3736 85.3792Z" fill="#A36957"/>
<path d="M52.6512 74.027C52.6512 74.027 49.9394 74.412 46.8882 72.81C46.8882 72.81 48.5159 75.8683 52.7958 75.122L52.6512 74.027Z" fill="#6E473C"/>
<path d="M48.8937 67.3237C48.9781 67.2119 49.0862 67.1206 49.2102 67.0565C49.3342 66.9924 49.4708 66.957 49.61 66.9531C49.7493 66.9492 49.8877 66.9768 50.015 67.0338C50.1423 67.0909 50.2554 67.1759 50.3458 67.2828C50.4363 67.3896 50.5019 67.5156 50.5378 67.6513C50.5737 67.7871 50.5791 67.9292 50.5534 68.0674C50.5278 68.2055 50.4718 68.336 50.3896 68.4495C50.3073 68.5629 50.201 68.6563 50.0783 68.7229C49.8477 68.8379 49.586 68.873 49.3336 68.8227C49.1398 68.7988 48.959 68.712 48.8182 68.5755C48.7276 68.4678 48.6656 68.3385 48.6381 68.1999C48.6106 68.0613 48.6185 67.9179 48.6611 67.7832C48.7209 67.5579 48.8417 67.3538 49.0099 67.1938" fill="#6E473C"/>
<path d="M53.5259 61.9496C53.5405 62.1115 53.4919 62.2729 53.3904 62.3993C53.2889 62.5256 53.1424 62.6071 52.9823 62.6262C52.9043 62.639 52.8245 62.6359 52.7477 62.6171C52.6709 62.5983 52.5986 62.5642 52.535 62.5168C52.4715 62.4694 52.418 62.4097 52.3777 62.3411C52.3374 62.2725 52.3111 62.1965 52.3004 62.1175C52.2858 61.9556 52.3344 61.7942 52.4359 61.6678C52.5375 61.5415 52.6839 61.46 52.844 61.4409C52.9221 61.4279 53.0019 61.4308 53.0788 61.4495C53.1557 61.4682 53.2281 61.5023 53.2917 61.5497C53.3553 61.5972 53.4088 61.657 53.449 61.7257C53.4893 61.7944 53.5154 61.8705 53.5259 61.9496Z" fill="#48494B"/>
<path d="M54.4569 60.4795C54.3878 60.5667 53.8913 60.2561 53.2283 60.3115C52.5652 60.367 52.1033 60.7426 52.0248 60.6665C51.9871 60.6332 52.053 60.4811 52.2526 60.3068C52.5242 60.0828 52.8579 59.9488 53.2079 59.9233C53.5529 59.8942 53.8982 59.9757 54.1946 60.1563C54.4067 60.2989 54.4915 60.4399 54.4569 60.4795Z" fill="#48494B"/>
<path d="M47.4999 62.4978C47.515 62.6598 47.4665 62.8214 47.3649 62.9478C47.2633 63.0743 47.1166 63.1556 46.9563 63.1744C46.8783 63.1872 46.7985 63.1841 46.7217 63.1653C46.6449 63.1465 46.5726 63.1124 46.509 63.065C46.4455 63.0176 46.392 62.9579 46.3517 62.8893C46.3114 62.8207 46.2851 62.7447 46.2744 62.6657C46.2617 62.504 46.3111 62.3435 46.4122 62.2173C46.5133 62.0912 46.6586 62.0089 46.818 61.9875C46.8962 61.9747 46.976 61.9779 47.0529 61.9967C47.1299 62.0156 47.2022 62.0499 47.2658 62.0974C47.3294 62.145 47.3828 62.2049 47.423 62.2737C47.4633 62.3424 47.4894 62.4186 47.4999 62.4978Z" fill="#48494B"/>
<path d="M48.0812 61.1629C48.0105 61.2501 47.514 60.9395 46.8509 61.0044C46.1879 61.0694 45.7275 61.4355 45.649 61.3594C45.6097 61.3261 45.6757 61.1724 45.8768 60.9997C46.1475 60.7748 46.4807 60.6402 46.8305 60.6146C47.1758 60.585 47.5214 60.6671 47.8172 60.8491C48.034 60.9823 48.1204 61.1233 48.0812 61.1629Z" fill="#48494B"/>
<path d="M50.737 65.9444C50.737 65.9064 51.1376 65.8018 51.7991 65.6608C51.9672 65.6291 52.1259 65.5815 52.1448 65.4627C52.1636 65.3438 52.0898 65.1569 51.9876 64.9651L51.3812 63.6974C50.5359 61.9005 49.909 60.4173 49.9813 60.3824C50.0535 60.3475 50.7967 61.7785 51.642 63.5754C51.8462 64.0191 52.0426 64.4422 52.228 64.8431C52.3082 65.0317 52.437 65.244 52.371 65.5071C52.3511 65.5694 52.3175 65.6263 52.2726 65.6735C52.2276 65.7207 52.1727 65.757 52.1118 65.7796C52.02 65.8132 51.9245 65.835 51.8274 65.8446C51.1596 65.9523 50.7433 65.9888 50.737 65.9444Z" fill="#48494B"/>
<path d="M48.8206 66.5786C48.9275 66.5627 48.9872 67.2901 49.6471 67.7559C50.3069 68.2218 51.0611 68.0729 51.08 68.179C51.0941 68.2234 50.9228 68.3375 50.596 68.3692C50.1739 68.4094 49.7512 68.2971 49.4035 68.0523C49.0687 67.8191 48.8367 67.4641 48.7562 67.0619C48.7043 66.7608 48.7703 66.5786 48.8206 66.5786Z" fill="#48494B"/>
<path d="M47.8854 58.5432C47.8351 58.7302 47.1642 58.7017 46.3928 58.8601C45.6213 59.0186 45.0086 59.2848 44.8923 59.1295C44.8389 59.055 44.9347 58.876 45.1751 58.6779C45.4965 58.4337 45.8689 58.2668 46.2641 58.1899C46.6592 58.113 47.0665 58.1281 47.4549 58.2342C47.7503 58.323 47.9058 58.4545 47.8854 58.5432Z" fill="#48494B"/>
<path d="M54.042 58.6037C53.9368 58.7621 53.467 58.6449 52.9155 58.6829C52.364 58.7209 51.9084 58.8683 51.789 58.7178C51.7356 58.6449 51.7968 58.4864 51.9885 58.3264C52.2477 58.131 52.5588 58.0179 52.882 58.0016C53.2052 57.9852 53.5259 58.0663 53.8032 58.2344C54.0106 58.3739 54.0907 58.526 54.042 58.6037Z" fill="#48494B"/>
<path d="M41.0771 64.0441C41.0017 64.0171 38.0369 63.4102 38.3715 66.3735C38.7062 69.3367 41.5956 68.3938 41.5909 68.3083C41.5862 68.2227 41.0771 64.0441 41.0771 64.0441Z" fill="#A36957"/>
<path d="M40.5634 67.291C40.5493 67.2831 40.5163 67.3338 40.4346 67.3845C40.318 67.4504 40.1807 67.4686 40.0512 67.4352C39.7276 67.356 39.4086 66.8869 39.3348 66.3529C39.2987 66.0991 39.3191 65.8403 39.3945 65.5954C39.4118 65.4993 39.452 65.4088 39.5117 65.3318C39.5714 65.2548 39.6487 65.1936 39.737 65.1533C39.7934 65.1313 39.8557 65.1298 39.9131 65.1492C39.9705 65.1686 40.0194 65.2076 40.0512 65.2595C40.1015 65.3387 40.0889 65.4005 40.1046 65.4037C40.1203 65.4069 40.1628 65.3467 40.1251 65.2262C40.1002 65.1547 40.052 65.0938 39.9884 65.0535C39.9449 65.0272 39.8967 65.0098 39.8465 65.0025C39.7963 64.9951 39.7452 64.9979 39.6961 65.0107C39.4699 65.0519 39.2892 65.2864 39.2106 65.5321C39.1145 65.8041 39.0859 66.0957 39.1274 66.3814C39.2122 66.9772 39.5799 67.5033 40.0198 67.5794C40.1015 67.5934 40.1853 67.5887 40.265 67.5657C40.3447 67.5427 40.4182 67.5018 40.4801 67.4463C40.5666 67.3718 40.5791 67.2957 40.5634 67.291Z" fill="#6E473C"/>
<path d="M52.801 53.6785C53.2457 53.3616 51.5252 51.9259 50.2871 51.5345C48.419 50.9435 45.6569 50.7787 44.0826 51.4458C42.1862 52.2508 40.6747 53.4377 39.9064 55.363C39.1381 57.2883 39.0234 59.4339 39.3314 61.4844C39.4241 62.1182 39.5686 62.7521 39.9598 63.2481C40.4453 63.847 41.2702 64.1624 41.3613 65.0498C41.3785 65.3711 41.5109 65.6752 41.7337 65.9055C42.3622 66.4918 42.9765 65.85 43.2184 65.2526C43.7244 64.0134 43.6285 62.6205 43.5327 61.2911C43.4604 60.3767 43.3347 58.9949 43.0048 58.1408C42.8798 57.8237 42.8035 57.4892 42.7785 57.1489C42.7244 56.5931 42.8291 56.0334 43.0802 55.5357C43.1495 55.4278 43.2284 55.3265 43.3159 55.233C43.6362 54.8937 44.0387 54.6445 44.4837 54.51C44.9287 54.3755 45.4007 54.3603 45.8533 54.4661C47.5942 54.8496 49.0491 55.6324 50.881 54.596C51.2864 54.3663 51.4545 53.9859 51.6274 53.7578C51.885 53.4171 52.4664 53.3822 52.7932 53.6548L52.801 53.6785Z" fill="#48494B"/>
<path d="M46.3109 85.7972C46.3109 85.7972 45.9275 86.7004 45.4577 86.9571C44.9879 87.2138 43.4152 88.7636 42.9847 90.0535C42.5542 91.3434 42.3452 93.3653 42.3452 93.3653L45.8426 97.7959C45.8426 97.7959 47.5835 96.9545 48.4115 96.1955C49.1672 95.5014 50.575 94.1355 51.3967 93.3431C51.889 92.8674 52.27 92.2871 52.5123 91.6444C52.5751 91.4733 52.6113 91.3418 52.5861 91.3037C52.5013 91.1754 52.2876 90.9171 52.2876 90.9171C52.2876 90.9171 52.4164 90.3577 52.2028 90.0139C51.9891 89.67 51.8618 89.4545 51.8618 89.4545C51.8618 89.4545 52.1902 88.7525 52.0629 88.4086C51.9573 88.1732 51.7953 87.9679 51.5916 87.8112C51.5916 87.8112 53.9829 86.3581 54.0253 85.9287C54.0677 85.4993 54.1306 85.382 53.6199 85.382C53.1093 85.382 50.1524 86.4453 49.3416 86.9175C48.5309 87.3897 46.7838 88.2074 46.7838 88.2074C46.7838 88.2074 47.6322 86.0555 46.3109 85.7972Z" fill="#A36957"/>
<path d="M46.7831 88.2457C46.644 88.3328 46.4979 88.4081 46.3464 88.4707L45.2795 88.9825L44.2158 89.5054C44.0718 89.5847 43.9222 89.653 43.7681 89.7099C43.9002 89.6113 44.0412 89.5253 44.1891 89.4531C44.4547 89.3058 44.827 89.1109 45.2434 88.908C45.6598 88.7052 46.0431 88.5357 46.3228 88.4184C46.4709 88.3472 46.6249 88.2894 46.7831 88.2457Z" fill="#6E473C"/>
<path d="M51.8753 87.6113C51.8273 87.6583 51.7747 87.7003 51.7182 87.7365C51.6161 87.8142 51.4652 87.9219 51.2767 88.0534C50.9012 88.3149 50.3733 88.6635 49.7794 89.0311C49.1855 89.3988 48.634 89.7094 48.2318 89.928C48.0307 90.0374 47.8673 90.1229 47.7526 90.18C47.6949 90.2135 47.6338 90.2406 47.5703 90.2608C47.6219 90.2185 47.6777 90.1819 47.7369 90.1515L48.2082 89.8773C48.6041 89.646 49.1509 89.3259 49.7417 88.9598C50.3324 88.5938 50.8666 88.2531 51.25 88.0091L51.7056 87.7159C51.758 87.6746 51.815 87.6395 51.8753 87.6113Z" fill="#6E473C"/>
<path d="M51.9137 89.5076C51.9137 89.5076 51.8823 89.5535 51.8147 89.6248C51.7472 89.6961 51.645 89.796 51.5178 89.918C51.2601 90.1588 50.8893 90.4789 50.4651 90.8038C50.1006 91.0813 49.7219 91.3394 49.3307 91.5771C49.1736 91.669 49.0557 91.7355 48.9693 91.7847C48.9261 91.812 48.8796 91.8339 48.8311 91.8496C48.9814 91.7341 49.1388 91.6283 49.3024 91.5327C49.5946 91.3394 49.9937 91.0653 50.4195 90.7404C50.8453 90.4156 51.2161 90.1066 51.4816 89.8768C51.619 89.746 51.7632 89.6228 51.9137 89.5076Z" fill="#6E473C"/>
<path d="M52.266 90.6779C52.287 90.7279 52.2946 90.7825 52.2879 90.8364C52.2788 90.9871 52.2324 91.1331 52.1528 91.2611C52.0322 91.4462 51.8788 91.6073 51.7003 91.7364C51.5055 91.8854 51.2918 92.0439 51.0719 92.2118C50.6194 92.5462 50.2077 92.8457 49.9076 93.0612C49.7505 93.1674 49.6342 93.2529 49.5494 93.31C49.5066 93.3432 49.4603 93.3714 49.4111 93.394C49.4456 93.352 49.4858 93.3152 49.5305 93.2846C49.6091 93.2196 49.7269 93.1262 49.8731 93.0136C50.1653 92.7886 50.5707 92.4796 51.0232 92.1453C51.4757 91.8109 51.9172 91.5384 52.1104 91.2262C52.193 91.1085 52.2468 90.9727 52.2675 90.83C52.2691 90.7366 52.2597 90.6779 52.266 90.6779Z" fill="#6E473C"/>
<path d="M69.6309 97.5884L65.5616 88.2882H65.5364L69.4785 81.6328L68.2467 80.3113L61.7907 79.1323C61.7907 79.1323 61.365 77.4431 60.8386 77.4779C60.3123 77.5128 60.0043 77.6729 59.9478 79.8549C59.9478 79.8549 59.6948 83.5803 59.6194 84.5454C59.5581 85.3503 59.6021 87.3184 59.6194 87.8731C59.6194 87.9095 59.6194 87.9491 59.6194 87.9951V88.022C59.7435 90.231 62.2008 101.461 62.6046 102.778C62.8104 103.44 63.4091 103.751 64.0752 103.887C64.7438 104.011 65.4328 103.959 66.0753 103.735C66.7178 103.511 67.2921 103.124 67.7423 102.61C68.6489 101.593 69.7252 100.032 69.7849 98.311L69.6309 97.5884ZM59.9446 79.9801C59.9446 80.0165 59.9446 80.045 59.9446 80.0688C59.943 80.0482 59.9446 80.0102 59.9446 79.9801Z" fill="#A36957"/>
<path d="M68.7287 88.1761L62.2205 87.9177C61.8447 87.9027 61.4898 87.7382 61.2339 87.4603C60.9779 87.1824 60.8419 86.8139 60.8556 86.4357L61.4546 70.0179C61.4686 69.6395 61.6314 69.2826 61.9071 69.0256C62.1829 68.7685 62.549 68.6325 62.9251 68.6473L69.4333 68.9058C69.6194 68.9131 69.8024 68.9573 69.9717 69.0357C70.141 69.1142 70.2934 69.2254 70.4201 69.363C70.5469 69.5006 70.6455 69.6619 70.7104 69.8377C70.7753 70.0136 70.8051 70.2004 70.7983 70.3877L70.1993 86.805C70.1924 86.9924 70.1489 87.1765 70.0713 87.3469C69.9937 87.5172 69.8835 87.6704 69.7469 87.7977C69.6104 87.925 69.4502 88.0239 69.2755 88.0889C69.1008 88.1538 68.915 88.1834 68.7287 88.1761Z" fill="#242425"/>
<path d="M69.3559 69.363L68.0938 69.3125C68.0106 69.3112 67.9304 69.3432 67.8708 69.4014C67.8111 69.4595 67.7769 69.5392 67.7756 69.6229L67.7682 69.8529C67.7676 69.8944 67.7589 69.9353 67.7426 69.9733C67.7263 70.0114 67.7027 70.0458 67.6731 70.0746C67.6436 70.1034 67.6087 70.1261 67.5704 70.1413C67.5321 70.1565 67.4912 70.164 67.45 70.1633L64.9904 70.0656C64.9074 70.0604 64.8297 70.0222 64.7745 69.9595C64.7192 69.8968 64.6909 69.8147 64.6957 69.7312L64.7031 69.5006C64.7079 69.417 64.6796 69.3349 64.6243 69.2722C64.569 69.2095 64.4914 69.1713 64.4083 69.1661L63.9645 69.1505L62.8601 69.1071C62.7297 69.1019 62.5996 69.1226 62.4772 69.1681C62.3549 69.2135 62.2427 69.2827 62.147 69.3719C62.0514 69.461 61.9742 69.5682 61.9198 69.6875C61.8654 69.8067 61.8349 69.9356 61.8301 70.0669L61.2453 86.092C61.2407 86.2233 61.262 86.3542 61.3078 86.4773C61.3535 86.6005 61.423 86.7134 61.5121 86.8096C61.6012 86.9059 61.7082 86.9835 61.827 87.0382C61.9458 87.0929 62.0742 87.1235 62.2046 87.1283L68.7003 87.3862C68.8307 87.3914 68.9608 87.3707 69.0831 87.3253C69.2054 87.2798 69.3176 87.2106 69.4132 87.1214C69.5088 87.0323 69.586 86.9251 69.6403 86.8058C69.6947 86.6866 69.7251 86.5577 69.7299 86.4265L70.3141 70.4034C70.3192 70.2719 70.2985 70.1405 70.253 70.017C70.2076 69.8934 70.1384 69.78 70.0494 69.6833C69.9603 69.5867 69.8532 69.5086 69.7342 69.4536C69.6152 69.3987 69.4866 69.3679 69.3559 69.363Z" fill="#C9CCCF"/>
<path d="M63.2841 70.4696C63.1622 70.4785 63.0398 70.4787 62.9177 70.4701C62.7956 70.4702 62.6736 70.4614 62.5527 70.444C62.6745 70.4347 62.7968 70.4346 62.9186 70.4435C63.0409 70.4431 63.1631 70.4519 63.2841 70.4696Z" fill="#242425"/>
<path d="M63.2783 70.6262C63.1564 70.6354 63.0339 70.6356 62.9119 70.6268C62.7898 70.6271 62.6677 70.6184 62.5469 70.6007C62.6686 70.5917 62.7909 70.5915 62.9128 70.6001C63.035 70.6001 63.1572 70.6088 63.2783 70.6262Z" fill="#242425"/>
<path d="M63.2744 70.7743C63.1525 70.7836 63.03 70.7838 62.908 70.7749C62.7859 70.7753 62.6638 70.7665 62.543 70.7488C62.6647 70.7399 62.787 70.7397 62.9089 70.7482C63.0311 70.7482 63.1533 70.7569 63.2744 70.7743Z" fill="#242425"/>
<path fill-rule="evenodd" clip-rule="evenodd" d="M62.1749 71.4481L69.7673 71.7883L69.5221 80.1517C69.5203 80.1515 69.5184 80.1514 69.5165 80.1513L69.5173 80.0862L69.2005 80.082L69.1965 80.4116L69.2264 80.412L69.2263 80.415C69.2197 80.5675 69.3372 80.6967 69.4889 80.7035C69.4946 80.7037 69.5003 80.7038 69.506 80.7037L69.3435 86.2454L61.5914 85.9188L61.805 80.621C61.9389 80.6078 62.0462 80.4973 62.0522 80.3581C62.0528 80.3444 62.0524 80.3308 62.0511 80.3175L62.2273 80.3199L62.2313 79.9902L61.9145 79.986L61.9131 80.1053C61.8869 80.0903 61.8579 80.0795 61.8271 80.0739L62.1749 71.4481ZM63.4945 80.3365L62.8609 80.3282L62.8649 79.9986L63.4984 80.0069L63.4945 80.3365ZM64.7616 80.3532L64.128 80.3449L64.132 80.0152L64.7655 80.0236L64.7616 80.3532ZM66.0287 80.3699L65.3951 80.3616L65.3991 80.0319L66.0327 80.0403L66.0287 80.3699ZM67.2958 80.3866L66.6623 80.3783L66.6662 80.0486L67.2998 80.057L67.2958 80.3866ZM68.563 80.4033L67.9294 80.3949L67.9334 80.0653L68.5669 80.0736L68.563 80.4033Z" fill="white"/>
<path fill-rule="evenodd" clip-rule="evenodd" d="M62.1444 71.4138L69.802 71.757L69.5549 80.1873L69.5206 80.1846C69.5189 80.1845 69.5173 80.1844 69.5156 80.1843L69.4843 80.1825L69.4851 80.1188L69.2338 80.1155L69.2307 80.3792L69.2618 80.3796L69.26 80.4166C69.26 80.4166 69.26 80.4166 69.26 80.4167C69.2542 80.551 69.3578 80.6647 69.4913 80.6707C69.4963 80.6709 69.5014 80.6709 69.5064 80.6709L69.5407 80.6703L69.3763 86.2798L61.5583 85.9504L61.7744 80.5911L61.8028 80.5883C61.9207 80.5767 62.0152 80.4793 62.0205 80.3568C62.021 80.3446 62.0206 80.3327 62.0194 80.321L62.0157 80.2842L62.1959 80.2866L62.1991 80.0229L61.9479 80.0195L61.9461 80.1617L61.8979 80.1341C61.8748 80.1209 61.8493 80.1114 61.8222 80.1064L61.7942 80.1013L62.1444 71.4138ZM69.1947 80.4447L69.1643 80.4443L69.1691 80.0487L69.4932 80.053L69.7345 71.8199L62.2073 71.4826L61.8619 80.0481C61.8687 80.05 61.8753 80.0521 61.8819 80.0545L61.8831 79.9528L62.2654 79.9578L62.2607 80.3534L62.0862 80.3511C62.0862 80.3539 62.0861 80.3568 62.0859 80.3597C62.0796 80.5055 61.974 80.6232 61.8376 80.6498L61.6265 85.8873L69.3127 86.2112L69.4732 80.7355C69.3212 80.7212 69.2031 80.5965 69.1947 80.4447ZM62.8334 79.9653L63.5326 79.9745L63.5278 80.37L62.8287 80.3608L62.8334 79.9653ZM62.8982 80.0321L62.895 80.2958L63.463 80.3033L63.4662 80.0395L62.8982 80.0321ZM64.1006 79.982L64.7997 79.9912L64.7949 80.3867L64.0958 80.3775L64.1006 79.982ZM64.1653 80.0487L64.1622 80.3125L64.7302 80.3199L64.7333 80.0562L64.1653 80.0487ZM65.3677 79.9986L66.0668 80.0078L66.0621 80.4034L65.3629 80.3942L65.3677 79.9986ZM65.4325 80.0654L65.4293 80.3291L65.9973 80.3366L66.0005 80.0729L65.4325 80.0654ZM66.6348 80.0153L67.3339 80.0245L67.3292 80.4201L66.6301 80.4109L66.6348 80.0153ZM66.6996 80.0821L66.6964 80.3458L67.2644 80.3533L67.2676 80.0896L66.6996 80.0821ZM67.902 80.032L68.6011 80.0412L68.5963 80.4368L67.8972 80.4276L67.902 80.032ZM67.9667 80.0988L67.9635 80.3625L68.5316 80.37L68.5347 80.1063L67.9667 80.0988Z" fill="white"/>
<path d="M62.4021 73.1764L62.2251 79.9528L68.9575 80.1458L69.1345 73.3694L62.4021 73.1764Z" fill="white"/>
<path d="M64.4897 73.7024L62.87 73.6553L62.8278 75.293L64.4475 75.3401L64.4897 73.7024ZM64.2158 75.0926L63.0724 75.0593L63.1023 73.9033L64.2456 73.9366L64.2158 75.0926Z" fill="#242425"/>
<path d="M62.7116 79.4933L64.3313 79.5404L64.3735 77.9027L62.7537 77.8556L62.7116 79.4933ZM62.986 78.1031L64.1294 78.1364L64.0996 79.2924L62.9562 79.2591L62.986 78.1031Z" fill="#242425"/>
<path d="M63.3235 74.13L63.3057 74.8205L63.9921 74.8404L64.0099 74.1498L63.3235 74.13Z" fill="#242425"/>
<path d="M63.2107 78.3397L63.1929 79.0302L63.8793 79.0501L63.8971 78.3595L63.2107 78.3397Z" fill="#242425"/>
<path d="M68.6386 73.8141L67.0189 73.7669L66.9767 75.4046L68.5965 75.4517L68.6386 73.8141ZM68.3647 75.2043L67.2214 75.1709L67.2512 74.0149L68.3946 74.0482L68.3647 75.2043Z" fill="#242425"/>
<path d="M66.4207 78.6777L67.5771 78.7114L67.6073 77.5421L66.4508 77.5084L66.4207 78.6777ZM66.6693 77.7348L67.3784 77.7553L67.3601 78.4723L66.6509 78.4518L66.6693 77.7348Z" fill="#242425"/>
<path d="M67.4724 74.245L67.4546 74.9355L68.141 74.9554L68.1589 74.2649L67.4724 74.245Z" fill="#242425"/>
<path d="M66.5304 74.6853L66.5059 75.6321L66.7296 75.6385L66.7541 74.6917L66.5304 74.6853Z" fill="#242425"/>
<path d="M66.7289 75.6382L66.7227 75.8792L67.1696 75.8921L67.1758 75.6511L66.7289 75.6382Z" fill="#242425"/>
<path d="M64.4143 76.2816L64.4202 76.0415L64.9137 76.0562L64.9193 75.831L64.4264 75.8163L64.4324 75.5768L64.1938 75.5696L64.1879 75.8097L63.9653 75.8028L63.9712 75.5632L63.7327 75.5561L63.7254 75.8426L63.7206 76.0214L64.1817 76.0349L64.1758 76.2744L64.4143 76.2816Z" fill="#242425"/>
<path d="M63.9188 76.7165L63.9126 76.9574L64.3595 76.9703L64.3658 76.7294L63.9188 76.7165Z" fill="#242425"/>
<path d="M62.9987 76.946L62.7844 76.9396L62.7734 77.3737L62.9959 77.3805L62.9884 77.6537L63.664 77.6731L63.6709 77.4L63.9251 77.4074L63.9182 77.6806L64.3675 77.6938L64.3744 77.4206L65.0457 77.4401L65.0513 77.215L65.3055 77.2225L65.2998 77.4476L65.5322 77.4543L65.5259 77.7037L65.7598 77.7104L65.7533 77.946L65.9905 77.9531L65.9965 77.717L66.213 77.7235L66.2197 77.4663L65.7452 77.4525L65.7512 77.2191L65.5763 77.2142L65.5877 76.7707L65.8058 76.7771L65.8123 76.536L65.5751 76.5294L65.5691 76.7688L65.3292 76.7622L65.3356 76.5222L65.0984 76.515L65.0925 76.755L64.8646 76.7488L64.8705 76.5088L65.0973 76.515L65.1032 76.2739L64.8665 76.2673L64.8601 76.5084L64.6338 76.5016L64.6273 76.7427L64.8569 76.7494L64.8509 76.9839L64.3578 76.9698L64.3524 77.1783L63.6932 77.1592L63.7045 76.7107L63.4662 76.7035L63.4595 76.9596L63.237 76.9532L63.2437 76.6972L63.0213 76.6909L63.027 76.468L63.4998 76.4819L63.5054 76.2568L63.0288 76.243L63.023 76.4614L62.7891 76.4547L62.7826 76.6942L63.0051 76.7011L62.9987 76.946Z" fill="#242425"/>
<path d="M66.6579 78.8962L66.4194 78.8895L66.4135 79.1291L66.1909 79.1227L66.1968 78.8832L65.9583 78.876L65.9523 79.1156L65.951 79.1626L65.9461 79.3408L66.4078 79.3543L66.4014 79.5944L66.6399 79.601L66.6464 79.3614L67.1392 79.3756L67.1449 79.1504L66.652 79.1363L66.6579 78.8962Z" fill="#242425"/>
<path d="M66.1885 78.6635L66.1947 78.4383L65.964 78.4316L65.9705 78.1921L65.7322 78.1849L65.7257 78.425L65.5032 78.4181L65.5097 78.1786L65.2708 78.1714L65.2649 78.4114L65.2635 78.4579L65.2591 78.6283L64.5681 78.608L64.5619 78.8337L65.4918 78.8606L65.4976 78.6432L65.72 78.6501L65.7136 78.8896L65.9519 78.8968L65.9584 78.6567L66.1885 78.6635Z" fill="#242425"/>
<path d="M63.0376 76.0042L63.5155 76.018L63.5217 75.7925L63.0476 75.7786L63.0536 75.5386L62.8146 75.5314L62.8087 75.7719L63.0433 75.7786L63.0376 76.0042Z" fill="#242425"/>
<path d="M66.9843 77.0526L66.978 77.2936L67.4249 77.3065L67.4312 77.0655L66.9843 77.0526Z" fill="#242425"/>
<path d="M68.3378 77.325L68.3442 77.0804L68.5583 77.0868L68.5693 76.6533L68.347 76.647L68.354 76.378L68.5523 76.3836L68.5588 76.1428L68.384 76.1379L68.3954 75.6939L67.665 75.6726L67.659 75.9079L67.1668 75.8938L67.1614 76.1026L66.5021 76.0835L66.5134 75.6356L66.2752 75.6284L66.2685 75.8836L66.0462 75.8772L66.0529 75.6221L65.8147 75.6149L65.808 75.8701L65.6146 75.8644L65.645 74.6791L66.088 74.6918L66.0945 74.451L65.8421 74.4435L65.8477 74.2187L66.1001 74.2262L66.1066 73.9854L65.8542 73.9779L65.86 73.7614L65.4312 73.7491L65.4255 73.9739L65.1595 73.966L65.1645 73.7656L64.9263 73.7584L64.9209 73.9672L64.7144 73.9611L64.6833 75.1651L64.9057 75.1715L64.9303 74.2083L65.1488 74.2146L65.1378 74.6482L65.4076 74.656L65.3877 75.4308L65.1298 75.4234L65.1234 75.6642L65.3812 75.6716L65.3718 76.045L65.5886 76.0514L65.5823 76.2977L66.3127 76.319L66.4716 76.3236L66.9758 76.338L66.9688 76.607L66.298 76.5875L66.2923 76.8123L65.8002 76.7982L65.7945 77.023L66.9854 77.0577L66.9908 76.849L67.6501 76.8681L67.6388 77.316L67.877 77.3231L67.8837 77.068L68.106 77.0743L68.0993 77.3295L68.3216 77.3358L68.3159 77.5578L67.8276 77.5437L67.8219 77.7684L68.3141 77.7825L68.3199 77.5644L68.5542 77.5711L68.5601 77.3319L68.3378 77.325ZM68.1138 76.1456L68.1081 76.3649L67.8541 76.3574L67.8598 76.1381L68.1138 76.1456ZM67.4248 76.35L67.6788 76.3575L67.6718 76.6265L67.4178 76.619L67.4248 76.35Z" fill="#242425"/>
<path d="M68.032 78.2436L68.2988 78.2514L68.2915 78.5328L68.5145 78.5397L68.5218 78.2578L68.5256 78.2577L68.5313 78.0323L68.0377 78.0182L68.032 78.2436Z" fill="#242425"/>
<path d="M68.0013 79.3503L68.2681 79.3582L68.2607 79.6396L68.4837 79.6465L68.491 79.3645L68.4949 79.3645L68.5005 79.139L68.0069 79.1249L68.0013 79.3503Z" fill="#242425"/>
<path d="M66.0648 75.157L66.0586 75.3983L66.2967 75.4051L66.303 75.1639L66.0648 75.157Z" fill="#242425"/>
<path d="M65.8217 74.91L65.8154 75.1512L66.0536 75.1581L66.0598 74.9169L65.8217 74.91Z" fill="#242425"/>
<path d="M67.8158 78.4431L67.8096 78.6843L68.0477 78.6912L68.0539 78.45L67.8158 78.4431Z" fill="#242425"/>
<path d="M65.0214 79.3296L65.0151 79.5708L65.2533 79.5777L65.2595 79.3365L65.0214 79.3296Z" fill="#242425"/>
<path d="M64.7846 79.3244L64.5577 79.3176L64.5513 79.5596L64.7891 79.5663L64.795 79.3248L65.0223 79.3311L65.0282 79.0895L64.791 79.0829L64.7846 79.3244Z" fill="#242425"/>
<path d="M65.4999 79.3426L65.4937 79.5839L65.7318 79.5908L65.738 79.3495L65.4999 79.3426Z" fill="#242425"/>
<path d="M65.2675 79.095L65.2612 79.3362L65.4994 79.3431L65.5056 79.1019L65.2675 79.095Z" fill="#242425"/>
<path d="M64.9024 75.4204L65.1292 75.4267L65.1357 75.1852L64.8979 75.1785L64.892 75.42L64.6651 75.4132L64.6587 75.6547L64.8959 75.662L64.9024 75.4204Z" fill="#242425"/>
<path d="M65.3436 76.2807L65.3374 76.5219L65.5755 76.5288L65.5818 76.2876L65.3436 76.2807Z" fill="#242425"/>
<path d="M66.8983 77.9734L66.8921 78.2147L67.1302 78.2215L67.1365 77.9803L66.8983 77.9734Z" fill="#242425"/>
<path d="M66.0014 77.9482L65.9951 78.1895L66.2332 78.1963L66.2395 77.9551L66.0014 77.9482Z" fill="#242425"/>
<path d="M65.0614 77.9228L65.0552 78.1641L65.2933 78.171L65.2995 77.9297L65.0614 77.9228Z" fill="#242425"/>
<path d="M66.3278 74.0043L66.3149 74.5026L66.5386 74.509L66.5515 74.0108L66.3278 74.0043Z" fill="#242425"/>
<path d="M66.6247 71.7018C66.6032 72.1878 66.1957 72.5646 65.7146 72.5435C65.2334 72.5225 64.8609 72.1114 64.8824 71.6255C64.9039 71.1395 65.3114 70.7627 65.7925 70.7838C66.2737 70.8048 66.6462 71.2159 66.6247 71.7018Z" fill="#636467"/>
<path d="M66.5817 71.6024C66.5602 72.0884 66.1527 72.4653 65.6716 72.4442C65.1905 72.4231 64.8179 72.0121 64.8394 71.5261C64.861 71.0402 65.2684 70.6633 65.7496 70.6844C66.2307 70.7055 66.6033 71.1165 66.5817 71.6024Z" fill="white"/>
<path d="M62.5975 81.6308L62.6794 81.3505L63.7202 81.4118L63.6951 81.6751L62.5975 81.6308Z" fill="#ABADB2"/>
<path d="M62.5484 82.1328L62.5758 81.846L64.8925 82.011L64.9269 82.2211L62.5484 82.1328Z" fill="#ABADB2"/>
<path d="M62.5917 82.9663L62.6162 82.6788L63.7058 82.8055L63.6894 82.9972L62.5917 82.9663Z" fill="#ABADB2"/>
<path d="M62.5506 83.4703L62.5751 83.183L64.3168 83.2284L64.3447 83.4613L62.5506 83.4703Z" fill="#ABADB2"/>
<path d="M62.5655 84.2401L62.5918 84.539L63.2465 84.4772L63.2289 84.278L62.5655 84.2401Z" fill="#ABADB2"/>
<path d="M62.5406 84.9643L62.5817 84.687L63.8446 84.776L63.8459 85.002L62.5406 84.9643Z" fill="#ABADB2"/>
<path d="M65.8686 81.7481L65.9202 81.5225L68.0178 81.6371L68.0112 81.8291L65.8686 81.7481Z" fill="#ABADB2"/>
<path d="M65.9153 82.2924L65.9459 81.9981L68.1562 82.143L68.192 82.3843L65.9153 82.2924Z" fill="#ABADB2"/>
<path d="M63.7657 73.0335L63.8008 72.7391L67.9402 73.0812L68.0251 73.328L63.7657 73.0335Z" fill="#ABADB2"/>
<path d="M65.9245 83.2122L65.9458 82.9236L66.5 82.9805L66.4858 83.1729L65.9245 83.2122Z" fill="#ABADB2"/>
<path d="M65.8862 83.7149L65.9074 83.4272L67.6077 83.4446L67.6371 83.6771L65.8862 83.7149Z" fill="#ABADB2"/>
<path d="M65.9001 84.5606L65.9214 84.2731L67.6014 84.4454L67.5873 84.6371L65.9001 84.5606Z" fill="#ABADB2"/>
<path d="M65.8608 85.0642L65.882 84.7768L68.6832 84.907L68.7427 85.1424L65.8608 85.0642Z" fill="#ABADB2"/>
<path d="M61.8452 76.5765C61.1842 76.9102 60.6165 77.4054 60.1938 78.0169L60.3258 79.7933C60.8804 79.4462 61.4115 79.0263 61.7399 78.459C62.0683 77.8917 62.1641 77.1501 61.8452 76.5765Z" fill="#A36957"/>
<path d="M70.0508 77.4416C70.2827 77.4074 70.5195 77.4444 70.7302 77.548C70.9409 77.6516 71.1158 77.8168 71.232 78.0221C71.3482 78.2274 71.4004 78.4633 71.3817 78.699C71.3629 78.9346 71.2742 79.1591 71.127 79.3431C71.2895 79.412 71.4308 79.5232 71.5364 79.6655C71.6421 79.8077 71.7082 79.9758 71.7281 80.1523C71.7479 80.3289 71.7207 80.5077 71.6493 80.6701C71.5779 80.8326 71.4649 80.9729 71.3218 81.0767C71.9126 81.354 72.0964 82.2176 71.7288 82.7596C71.3611 83.3015 70.5755 83.4647 69.9848 83.189C69.8685 83.1445 69.7638 83.074 69.6784 82.9829C69.5929 82.8918 69.529 82.7824 69.4914 82.6629C69.4708 82.5331 69.484 82.4002 69.5297 82.2771C69.5754 82.154 69.6521 82.0451 69.7522 81.9609C69.9547 81.795 70.1844 81.6663 70.431 81.5806C70.1958 81.531 69.9826 81.4067 69.8225 81.2259C69.6625 81.0452 69.564 80.8175 69.5415 80.5763C69.519 80.335 69.5737 80.0928 69.6976 79.8852C69.8215 79.6775 70.008 79.5153 70.2299 79.4224C70.0521 79.3611 69.8956 79.2494 69.7791 79.1008C69.6626 78.9521 69.5911 78.7727 69.5731 78.5841C69.5448 78.207 69.7145 77.6111 70.0445 77.4416" fill="#A36957"/>
</g>
</g>
<defs>
<filter id="filter0_d_1553_82160" x="33.001" y="125.832" width="53.9824" height="41.2658" filterUnits="userSpaceOnUse" color-interpolation-filters="sRGB">
<feFlood flood-opacity="0" result="BackgroundImageFix"/>
<feColorMatrix in="SourceAlpha" type="matrix" values="0 0 0 0 0 0 0 0 0 0 0 0 0 0 0 0 0 0 127 0" result="hardAlpha"/>
<feOffset dy="4"/>
<feGaussianBlur stdDeviation="2"/>
<feComposite in2="hardAlpha" operator="out"/>
<feColorMatrix type="matrix" values="0 0 0 0 0 0 0 0 0 0 0 0 0 0 0 0 0 0 0.25 0"/>
<feBlend mode="normal" in2="BackgroundImageFix" result="effect1_dropShadow_1553_82160"/>
<feBlend mode="normal" in="SourceGraphic" in2="effect1_dropShadow_1553_82160" result="shape"/>
</filter>
<clipPath id="clip0_1553_82160">
<rect width="196" height="211" fill="white"/>
</clipPath>
</defs>
</svg>
