<svg width="360" height="325" viewBox="0 0 360 325" fill="none" xmlns="http://www.w3.org/2000/svg">
<path d="M290.641 234.092C290.641 234.092 290.855 234.092 290.962 234.322C290.993 234.401 291.006 234.486 290.998 234.571C290.99 234.656 290.962 234.737 290.916 234.807C290.849 234.891 290.758 234.952 290.656 234.981C290.555 235.01 290.447 235.006 290.348 234.97C290.248 234.933 290.162 234.867 290.1 234.778C290.038 234.689 290.003 234.583 290 234.474C290.009 234.388 290.037 234.306 290.082 234.234C290.127 234.162 290.188 234.103 290.26 234.06C290.504 233.925 290.672 234.06 290.641 234.06C290.611 234.06 290.496 234.06 290.367 234.195C290.327 234.224 290.296 234.263 290.277 234.309C290.259 234.355 290.253 234.406 290.261 234.455C290.269 234.504 290.29 234.55 290.323 234.587C290.355 234.624 290.397 234.651 290.443 234.664C290.68 234.76 290.809 234.537 290.771 234.346C290.733 234.155 290.634 234.132 290.641 234.092Z" fill="#48494B"/>
<path d="M151.555 0H72V323.594H151.555V0Z" fill="#F0F0F1"/>
<path d="M110.703 16.125H85.9766V61.2776H110.703V16.125Z" fill="white"/>
<path d="M99.4239 61.2796C99.1222 61.2796 98.877 51.1638 98.877 38.6978C98.877 26.2319 99.1222 16.127 99.4239 16.127C99.7257 16.127 99.952 26.2319 99.952 38.6978C99.952 51.1638 99.6691 61.2796 99.4239 61.2796Z" fill="#E1E2E4"/>
<path d="M110.703 31.7133C106.593 32.1907 102.468 32.3502 98.3455 32.1913C94.2195 32.3503 90.0907 32.1908 85.9766 31.7133C90.0907 31.2359 94.2195 31.0763 98.3455 31.2353C102.468 31.0764 106.593 31.2359 110.703 31.7133Z" fill="#E1E2E4"/>
<path d="M110.703 47.8403C106.589 48.3174 102.46 48.477 98.3341 48.3184C94.212 48.4772 90.087 48.3176 85.9766 47.8403C90.087 47.3629 94.212 47.2033 98.3341 47.3622C102.46 47.2036 106.589 47.3632 110.703 47.8403Z" fill="#E1E2E4"/>
<path d="M110.702 75.2539H87.0508V120.407H110.702V75.2539Z" fill="white"/>
<path d="M99.4145 120.407C99.1179 120.407 98.877 110.299 98.877 97.8302C98.877 85.3612 99.1179 75.2539 99.4145 75.2539C99.711 75.2539 99.952 85.3612 99.952 97.8302C99.952 110.299 99.711 120.407 99.4145 120.407Z" fill="#E1E2E4"/>
<path d="M110.702 90.8422C106.767 91.3192 102.818 91.4788 98.871 91.3202C94.9281 91.4792 90.9824 91.3196 87.0508 90.8422C90.9824 90.3648 94.9281 90.2052 98.871 90.3642C102.818 90.2057 106.767 90.3652 110.702 90.8422Z" fill="#E1E2E4"/>
<path d="M110.702 106.967C106.77 107.444 102.825 107.604 98.8819 107.445C94.9354 107.604 90.9861 107.445 87.0508 106.967C90.9861 106.49 94.9354 106.33 98.8819 106.489C102.825 106.33 106.77 106.49 110.702 106.967Z" fill="#E1E2E4"/>
<path d="M110.702 133.309H87.0508V178.461H110.702V133.309Z" fill="white"/>
<path d="M99.4145 178.461C99.1179 178.461 98.877 168.354 98.877 155.885C98.877 143.416 99.1179 133.309 99.4145 133.309C99.711 133.309 99.952 143.416 99.952 155.885C99.952 168.354 99.711 178.461 99.4145 178.461Z" fill="#E1E2E4"/>
<path d="M110.702 165.022C106.77 165.499 102.825 165.659 98.8819 165.5C94.9354 165.659 90.9861 165.499 87.0508 165.022C90.9861 164.544 94.9354 164.385 98.8819 164.544C102.825 164.385 106.77 164.545 110.702 165.022Z" fill="#E1E2E4"/>
<path d="M110.702 193.512H87.0508V238.664H110.702V193.512Z" fill="white"/>
<path d="M99.4145 238.664C99.1179 238.664 98.877 228.559 98.877 216.093C98.877 203.627 99.1179 193.512 99.4145 193.512C99.711 193.512 99.952 203.617 99.952 216.093C99.952 228.57 99.711 238.664 99.4145 238.664Z" fill="#E1E2E4"/>
<path d="M184.881 0H126.828V323.594H184.881V0Z" fill="#FBFCFD"/>
<g opacity="0.3">
<path opacity="0.3" d="M184.984 0H127.113V323.268H184.984V0Z" fill="#ABADB2"/>
</g>
<path d="M167.681 16.125H144.029V61.2776H167.681V16.125Z" fill="white"/>
<path d="M156.393 61.2796C156.096 61.2796 155.855 51.1638 155.855 38.6978C155.855 26.2319 156.096 16.127 156.393 16.127C156.69 16.127 156.931 26.2319 156.931 38.6978C156.931 51.1638 156.69 61.2796 156.393 61.2796Z" fill="#E1E2E4"/>
<path d="M167.681 31.7133C163.749 32.1907 159.803 32.3502 155.86 32.1913C151.914 32.3503 147.965 32.1908 144.029 31.7133C147.965 31.2359 151.914 31.0763 155.86 31.2353C159.803 31.0764 163.749 31.2359 167.681 31.7133Z" fill="#E1E2E4"/>
<path d="M167.68 47.8403C163.565 48.3174 159.437 48.477 155.311 48.3184C151.189 48.4772 147.064 48.3176 142.953 47.8403C147.064 47.3629 151.189 47.2033 155.311 47.3622C159.437 47.2036 163.565 47.3632 167.68 47.8403Z" fill="#E1E2E4"/>
<path d="M167.681 77.4043H144.029V121.482H167.681V77.4043Z" fill="white"/>
<path d="M156.393 121.482C156.096 121.482 155.855 111.607 155.855 99.4378C155.855 87.2686 156.096 77.4043 156.393 77.4043C156.69 77.4043 156.931 87.2686 156.931 99.4378C156.931 111.607 156.69 121.482 156.393 121.482Z" fill="#E1E2E4"/>
<path d="M167.681 133.309H144.029V178.461H167.681V133.309Z" fill="white"/>
<path d="M156.393 178.461C156.096 178.461 155.855 168.354 155.855 155.885C155.855 143.416 156.096 133.309 156.393 133.309C156.69 133.309 156.931 143.416 156.931 155.885C156.931 168.354 156.69 178.461 156.393 178.461Z" fill="#E1E2E4"/>
<path d="M167.681 165.022C163.749 165.499 159.803 165.659 155.86 165.5C151.914 165.659 147.965 165.499 144.029 165.022C147.965 164.544 151.914 164.385 155.86 164.544C159.803 164.385 163.749 164.545 167.681 165.022Z" fill="#E1E2E4"/>
<path d="M168.755 194.586H145.104V239.739H168.755V194.586Z" fill="white"/>
<path d="M157.458 239.739C157.156 239.739 156.93 229.631 156.93 217.162C156.93 204.693 157.156 194.586 157.458 194.586C157.76 194.586 158.005 204.693 158.005 217.162C158.005 229.631 157.76 239.739 157.458 239.739Z" fill="#E1E2E4"/>
<path d="M168.756 226.301C164.643 226.779 160.516 226.938 156.393 226.779C152.269 226.938 148.142 226.779 144.029 226.301C148.142 225.824 152.269 225.664 156.393 225.823C160.516 225.664 164.643 225.824 168.756 226.301Z" fill="#E1E2E4"/>
<path d="M110.702 255.865H87.0508V299.943H110.702V255.865Z" fill="white"/>
<path d="M99.4145 299.943C99.1179 299.943 98.877 290.068 98.877 277.899C98.877 265.73 99.1179 255.865 99.4145 255.865C99.711 255.865 99.952 265.73 99.952 277.899C99.952 290.068 99.711 299.943 99.4145 299.943Z" fill="#E1E2E4"/>
<path d="M110.702 271.454C106.767 271.931 102.818 272.09 98.871 271.932C94.9281 272.091 90.9824 271.931 87.0508 271.454C90.9824 270.976 94.9281 270.817 98.871 270.976C102.818 270.817 106.767 270.977 110.702 271.454Z" fill="#E1E2E4"/>
<path d="M110.702 287.581C106.77 288.058 102.825 288.217 98.8819 288.058C94.9354 288.218 90.9861 288.058 87.0508 287.581C90.9861 287.103 94.9354 286.943 98.8819 287.103C102.825 286.944 106.77 287.103 110.702 287.581Z" fill="#E1E2E4"/>
<path d="M167.681 258.016H144.029V302.093H167.681V258.016Z" fill="white"/>
<path d="M156.393 302.093C156.096 302.093 155.855 292.226 155.855 280.054C155.855 267.882 156.096 258.016 156.393 258.016C156.69 258.016 156.931 267.882 156.931 280.054C156.931 292.226 156.69 302.093 156.393 302.093Z" fill="#E1E2E4"/>
<path d="M174.135 285.752C174.13 285.665 174.13 285.578 174.135 285.491C174.135 285.265 174.135 285.004 174.135 284.695C174.135 283.911 174.135 282.901 174.135 281.666H174.192H186.952L187.032 281.749V285.883H186.952H177.805H175.141H177.828H186.974L186.894 285.966V281.915C187.054 282.094 186.894 281.915 186.974 282.011H174.215V281.951C174.215 283.139 174.215 284.173 174.215 284.945C174.215 285.254 174.215 285.527 174.215 285.752C174.215 285.978 174.135 285.752 174.135 285.752Z" fill="#E1E2E4"/>
<path d="M169.836 289.032C169.831 288.966 169.831 288.901 169.836 288.836C169.836 288.666 169.836 288.47 169.836 288.239C169.836 287.66 169.836 286.902 169.836 285.967H169.893H182.653L182.733 286.029V289.13H182.653H173.506H170.842H173.529H182.676L182.596 289.192V287.695C182.596 287.437 182.596 287.178 182.596 286.92V286.154L182.687 286.225H169.927V286.181C169.927 287.072 169.927 287.856 169.927 288.426C169.927 288.657 169.927 288.862 169.927 289.032H169.836Z" fill="#E1E2E4"/>
<path d="M286.376 322.856H198.69L198.311 184.285H285.99L286.376 322.856Z" fill="#F0F0F1"/>
<path d="M239.287 157H208.32V184.279H239.287V157Z" fill="#F0F0F1"/>
<path d="M239.286 157H231.904V184.279H239.286V157Z" fill="#E1E2E4"/>
<path d="M288.553 182.689H191V184.279H288.553V182.689Z" fill="#E1E2E4"/>
<path d="M223.04 196.18H215.615V211.831H223.04V196.18Z" fill="white"/>
<path d="M242.15 217.973C242.15 218.137 232.334 218.273 220.234 218.273C208.134 218.273 198.311 218.137 198.311 217.973C198.311 217.808 208.127 217.672 220.234 217.672C232.341 217.672 242.15 217.808 242.15 217.973Z" fill="#E1E2E4"/>
<path d="M267.267 196.18H259.842V211.831H267.267V196.18Z" fill="white"/>
<path d="M286.377 217.973C286.377 218.137 276.561 218.273 264.453 218.273C252.346 218.273 242.537 218.137 242.537 217.973C242.537 217.808 252.346 217.672 264.453 217.672C276.561 217.672 286.377 217.808 286.377 217.973Z" fill="#F0F0F1"/>
<path d="M267.267 227.252H259.842V242.903H267.267V227.252Z" fill="white"/>
<path d="M286.377 249.047C286.377 249.211 276.561 249.348 264.453 249.348C252.346 249.348 242.537 249.211 242.537 249.047C242.537 248.882 252.346 248.746 264.453 248.746C276.561 248.746 286.377 248.882 286.377 249.047Z" fill="#F0F0F1"/>
<path d="M267.267 259.264H259.842V274.915H267.267V259.264Z" fill="white"/>
<path d="M286.377 281.051C286.377 281.216 276.561 281.352 264.453 281.352C252.346 281.352 242.537 281.216 242.537 281.051C242.537 280.887 252.346 280.758 264.453 280.758C276.561 280.758 286.377 280.865 286.377 281.051Z" fill="#F0F0F1"/>
<path d="M267.267 291.268H259.842V306.919H267.267V291.268Z" fill="white"/>
<path d="M286.377 313.084C286.377 313.249 276.561 313.385 264.453 313.385C252.346 313.385 242.537 313.249 242.537 313.084C242.537 312.919 252.346 312.783 264.453 312.783C276.561 312.783 286.377 312.898 286.377 313.084Z" fill="#F0F0F1"/>
<path d="M223.04 227.725H215.615V243.376H223.04V227.725Z" fill="white"/>
<path d="M242.15 249.519C242.15 249.684 232.334 249.82 220.234 249.82C208.134 249.82 198.311 249.684 198.311 249.519C198.311 249.355 208.127 249.219 220.234 249.219C232.341 249.219 242.15 249.362 242.15 249.519Z" fill="#E1E2E4"/>
<path d="M223.04 259.27H215.615V274.921H223.04V259.27Z" fill="white"/>
<path d="M242.15 281.066C242.15 281.231 232.334 281.367 220.234 281.367C208.134 281.367 198.311 281.231 198.311 281.066C198.311 280.902 208.127 280.766 220.234 280.766C232.341 280.766 242.15 280.902 242.15 281.066Z" fill="#E1E2E4"/>
<path d="M223.04 290.816H215.615V306.468H223.04V290.816Z" fill="white"/>
<path d="M242.15 312.611C242.15 312.776 232.334 312.912 220.234 312.912C208.134 312.912 198.311 312.776 198.311 312.611C198.311 312.447 208.127 312.311 220.234 312.311C232.341 312.311 242.15 312.447 242.15 312.611Z" fill="#E1E2E4"/>
<path d="M285.99 184.285H242.15V322.864H285.99V184.285Z" fill="#E1E2E4"/>
<path d="M229.787 283.422C230.714 283.81 231.554 284.382 232.256 285.103C232.957 285.824 233.505 286.679 233.868 287.618C234.587 289.498 234.863 291.519 234.677 293.524C234.426 297.405 232.429 301.4 230.223 304.594C226.837 301.923 225.849 297.018 225.505 294.498C224.961 290.517 226.393 282.992 229.801 283.422" fill="#48494B"/>
<path d="M234.302 310.766C234.028 309.677 234.047 308.534 234.356 307.454C234.665 306.374 235.254 305.395 236.063 304.616C236.885 303.85 237.852 303.256 238.907 302.868C239.962 302.481 241.084 302.308 242.206 302.361C242.725 302.329 243.243 302.411 243.727 302.6C244.21 302.79 244.647 303.082 245.006 303.456C245.28 303.858 245.441 304.325 245.472 304.81C245.504 305.295 245.405 305.779 245.185 306.213C244.739 307.09 244.067 307.831 243.237 308.361C240.517 310.265 237.51 311.604 234.302 310.802" fill="#48494B"/>
<path d="M230.723 322.788C230.721 322.521 230.745 322.255 230.794 321.993C230.873 321.427 230.966 320.704 231.081 319.845C231.329 317.444 231.962 315.099 232.957 312.9C233.997 310.703 235.603 308.822 237.611 307.451C238.219 307.045 238.876 306.716 239.565 306.47C239.752 306.4 239.944 306.34 240.138 306.291C240.267 306.255 240.338 306.241 240.338 306.255C238.754 306.851 237.305 307.757 236.075 308.92C234.846 310.083 233.861 311.48 233.179 313.029C232.203 315.205 231.554 317.514 231.253 319.881C231.102 320.783 230.973 321.52 230.873 322.029C230.846 322.286 230.796 322.54 230.723 322.788Z" fill="#242425"/>
<path d="M229.199 289.25C229.234 289.361 229.253 289.477 229.256 289.594L229.364 290.582C229.457 291.441 229.564 292.687 229.693 294.233C229.944 297.312 230.23 301.579 230.409 306.29C230.588 311.002 230.717 315.283 230.739 318.376C230.739 319.923 230.739 321.176 230.739 322.035C230.739 322.443 230.739 322.751 230.739 323.03C230.751 323.147 230.751 323.264 230.739 323.381C230.726 323.264 230.726 323.147 230.739 323.03C230.739 322.779 230.739 322.443 230.703 322.035C230.703 321.14 230.653 319.887 230.61 318.376C230.538 315.29 230.409 311.016 230.202 306.305C229.994 301.594 229.736 297.333 229.536 294.248C229.435 292.73 229.357 291.491 229.299 290.589C229.299 290.181 229.257 289.873 229.242 289.601C229.218 289.485 229.204 289.368 229.199 289.25Z" fill="#242425"/>
<path d="M228.804 313.385C228.297 311.069 227.245 308.907 225.736 307.078C224.227 305.249 222.304 303.806 220.127 302.868C219.017 302.402 217.585 302.152 216.733 302.982C215.881 303.813 216.146 305.273 216.64 306.376C217.705 308.654 219.42 310.565 221.569 311.87C223.719 313.175 226.206 313.814 228.719 313.707" fill="#48494B"/>
<path d="M220.842 306.498C221.088 306.566 221.328 306.657 221.558 306.77C221.832 306.878 222.1 307.003 222.36 307.142C222.66 307.314 223.018 307.472 223.376 307.715C223.784 307.959 224.178 308.225 224.558 308.51C224.973 308.811 225.381 309.169 225.811 309.548C226.73 310.407 227.55 311.368 228.252 312.412C228.938 313.456 229.5 314.575 229.928 315.749C230.11 316.262 230.263 316.786 230.386 317.317C230.503 317.776 230.591 318.242 230.651 318.713C230.708 319.1 230.743 319.489 230.758 319.88C230.779 320.173 230.779 320.467 230.758 320.76C230.767 321.012 230.75 321.264 230.708 321.512C230.644 321.512 230.708 320.438 230.429 318.741C230.363 318.283 230.27 317.828 230.15 317.381C230.023 316.861 229.865 316.349 229.677 315.849C229.245 314.687 228.683 313.577 228.002 312.541C227.313 311.525 226.516 310.586 225.625 309.741C225.202 309.362 224.808 309.025 224.4 308.696C224.035 308.406 223.655 308.136 223.262 307.887C221.808 306.956 220.842 306.555 220.842 306.498Z" fill="#242425"/>
<path d="M360 323.79C360 323.906 279.405 323.99 180.008 323.99C80.6102 323.99 0 323.906 0 323.79C0 323.675 80.5794 323.59 180.008 323.59C279.436 323.59 360 323.682 360 323.79Z" fill="#48494B"/>
<path d="M63.4281 324.76C63.1265 324.03 62.8727 323.275 62.6688 322.5C61.5074 318.858 59.9843 315.385 58.1303 312.15C57.7061 311.521 57.328 310.852 57 310.15C57.5307 310.69 57.9978 311.309 58.3892 311.99C59.3986 313.568 60.2932 315.241 61.0639 316.99C61.8304 318.742 62.4683 320.565 62.9708 322.44C63.2136 323.186 63.3675 323.967 63.4281 324.76Z" fill="#48494B"/>
<path d="M66.4046 324.6C66.2838 324.6 65.0585 319.73 63.6521 313.6C62.2457 307.47 61.2189 302.52 61.3397 302.49C61.4605 302.46 62.6858 307.36 64.0922 313.49C65.4986 319.62 66.5254 324.57 66.4046 324.6Z" fill="#48494B"/>
<path d="M70.132 324.78C70.0716 319.254 70.3166 313.73 70.8654 308.24C70.9144 313.766 70.6694 319.29 70.132 324.78Z" fill="#48494B"/>
<path d="M326.005 311.641C326.47 312.106 326.869 312.652 327.188 313.261C328.042 314.657 328.787 316.14 329.414 317.691C330.048 319.24 330.559 320.854 330.941 322.511C331.135 323.185 331.243 323.89 331.26 324.601C331.122 324.601 330.475 321.501 329.008 317.921C327.541 314.341 325.893 311.731 326.005 311.641Z" fill="#48494B"/>
<path d="M334.514 294C334.591 294 334.091 295.69 333.573 298.44C332.216 305.634 332.391 313.102 334.082 320.2C334.729 322.91 335.307 324.53 335.23 324.57C335.043 324.219 334.887 323.847 334.764 323.46C334.388 322.428 334.06 321.373 333.78 320.3C333.358 318.709 333.021 317.089 332.771 315.45C332.153 311.426 332.057 307.317 332.486 303.26C332.661 301.61 332.92 299.974 333.262 298.36C333.5 297.27 333.788 296.195 334.125 295.14C334.224 294.747 334.354 294.365 334.514 294Z" fill="#48494B"/>
<path d="M140.905 300.33C141.15 301.512 141.329 302.711 141.44 303.92C141.734 306.14 142.165 309.2 142.734 312.56C143.304 315.92 143.917 318.94 144.374 321.12C144.668 322.288 144.896 323.477 145.056 324.68C144.92 324.393 144.816 324.087 144.745 323.77C144.564 323.17 144.339 322.3 144.063 321.22C143.528 319.05 142.873 316.03 142.294 312.66C141.716 309.29 141.337 306.21 141.121 303.97C141.017 302.85 140.948 301.97 140.914 301.31C140.87 300.986 140.867 300.656 140.905 300.33Z" fill="#48494B"/>
<path d="M131 310.23C131.717 310.694 132.386 311.25 132.993 311.89C134.518 313.347 135.941 314.942 137.247 316.66C138.552 318.382 139.732 320.225 140.776 322.17C141.25 322.948 141.638 323.791 141.932 324.68C141.416 323.948 140.943 323.176 140.517 322.37C139.395 320.507 138.189 318.714 136.902 317C135.608 315.298 134.234 313.678 132.786 312.15C132.151 311.562 131.554 310.92 131 310.23Z" fill="#48494B"/>
<path d="M152.51 307.15C152.319 308.005 152.071 308.841 151.768 309.65C151.285 311.18 150.655 313.31 150.042 315.7C149.43 318.09 149.067 320.29 148.8 321.89C148.695 322.766 148.537 323.631 148.325 324.48C148.285 323.593 148.34 322.702 148.489 321.83C148.74 319.713 149.115 317.618 149.611 315.56C150.105 313.499 150.716 311.478 151.44 309.51C151.713 308.676 152.072 307.884 152.51 307.15Z" fill="#48494B"/>
<path d="M270.561 68.6359C271.094 64.7724 265.642 61.5949 261.534 61.2609C259.585 61.1075 257.554 61.4054 255.703 60.7645C251.695 59.3653 250.097 54.1839 246.189 52.532C243.264 51.3043 239.87 52.3966 237.063 53.8318C234.255 55.2671 231.43 57.0454 228.261 57.253C225.508 57.4245 222.511 56.4045 220.137 57.7495C218.332 58.7515 217.429 60.8277 215.75 62.0463C214.071 63.2649 212.013 63.4906 210.009 63.5989C208.005 63.7072 205.92 63.7343 204.088 64.5738C202.255 65.4133 200.684 67.345 201.054 69.3671L270.561 68.6359Z" fill="#FBFCFD"/>
<path d="M333.664 97.3159C334.441 91.6741 326.443 87.0253 320.485 86.5469C317.633 86.3122 314.663 86.7545 311.955 85.8067C306.096 83.7666 303.758 76.1931 298.035 73.7829C293.766 71.9775 288.837 73.5843 284.694 75.6695C280.55 77.7547 276.452 80.3816 271.821 80.6794C267.795 80.9322 263.417 79.4428 259.897 81.4106C257.27 82.873 255.889 85.924 253.47 87.6843C251.05 89.4445 248.054 89.8056 245.075 89.959C242.096 90.1125 239.099 90.1486 236.418 91.3763C233.737 92.6039 231.534 95.4293 232.085 98.3179L333.664 97.3159Z" fill="#E1E2E4"/>
<path d="M113.8 167.214C113.801 165.029 113.291 162.874 112.31 160.915C111.329 158.956 109.904 157.247 108.145 155.92C106.386 154.593 104.34 153.685 102.167 153.265C99.9945 152.845 97.7528 152.925 95.6164 153.499C93.4801 154.073 91.5066 155.126 89.8495 156.575C88.1924 158.024 86.8963 159.83 86.0618 161.854C85.2273 163.878 84.8771 166.064 85.0382 168.243C85.1993 170.422 85.8675 172.535 86.9908 174.418L87.0293 174.471C87.5824 175.393 88.2746 176.05 88.9727 177.019L97.3323 187.982C97.5741 188.298 97.887 188.555 98.2463 188.731C98.6056 188.908 99.0015 189 99.403 189C99.8044 189 100.2 188.908 100.56 188.731C100.919 188.555 101.232 188.298 101.474 187.982L109.694 177.2C110.443 176.324 111.141 175.408 111.786 174.456L111.818 174.418C113.117 172.234 113.802 169.747 113.8 167.214Z" fill="#2F3476"/>
<path d="M99.3998 176.04C104.172 176.04 108.04 172.172 108.04 167.4C108.04 162.628 104.172 158.76 99.3998 158.76C94.628 158.76 90.7598 162.628 90.7598 167.4C90.7598 172.172 94.628 176.04 99.3998 176.04Z" fill="white"/>
<path d="M99.3842 176.034C99.4302 176.026 99.4765 176.022 99.5229 176.019L99.9303 175.99L100.225 175.972C100.335 175.972 100.453 175.936 100.583 175.916C100.882 175.877 101.178 175.815 101.468 175.733C102.27 175.531 103.036 175.209 103.741 174.777C104.776 174.15 105.667 173.312 106.356 172.318C107.046 171.323 107.517 170.194 107.74 169.005C107.804 168.649 107.845 168.289 107.861 167.928C107.861 167.742 107.887 167.556 107.885 167.37C107.882 167.184 107.864 166.996 107.855 166.807C107.855 166.712 107.855 166.618 107.834 166.512L107.793 166.216C107.761 166.028 107.737 165.836 107.699 165.644C107.612 165.259 107.502 164.879 107.368 164.508C107.23 164.128 107.068 163.757 106.881 163.398C106.784 163.216 106.668 163.044 106.565 162.867C106.459 162.687 106.34 162.515 106.211 162.351C105.959 162.011 105.686 161.688 105.393 161.383C105.083 161.084 104.754 160.805 104.408 160.548C103.698 160.016 102.906 159.604 102.064 159.326C100.322 158.74 98.435 158.74 96.6925 159.326C95.8502 159.604 95.0586 160.016 94.349 160.548C93.6517 161.044 93.0422 161.654 92.5456 162.351C92.4153 162.514 92.2969 162.687 92.1915 162.867C92.0882 163.044 91.9731 163.216 91.8757 163.398C91.6891 163.757 91.5264 164.128 91.3887 164.508C91.2537 164.879 91.1433 165.259 91.0581 165.644C91.0168 165.836 90.9961 166.028 90.9636 166.216L90.9194 166.512C90.9194 166.606 90.9194 166.7 90.9017 166.807C90.9017 166.996 90.881 167.184 90.8722 167.37C90.8633 167.556 90.8722 167.742 90.8928 167.928C90.9099 168.289 90.9514 168.649 91.0168 169.005C91.2396 170.196 91.7116 171.326 92.4018 172.322C93.092 173.317 93.9849 174.156 95.0219 174.783C95.7261 175.216 96.4926 175.538 97.2946 175.739C97.5848 175.822 97.8807 175.883 98.18 175.922C98.3099 175.942 98.4279 175.966 98.5372 175.978L98.8323 175.995L99.2396 176.025C99.2861 176.027 99.3324 176.032 99.3783 176.04H99.2455H98.8353H98.5401C98.4279 176.04 98.3099 176.007 98.18 175.99C97.8809 175.957 97.5848 175.901 97.2946 175.821C96.4832 175.628 95.7066 175.311 94.9924 174.88C93.9389 174.254 93.0305 173.411 92.3273 172.407C91.6241 171.404 91.1422 170.262 90.9135 169.058C90.8445 168.697 90.8011 168.331 90.7836 167.963C90.7836 167.777 90.757 167.589 90.76 167.4L90.7866 166.827C90.7866 166.73 90.7866 166.636 90.8043 166.532L90.8485 166.237C90.881 166.045 90.9017 165.848 90.943 165.647C91.0274 165.254 91.1388 164.868 91.2765 164.49C91.4143 164.103 91.579 163.725 91.7694 163.36C91.8668 163.174 91.9819 163 92.0882 162.817C92.1956 162.635 92.3159 162.46 92.4482 162.295C92.9546 161.586 93.5738 160.965 94.2811 160.456C95.0031 159.915 95.8086 159.494 96.6659 159.211C97.5489 158.924 98.4704 158.772 99.399 158.76C100.328 158.773 101.251 158.925 102.135 159.211C102.991 159.495 103.796 159.915 104.517 160.456C104.87 160.717 105.204 161.002 105.517 161.309C105.818 161.618 106.096 161.947 106.35 162.295C106.482 162.459 106.601 162.634 106.707 162.817C106.816 163 106.931 163.174 107.029 163.36C107.219 163.725 107.384 164.103 107.521 164.49C107.656 164.869 107.768 165.255 107.855 165.647C107.893 165.839 107.917 166.036 107.949 166.237L107.991 166.532C107.991 166.627 107.991 166.724 108.008 166.827C108.008 167.019 108.029 167.211 108.038 167.4C108.047 167.589 108.02 167.777 108.014 167.963C107.997 168.331 107.954 168.697 107.885 169.058C107.656 170.262 107.174 171.404 106.471 172.407C105.767 173.411 104.859 174.254 103.806 174.88C103.091 175.311 102.315 175.628 101.503 175.821C101.213 175.901 100.917 175.957 100.618 175.99C100.488 176.007 100.367 176.028 100.258 176.04H99.9627H99.5525L99.3842 176.034Z" fill="#48494B"/>
<path d="M232.654 142.584L233.197 142.654L234.799 142.903L240.953 143.899L263.563 147.621L279.178 150.174L283.461 150.883C284.18 151.028 284.911 151.114 285.644 151.138C286.384 151.153 287.122 151.071 287.84 150.895C289.335 150.528 290.711 149.781 291.835 148.728C292.958 147.675 293.792 146.351 294.256 144.882C294.739 143.356 294.794 141.726 294.415 140.171C294.198 139.383 293.934 138.61 293.624 137.854C293.33 137.075 293.043 136.296 292.749 135.511C291.57 132.375 290.37 129.183 289.149 125.936C286.704 119.418 284.176 112.671 281.591 105.757C280.314 102.302 279.037 98.8972 277.76 95.5437C277.122 93.8584 276.484 92.1923 275.884 90.5326C275.429 89.1184 274.627 87.8407 273.551 86.8161C272.475 85.7916 271.16 85.053 269.725 84.6676C268.29 84.2823 266.782 84.2625 265.338 84.6102C263.893 84.9578 262.559 85.6618 261.457 86.6578C260.869 87.2244 260.323 87.8324 259.823 88.4771C258.784 89.7538 257.754 91.0028 256.733 92.2242L235.099 118.441C232.035 122.182 229.207 125.534 226.801 128.521C225.769 129.973 225.197 131.701 225.16 133.481C225.137 134.978 225.481 136.457 226.162 137.79C226.7 138.856 227.444 139.804 228.352 140.58C229.023 141.143 229.771 141.608 230.573 141.958C231.069 142.172 231.581 142.345 232.105 142.476C232.456 142.552 232.642 142.603 232.642 142.603C232.642 142.603 232.456 142.603 232.093 142.507C230.802 142.229 229.589 141.667 228.543 140.861C227.497 140.055 226.645 139.025 226.047 137.847C225.345 136.5 224.985 135 225 133.481C225.027 131.664 225.601 129.898 226.647 128.413C229.041 125.393 231.85 122.029 234.908 118.295L256.484 92.0327L259.574 88.2792C260.078 87.6202 260.633 87.0013 261.233 86.428C261.875 85.8489 262.595 85.3632 263.372 84.9853C264.558 84.4025 265.855 84.0812 267.176 84.0429C268.497 84.0047 269.81 84.2505 271.028 84.7637C272.246 85.2769 273.339 86.0455 274.234 87.0176C275.129 87.9898 275.805 89.1427 276.216 90.3985C276.854 92.0582 277.492 93.7244 278.092 95.4096C279.369 98.7737 280.646 102.195 281.923 105.623C284.514 112.537 287.029 119.284 289.481 125.808C290.698 129.064 291.894 132.255 293.068 135.383L293.943 137.72C294.257 138.489 294.525 139.275 294.747 140.075C295.135 141.686 295.076 143.373 294.575 144.952C294.092 146.469 293.228 147.837 292.066 148.924C290.904 150.012 289.481 150.783 287.936 151.164C287.192 151.339 286.428 151.421 285.663 151.406C284.915 151.381 284.169 151.294 283.435 151.144L279.158 150.429L263.551 147.806L240.959 143.976L234.818 142.922L233.222 142.641L232.654 142.584Z" fill="#242425"/>
<path d="M253.477 146.057L246.807 182.954H258.342L264.355 147.87L253.477 146.057Z" fill="#48494B"/>
<path d="M232.556 142.43C230.987 142.164 229.516 141.491 228.29 140.477C227.064 139.463 226.127 138.145 225.571 136.654C225.016 135.164 224.862 133.553 225.125 131.984C225.389 130.415 226.06 128.944 227.072 127.716L260.305 87.3593C261.31 86.1223 262.626 85.1748 264.118 84.6139C265.61 84.0531 267.224 83.899 268.795 84.1676H268.827C270.393 84.4241 271.863 85.0909 273.087 86.1C274.312 87.1092 275.247 88.4247 275.798 89.9128L294.131 138.875C294.69 140.365 294.846 141.977 294.584 143.547C294.322 145.117 293.651 146.591 292.64 147.82C291.628 149.049 290.311 149.991 288.82 150.549C287.329 151.108 285.718 151.265 284.147 151.003L232.581 142.398L232.556 142.43Z" fill="#2F3476"/>
<path d="M268.479 87.0094C267.375 86.8089 266.238 86.9075 265.185 87.2947C264.132 87.682 263.202 88.3438 262.491 89.2117L229.258 129.569C228.556 130.43 228.091 131.461 227.91 132.558C227.728 133.654 227.836 134.779 228.223 135.822C228.61 136.864 229.263 137.787 230.116 138.499C230.969 139.212 231.994 139.689 233.088 139.884L284.693 148.515C285.795 148.696 286.924 148.584 287.97 148.192C289.015 147.799 289.939 147.14 290.65 146.278C291.36 145.417 291.832 144.385 292.019 143.284C292.206 142.184 292.101 141.053 291.715 140.006L273.362 91.0502C272.978 90.0052 272.323 89.0808 271.465 88.371C270.608 87.6612 269.577 87.1914 268.479 87.0094Z" fill="white"/>
<path d="M257.181 131.86C257.254 131.414 257.418 130.987 257.661 130.606C257.904 130.225 258.222 129.897 258.596 129.642C258.969 129.388 259.391 129.211 259.834 129.124C260.278 129.036 260.735 129.04 261.177 129.134C261.611 129.205 262.028 129.361 262.402 129.592C262.777 129.824 263.102 130.127 263.359 130.485C263.616 130.842 263.801 131.247 263.902 131.676C264.003 132.104 264.018 132.549 263.947 132.983C263.876 133.418 263.721 133.834 263.489 134.209C263.257 134.583 262.954 134.908 262.596 135.166C262.239 135.423 261.834 135.607 261.406 135.708C260.977 135.809 260.533 135.825 260.098 135.754C259.647 135.698 259.212 135.551 258.819 135.324C258.426 135.096 258.083 134.791 257.811 134.427C257.539 134.064 257.342 133.649 257.234 133.208C257.126 132.767 257.108 132.308 257.181 131.86ZM261.847 105.049L268.173 106.083L263.851 125.904L259.619 125.214L261.847 105.049Z" fill="#2F3476"/>
<path fill-rule="evenodd" clip-rule="evenodd" d="M174.787 107.5C172.301 107.5 170.287 109.515 170.287 112V121.733C170.287 124.771 167.824 127.233 164.787 127.233H104C101.515 127.233 99.5 129.248 99.5 131.733V145H98.5V131.733C98.5 128.696 100.962 126.233 104 126.233H164.787C167.272 126.233 169.287 124.219 169.287 121.733V112C169.287 108.962 171.749 106.5 174.787 106.5H233V107.5H174.787Z" fill="#2F3476"/>
</svg>
