<svg width="81" height="72" viewBox="0 0 81 72" fill="none" xmlns="http://www.w3.org/2000/svg">
<path d="M42.9345 27.9998H37.4373L37.8919 48.5395H42.4657L42.9345 27.9998ZM40.1788 57.4032C41.855 57.4032 43.2896 56.0111 43.3038 54.2782C43.2896 52.5736 41.855 51.1816 40.1788 51.1816C38.4459 51.1816 37.0396 52.5736 37.0538 54.2782C37.0396 56.0111 38.4459 57.4032 40.1788 57.4032Z" fill="#2F3476"/>
<path fill-rule="evenodd" clip-rule="evenodd" d="M75.6169 61.2537L43.9747 6.44776C42.3202 3.58209 38.184 3.58209 36.5295 6.44776L4.88722 61.2537C3.23273 64.1194 5.30085 67.7015 8.60984 67.7015H71.8943C75.2033 67.7015 77.2714 64.1194 75.6169 61.2537ZM47.6973 4.29851C44.3883 -1.43284 36.1158 -1.43283 32.8069 4.29851L1.16461 59.1045C-2.14439 64.8358 1.99186 72 8.60984 72H71.8943C78.5123 72 82.6485 64.8358 79.3396 59.1045L47.6973 4.29851Z" fill="#2F3476"/>
</svg>
