<svg width="101" height="88" viewBox="0 0 101 88" fill="none" xmlns="http://www.w3.org/2000/svg">
<path d="M-2.53658 54.5087L-12.518 34.6079C-15.1816 33.2906 -24.8608 38.7883 -26.8879 43.8353C-26.8879 43.8353 -20.5974 69.7212 -12.518 70.815C-4.43868 71.9088 38.7807 71.5319 61.9927 58.7438C64.0838 57.8063 64.9095 55.6794 65.4722 53.3479C67.083 52.1943 66.9179 50.1627 66.0506 49.2106C67.1776 47.074 65.9964 45.1252 65.1381 43.823C63.2212 40.9148 57.5606 41.8069 53.7769 42.9811C51.0029 32.8617 40.6292 32.7579 42.9842 35.6243C47.8364 41.5302 46.6552 46.189 46.6552 46.189C46.6552 46.189 42.3057 50.1488 25.9994 53.3479C9.69313 56.547 -2.53658 54.5087 -2.53658 54.5087Z" fill="#BF7657" stroke="black" stroke-width="1.93637" stroke-linecap="round" stroke-linejoin="round"/>
<path d="M64.6935 8.20561L64.6936 8.20566L64.6847 8.21059C57.8102 12.0378 47.8361 18.557 40.1818 25.6979C36.3521 29.2707 33.1423 32.9633 31.1812 36.519C29.2367 40.0445 28.5805 43.3181 29.596 46.1905L49.7092 57.6991C49.6333 53.6122 52.6744 49.0967 59.1439 44.9612C65.7374 40.7463 76.0765 36.794 91.0089 33.9522C91.6113 33.7671 92.3284 33.6736 92.9473 33.593C93.1167 33.5709 93.2787 33.5498 93.429 33.528C93.815 33.472 94.1455 33.4115 94.4196 33.3291C94.6979 33.2455 94.8597 33.156 94.9486 33.0775C95.016 33.0181 95.0543 32.9569 95.0679 32.8422C95.0847 32.6994 95.0645 32.4371 94.8955 32.0004C94.5558 31.1225 93.7178 29.794 92.0706 27.8079C89.9044 25.8496 88.1946 24.8041 86.801 24.2536C85.4131 23.7053 84.2971 23.6311 83.2842 23.6766C82.9098 23.6933 82.5625 23.7253 82.2043 23.7583C82.0573 23.7719 81.9084 23.7856 81.755 23.7985C81.2463 23.8413 80.7107 23.8724 80.159 23.829C79.012 23.7388 77.8772 23.3327 76.6315 22.2469C74.7002 20.9965 74.3331 19.1971 74.2647 17.6788C74.2478 17.3038 74.2485 16.9361 74.2495 16.6005L74.2495 16.5782C74.2505 16.244 74.2514 15.9466 74.2388 15.6694C74.2132 15.1071 74.1341 14.7767 74.0082 14.5749C73.7463 14.326 73.4642 14.0534 73.1659 13.7651C71.9217 12.563 70.3951 11.0878 68.877 9.9195C67.9305 9.19103 67.038 8.62296 66.2667 8.31827C65.4772 8.00638 64.9897 8.03601 64.6935 8.20561Z" fill="#F0F0F1" stroke="black" stroke-width="1.66862"/>
<path d="M64.578 12.313L64.5781 12.3131L64.5695 12.3176C57.1859 16.2075 46.3704 22.8683 37.8483 30.2302C33.5849 33.9131 29.932 37.7405 27.5637 41.4544C25.2102 45.145 24.2013 48.6001 24.9446 51.6505L50.1405 69.7244C50.0366 60.7843 57.6933 45.3183 88.555 39.9276C89.1829 39.7454 89.9184 39.6612 90.556 39.5882C90.7298 39.5684 90.8964 39.5493 91.0515 39.5293C91.8971 39.4204 92.413 39.2851 92.6811 39.0671C92.7811 38.9857 92.844 38.8933 92.8759 38.7471C92.9122 38.5804 92.9163 38.2984 92.7927 37.843C92.5418 36.9186 91.8303 35.5097 90.3572 33.3874C88.3559 31.2888 86.7303 30.1658 85.38 29.5682C84.0418 28.976 82.9255 28.8778 81.8926 28.9067C81.5128 28.9173 81.1589 28.9441 80.7939 28.9717C80.6417 28.9832 80.4876 28.9949 80.3288 29.0056C79.8089 29.0406 79.2614 29.063 78.704 29.0066C77.5403 28.8888 76.4146 28.4356 75.2489 27.2616C73.3893 25.8898 73.2127 23.9772 73.2975 22.4102C73.3187 22.0185 73.357 21.6345 73.3924 21.2822L73.3951 21.2557C73.4303 20.9068 73.4618 20.5937 73.4776 20.3013C73.5099 19.7043 73.4627 19.3532 73.3596 19.1428C73.1199 18.8772 72.8626 18.587 72.5907 18.2805C71.4495 16.9938 70.0528 15.4191 68.6333 14.1663C67.749 13.3858 66.9078 12.7787 66.1659 12.4489C65.4187 12.1167 64.9214 12.127 64.578 12.313Z" fill="#F0F0F1" stroke="black" stroke-width="1.66862"/>
<path d="M47.1693 68.3735C48.9778 69.3798 50.3894 70.0338 51.4977 70.4132C52.6245 70.799 53.3732 70.878 53.876 70.8063C54.3358 70.7407 54.6302 70.5448 54.873 70.2292C55.1221 69.9054 55.3243 69.4438 55.5211 68.8164L28.7237 49.1914C28.2961 50.3544 27.893 51.1683 27.3952 51.7117C26.9578 52.1892 26.4843 52.4209 25.991 52.5471L47.1693 68.3735Z" fill="#C9CCCF" stroke="black" stroke-width="1.66862"/>
<line y1="-0.476749" x2="25.3994" y2="-0.476749" transform="matrix(0.7276 0.686006 -0.686 0.727598 55.5146 23.5664)" stroke="black" stroke-width="0.953498" stroke-dasharray="2.43 2.43"/>
<g opacity="0.5" clip-path="url(#clip0_1469_72293)">
<path d="M43.6016 48.507C43.6917 48.5714 43.7936 48.6172 43.9015 48.642C44.0095 48.6667 44.1212 48.6699 44.2303 48.6512L46.0653 48.3407L47.2485 49.7694C47.3912 49.9417 47.5965 50.0503 47.8193 50.0712C48.042 50.0921 48.2639 50.0237 48.4363 49.881L49.8649 48.6978L51.6099 49.3447C51.7489 49.3953 51.8986 49.409 52.0444 49.3842C52.1903 49.3595 52.3271 49.2972 52.4416 49.2035C52.5546 49.1099 52.6423 48.9869 52.6945 48.8462L53.3406 47.103L55.1755 46.7925C55.396 46.755 55.5925 46.6316 55.7221 46.4493C55.8516 46.2671 55.9036 46.0409 55.8666 45.8204L55.5555 43.986L56.9842 42.8028C57.1565 42.6601 57.2651 42.4548 57.286 42.232C57.3069 42.0093 57.2385 41.7873 57.0958 41.615L55.9126 40.1864L56.5595 38.4414C56.598 38.3375 56.6157 38.2269 56.6115 38.1162C56.6073 38.0054 56.5813 37.8966 56.535 37.7958C56.4887 37.6951 56.4231 37.6045 56.3417 37.5292C56.2604 37.4539 56.165 37.3953 56.0611 37.3569L54.3173 36.7101L54.0079 34.8765C53.9706 34.6559 53.8472 34.4592 53.6649 34.3297C53.4826 34.2001 53.2563 34.1482 53.0357 34.1854L51.2008 34.4959L50.017 33.0665C49.8743 32.8942 49.669 32.7857 49.4462 32.7647C49.2235 32.7438 49.0016 32.8122 48.8292 32.9549L47.4006 34.1382L45.6568 33.4914C45.447 33.4142 45.2152 33.4228 45.0117 33.5152C44.9108 33.5612 44.82 33.6266 44.7446 33.7079C44.6691 33.7891 44.6106 33.8846 44.5724 33.9886L43.9243 35.7335L42.09 36.0434C41.8694 36.0807 41.6728 36.2041 41.5432 36.3864C41.4136 36.5687 41.3617 36.795 41.3989 37.0155L41.7094 38.8505L40.2807 40.0337C40.1084 40.1764 39.9998 40.3817 39.9789 40.6045C39.9579 40.8272 40.0263 41.0491 40.1691 41.2215L41.3523 42.6501L40.7054 44.3951C40.6281 44.6052 40.6372 44.8373 40.7307 45.0407C40.8242 45.2441 40.9945 45.4022 41.2043 45.4803L42.9482 46.1258L43.2576 47.9595C43.2958 48.1801 43.4194 48.3769 43.6016 48.507ZM49.1705 42.0679C46.9096 43.9404 45.5607 42.9994 44.9575 42.2711C44.265 41.435 44.2362 40.0393 45.3381 38.7631L44.7607 38.066L46.0601 36.9898L46.6569 37.7103C48.004 37.0437 49.2132 37.6228 49.7652 38.2894L49.1155 38.8275L48.4755 39.3773C48.262 39.1379 47.7881 38.8316 47.0182 39.4692C46.1743 40.1681 45.9959 40.8799 46.2569 41.195C46.4581 41.438 46.795 41.8447 48.0944 40.7685C50.3553 38.8961 51.7042 39.837 52.3074 40.5653C52.9999 41.4015 53.0287 42.7971 51.9268 44.0734L52.5106 44.7783L51.2112 45.8544L50.6301 45.1528C48.9129 46.1729 47.6032 45.4657 47.1098 44.8699L48.4092 43.7938C48.4933 43.8807 49.0506 44.3579 50.2467 43.3673C51.1432 42.6248 51.2313 41.9111 51.008 41.6415C50.8331 41.4303 50.4699 40.9918 49.1705 42.0679Z" fill="#ABADB2"/>
</g>
<path d="M52.7932 46.0452C53.5571 48.1404 58.6727 47.0664 62.1099 45.813C65.5471 44.5597 65.8029 43.0494 65.2403 41.5065C64.6777 39.9636 63.5098 38.9725 60.0726 40.2258C56.6354 41.4791 52.0292 43.95 52.7932 46.0452Z" fill="#BF7657" stroke="black" stroke-width="1.93637" stroke-linecap="round" stroke-linejoin="round"/>
<path d="M54.8293 51.1429C55.5933 53.2381 60.7089 52.164 64.1461 50.9107C67.5833 49.6573 67.8391 48.147 67.2765 46.6042C66.7139 45.0613 65.5459 44.0701 62.1088 45.3235C58.6716 46.5768 54.0653 49.0477 54.8293 51.1429Z" fill="#BF7657" stroke="black" stroke-width="1.93637" stroke-linecap="round" stroke-linejoin="round"/>
<path d="M55.8488 56.2366C56.6128 58.3318 61.7284 57.2578 65.1656 56.0044C68.6028 54.7511 68.8586 53.2408 68.296 51.6979C67.7334 50.155 66.5655 49.1639 63.1283 50.4172C59.6911 51.6705 55.0848 54.1414 55.8488 56.2366Z" fill="#BF7657" stroke="black" stroke-width="1.93637" stroke-linecap="round" stroke-linejoin="round"/>
<defs>
<clipPath id="clip0_1469_72293">
<rect width="20.2458" height="20.2458" fill="white" transform="matrix(0.770167 -0.637846 0.637848 0.770158 34.3789 40.0781)"/>
</clipPath>
</defs>
</svg>
