<svg width="101" height="81" viewBox="0 0 101 81" fill="none" xmlns="http://www.w3.org/2000/svg">
<path d="M100.998 58.5784V72.0384C100.998 74.1601 100.158 76.1949 98.6622 77.6952C97.1664 79.1955 95.1376 80.0384 93.0222 80.0384H0.0390625L13.0005 47.6784L13.9277 45.3684C13.9277 45.3084 13.9277 45.2384 13.9975 45.1884L14.0573 45.0184L14.1171 44.8884C14.1198 44.8517 14.1198 44.815 14.1171 44.7784C14.1213 44.7418 14.1213 44.7049 14.1171 44.6684L14.4462 44.5784L15.4432 44.3284L19.2817 43.3284L29.8403 40.6284L31.2661 40.2584L33.9581 39.5684L38.3051 40.3884L40.2394 40.7484L54.7561 43.4684L69.3127 40.6784L71.247 40.3084L75.0856 39.5684L78.0767 40.3184L79.5124 40.6784L95.2555 44.6784L100.998 58.5784Z" fill="white"/>
<path d="M100.989 58.4585V58.7685L95.3756 44.6185L79.6425 40.6385L78.2167 40.2785L75.2954 39.5385L75.2855 39.5285L71.3871 40.2785H71.3671L69.4329 40.6485L54.9361 43.4085H54.9261L40.4691 40.6985H40.4592L38.5249 40.3385L34.128 39.5085H34.1181L31.436 40.1885V40.1985L30.0103 40.5585L19.4517 43.2585L15.6032 44.2285L14.6261 44.4885L14.2871 44.5585L14.6161 44.4685L15.5932 44.2185L19.4318 43.2285L29.9903 40.5185L31.4061 40.1485H31.4161L34.1181 39.4585H34.128L38.4651 40.2685L40.3993 40.6285L54.9161 43.3385H54.9261L69.5326 40.5385L71.4668 40.1685H71.4768L75.2655 39.4385H75.3054L78.2566 40.1785L79.6923 40.5485L95.4354 44.5085H95.4654V44.5385L100.989 58.4585Z" fill="#242425"/>
<path d="M14.1578 44.8877L14.0382 45.1877C14.0382 45.2377 14.0382 45.3077 13.9684 45.3677L13.0412 47.6777L9.50167 56.5477L0.0896987 80.0377H0C3.86848 70.4077 7.0789 62.4477 9.45183 56.5277L13.0312 47.6577L13.9584 45.3577L14.098 45.0177L14.1578 44.8877Z" fill="#242425"/>
<path d="M101 62.8479V72.0379C101 74.1597 100.159 76.1945 98.6636 77.6948C97.1677 79.1951 95.1389 80.0379 93.0235 80.0379H2.16406L7.80729 65.3579L13.7197 49.9479L14.4275 48.1079L15.0557 46.4879V46.4179L15.3149 45.7579L16.5313 45.4579L18.0567 45.0679H18.2162L18.4655 45.0079L18.7048 44.9479L18.8843 44.8979L30.739 41.8979H30.8686L31.068 41.8479L32.1348 41.5779L33.7799 41.1679H33.9195L40.46 42.368L42.5238 42.7479L50.8391 44.2879L53.1423 44.6679L54.897 44.9879L56.0735 44.7679L57.3597 44.5279L67.33 42.6479L69.4038 42.2579L69.9422 42.1579L71.5375 41.8579L75.4259 41.1279H75.5555L77.4598 41.5979L78.8856 41.9479L94.3396 45.7679L94.7483 46.8279L95.6855 49.2579L97.7793 54.6579L98.0386 55.338L101 62.8479Z" fill="white"/>
<path d="M24.4577 71.5382L25.345 76.7282L21.3868 77.6482L11.1274 80.0382H2.16406L7.80726 65.3582L13.7196 49.9482L13.7296 49.9582L23.351 58.1282L26.4617 70.2682L24.4577 71.5382Z" fill="#DFE1F2"/>
<path d="M43.0722 80.0385H17.0098L30.5893 76.8785L41.0482 74.4385L43.0722 80.0385Z" fill="#F6F7FA"/>
<path d="M69.9706 74.8681L56.092 78.9181L54.6463 79.5681L53.5794 80.0381H45.2941L44.8355 79.8381L43.2402 73.8581L52.7519 71.5081L53.9583 71.2181V71.2081L54.7161 71.0281L58.5247 70.0881H58.5347L60.4689 69.6081L60.4789 69.5981H60.4889L65.6435 68.3281L69.9706 74.8681Z" fill="#F6F7FA"/>
<path d="M27.1185 76.0678L34.6161 74.4378L33.1206 69.5479L27.6569 70.8778L26.2012 71.8778L27.1185 76.0678Z" fill="#DFE1F2"/>
<path d="M25.584 59.8779L28.3059 68.8779L32.5632 67.9379L31.7955 64.4979L41.1576 62.3879L25.584 59.8779Z" fill="#DFE1F2"/>
<path d="M14.4277 48.1084L26.2226 57.5884L41.8561 60.5884L58.5264 56.4384L50.9191 44.2984L33.8499 41.1484L15.355 45.7884L14.4277 48.1084Z" fill="#F6F7FA"/>
<path d="M78.6352 80.0378H76.1327L64.9859 62.8878L64.1883 61.6578L54.9856 47.4978L54.9159 47.3878L53.2109 44.7578L54.9657 45.0778L56.1422 44.8578L57.6577 47.2278L57.7873 47.4378L65.5741 59.6378L66.3718 60.8678L78.6352 80.0378Z" fill="#F6F7FA"/>
<path d="M33.3809 65.398L36.4717 74.398L63.9698 67.398L58.8849 58.708L33.3809 65.398Z" fill="#DFE1F2"/>
<path d="M73.3012 80.0384H57.4883L58.0566 79.6084L70.9881 76.0684L73.3012 80.0384Z" fill="#DFE1F2"/>
<path d="M71.5664 41.8781L78.0471 49.0981L94.3785 45.7581L75.5944 41.1182L71.5664 41.8781Z" fill="#DFE1F2"/>
<path d="M97.8174 54.6679L85.853 58.0079L79.791 50.0079L94.8163 46.8779L97.8174 54.6679Z" fill="#DFE1F2"/>
<path d="M57.3887 44.5477L69.9712 62.6677L84.488 58.4877L69.9712 42.1777L57.3887 44.5477Z" fill="#F6F7FA"/>
<path d="M77.3691 61.5883L85.2656 59.5283L93.5909 69.5283L85.485 72.2283L77.3691 61.5883Z" fill="#DFE1F2"/>
<path d="M100.989 62.8481V67.0481L95.8149 68.7981L87.041 58.6981L98.0084 55.3481L98.0781 55.3281L100.989 62.8481Z" fill="#DFE1F2"/>
<path d="M100.999 68.3584V72.0384C100.999 74.1601 100.159 76.195 98.6633 77.6953C97.1674 79.1955 95.1386 80.0384 93.0232 80.0384H92.2455L87.041 72.8084L100.999 68.3584Z" fill="#DFE1F2"/>
<path d="M89.293 80.0376H81.2769L79.0535 76.6476L77.3785 74.0976L70.7383 63.9976L76.3316 62.3076L77.8072 64.3276L89.293 80.0376Z" fill="#DFE1F2"/>
<path d="M21.3868 77.648L11.0975 80.038H2.16406L7.80726 65.358H7.8272L18.3858 63.498L21.3868 77.648Z" fill="#DFE1F2"/>
<path d="M31.1081 41.7979V48.2778L33.3713 48.5678L39.6925 55.9579L45.1363 55.3279L47.7186 59.0879L41.8361 60.5579L26.2027 57.5579L14.4277 48.0779L15.3351 45.7278L31.1081 41.7979Z" fill="#DFE1F2"/>
<path d="M64.1777 43.3277L73.0613 56.3277L80.7085 54.2477L69.9705 42.1777L64.1777 43.3277Z" fill="#DFE1F2"/>
<path d="M90.2514 56.7581L87.041 51.7581L95.7252 49.2881L97.8189 54.6881L90.2514 56.7581Z" fill="#F6F7FA"/>
<path d="M87.0204 80.0377H81.2775L79.0541 76.6677V76.6477L77.3691 74.0977H77.3791L78.745 73.6177L81.5766 72.6377L87.0204 80.0377Z" fill="#F6F7FA"/>
<path d="M15.0764 46.418V46.488L14.4583 48.118L14.2688 48.618L13.7504 49.958L11.1282 56.808L7.84795 65.358L2.2147 80.038H2.125C5.82398 70.448 8.86493 62.568 11.0983 56.778C12.4742 53.228 13.531 50.468 14.2588 48.598L15.0764 46.478C15.0746 46.458 15.0746 46.4379 15.0764 46.418Z" fill="#242425"/>
<path d="M101 62.6684V63.0384L98.0085 55.3284C97.9188 55.0984 97.829 54.8684 97.7493 54.6484L95.6555 49.2484C95.3365 48.4284 95.0274 47.6184 94.7183 46.8084C94.5787 46.4684 94.4491 46.1284 94.3195 45.8084H94.2298L78.8954 42.0184L77.4697 41.6684L75.5653 41.1984H75.4657L71.6072 41.9284L70.0119 42.2284L69.3738 42.3484L67.3 42.7384L65.9739 42.9884H65.8543L57.4293 44.5684L56.1432 44.8084L54.9467 45.0384L53.2418 44.7184L50.9686 44.2984L42.6933 42.7684L40.6294 42.3884L34.039 41.1684H33.8795L32.2643 41.5684L31.1775 41.8384L30.8585 41.9184L20.2201 44.5784L16.6309 45.4684L18.1563 45.0784H18.3158L18.5651 45.0184L18.8044 44.9584L18.9838 44.9084L19.1733 44.8584L20.1703 44.5984L30.7987 41.9184L32.2045 41.5684L33.8496 41.1584H33.9891L40.4898 42.3484L42.5437 42.7284L54.9268 45.0084L67.3997 42.6684L69.4735 42.2784L75.4557 41.1484H75.5753L77.4996 41.6184L78.9253 41.9784L94.3693 45.7784C96.5229 51.1684 98.7264 56.8284 101 62.6684Z" fill="#242425"/>
<g opacity="0.2">
<path opacity="0.2" d="M54.9376 43.3678V43.4078L54.9276 44.9778V45.0478L54.9077 47.3578V47.4878L54.8778 50.6178L54.8279 57.3278L54.808 59.7678L54.7282 69.7578L54.7183 71.0278L54.7083 71.6978V72.1178L54.6485 79.5678L54.6385 80.0378H30.291L30.5901 76.8778L30.7397 75.2778L31.2382 70.0078L31.4177 68.1478L32.0956 60.9078L32.305 58.7478L33.2721 48.5578L33.5314 45.8078V45.7978L33.7108 43.8478V43.8378H33.7208V43.8278L33.9701 41.1778V41.1278L34.1296 39.5078V39.4678L38.4766 40.2878H38.4866L40.4208 40.6478L54.9376 43.3678Z" fill="black"/>
</g>
<path d="M55.1358 0.0479756C50.1511 0.165435 45.2929 1.64546 41.0852 4.32846C36.8774 7.01147 33.4797 10.7957 31.2585 15.273C29.0373 19.7502 28.0768 24.7507 28.4806 29.7352C28.8844 34.7197 30.6373 39.4991 33.5501 43.558L33.8193 43.918V43.968L53.2215 70.438C53.6179 70.977 54.1376 71.4125 54.737 71.708C55.3362 71.9996 55.9952 72.1469 56.6613 72.138C57.3296 72.1225 57.9844 71.9465 58.5708 71.6245C59.1572 71.3026 59.658 70.8443 60.0312 70.288L77.569 44.148C80.8891 39.078 83.1623 33.768 83.1623 27.518C83.166 23.8553 82.4389 20.2289 81.0237 16.8524C79.6085 13.4759 77.534 10.4177 74.9222 7.85776C72.3104 5.29784 69.2142 3.28804 65.8161 1.94678C62.4179 0.605516 58.7865 -0.0400909 55.1358 0.0479756ZM55.7839 47.498C51.0183 47.4974 46.4003 45.8396 42.7168 42.8069C39.0333 39.7743 36.5122 35.5544 35.5829 30.8664C34.6537 26.1784 35.3739 21.3122 37.6208 17.0971C39.8677 12.8819 43.5023 9.57856 47.9053 7.74985C52.3083 5.92114 57.2073 5.68023 61.7675 7.06815C66.3278 8.45607 70.2671 11.387 72.9144 15.3614C75.5616 19.3359 76.753 24.108 76.2855 28.8647C75.818 33.6215 73.7205 38.0684 70.3505 41.448C68.4375 43.3664 66.1665 44.888 63.6671 45.9261C61.1678 46.9642 58.4891 47.4983 55.7839 47.498Z" fill="#868AC3"/>
<g opacity="0.3">
<path opacity="0.3" d="M55.1344 0.0477339C50.1512 0.168608 45.2952 1.6507 41.0896 4.33442C36.8839 7.01813 33.4879 10.8017 31.2673 15.2778C29.0467 19.7538 28.0857 24.7527 28.4877 29.7359C28.8897 34.7192 30.6395 39.498 33.5487 43.5577L33.8179 43.9177V43.9677L53.2102 70.4377C53.6075 70.9774 54.1282 71.4135 54.7285 71.7093C55.3288 72.0051 55.9912 72.1521 56.6599 72.1377C57.3258 72.1202 57.9782 71.9455 58.5642 71.6277C59.1518 71.3078 59.6518 70.8476 60.0199 70.2877L77.5676 44.1477C80.8877 39.0777 83.1609 33.7677 83.1609 27.5177C83.1633 23.8554 82.4352 20.2297 81.0195 16.8538C79.6039 13.478 77.5293 10.4202 74.9178 7.8606C72.3063 5.30096 69.2107 3.2911 65.8131 1.94935C62.4156 0.607589 58.7848 -0.0389562 55.1344 0.0477339ZM55.7924 47.4977C51.0264 47.4995 46.4073 45.8436 42.7222 42.8122C39.037 39.7809 36.514 35.5616 35.583 30.8735C34.652 26.1854 35.3706 21.3185 37.6165 17.1023C39.8623 12.8861 43.4964 9.58147 47.8993 7.75153C52.3023 5.92159 57.2017 5.67959 61.7626 7.06681C66.3235 8.45402 70.2636 11.3846 72.9116 15.3591C75.5596 19.3336 76.7515 24.1061 76.2843 28.8633C75.817 33.6204 73.7195 38.0679 70.3491 41.4477C66.4881 45.3196 61.2523 47.4957 55.7924 47.4977Z" fill="black"/>
</g>
<path d="M53.4698 0.04843C48.4851 0.16589 43.6269 1.64591 39.4192 4.32892C35.2114 7.01192 31.8137 10.7961 29.5925 15.2734C27.3712 19.7507 26.4108 24.7512 26.8146 29.7357C27.2184 34.7202 28.9712 39.4996 31.884 43.5584L32.1433 43.9184V43.9684L51.5455 70.4384C51.9705 70.9715 52.5178 71.3935 53.1407 71.6684C53.7439 71.9592 54.4058 72.1063 55.075 72.0984C55.7433 72.083 56.3982 71.9069 56.9846 71.585C57.571 71.2631 58.0718 70.8047 58.445 70.2484L75.9827 44.1084C79.3028 39.0384 81.5761 33.7284 81.5761 27.4784C81.5785 23.8135 80.8495 20.1852 79.432 16.8074C78.0145 13.4295 75.9372 10.3704 73.3225 7.81033C70.7077 5.25028 67.6086 3.24108 64.2076 1.90115C60.8066 0.561221 57.1725 -0.0823338 53.5196 0.00842149L53.4698 0.04843ZM54.1178 47.4984C49.3576 47.496 44.7454 45.8384 41.0669 42.808C37.3884 39.7776 34.8711 35.5619 33.9439 30.8789C33.0166 26.1959 33.7368 21.3353 35.9816 17.1251C38.2264 12.9149 41.857 9.61545 46.2551 7.78879C50.6532 5.96212 55.5466 5.72124 60.1019 7.10715C64.6572 8.49306 68.5926 11.42 71.2377 15.3895C73.8828 19.359 75.074 24.1255 74.6085 28.877C74.1429 33.6286 72.0494 38.0713 68.6845 41.4484C64.8259 45.3179 59.5942 47.4937 54.1378 47.4984H54.1178Z" fill="#868AC3"/>
</svg>
