<svg width="146" height="124" viewBox="0 0 146 124" fill="none" xmlns="http://www.w3.org/2000/svg">
<g clip-path="url(#clip0)">
<path fill-rule="evenodd" clip-rule="evenodd" d="M44.2 111C45 109.5 44.6 107.7 43.2 106.8C28.5 97.2 18.9 80.6 18.9 61.8C18.9 43 28.6 26.4 43.2 16.8C44.6 15.9 45 14 44.2 12.5L38 1.70001C37.1 0.100007 35 -0.399993 33.5 0.600007C13.3 13.6 0 36.1 0 61.8C0 87.5 13.3 110 33.5 123C35 124 37.1 123.5 38 121.9L44.2 111Z" fill="white"/>
<path fill-rule="evenodd" clip-rule="evenodd" d="M107.4 1.69999L101.1 12.5C100.3 14 100.7 15.8 102.1 16.7C116.8 26.3 126.4 42.9 126.4 61.7C126.4 80.5 116.7 97.1 102.1 106.7C100.7 107.6 100.3 109.5 101.1 110.9L107.4 121.7C108.3 123.3 110.4 123.8 111.9 122.8C132 109.9 145.4 87.3 145.4 61.6C145.4 35.9 132.1 13.4 111.9 0.399993C110.3 -0.400007 108.3 0.0999933 107.4 1.69999Z" fill="white"/>
</g>
<defs>
<clipPath id="clip0">
<rect width="145.4" height="123.5" fill="white"/>
</clipPath>
</defs>
</svg>
