<?xml version="1.0" encoding="utf-8"?>
<!-- Generator: Adobe Illustrator 24.3.0, SVG Export Plug-In . SVG Version: 6.00 Build 0)  -->
<svg version="1.1" id="Layer_1" xmlns="http://www.w3.org/2000/svg" xmlns:xlink="http://www.w3.org/1999/xlink" x="0px" y="0px"
	 viewBox="0 0 490 125" style="enable-background:new 0 0 490 125;" xml:space="preserve">
<style type="text/css">
	.st0{fill-rule:evenodd;clip-rule:evenodd;fill:#FFFFFF;}
	.st1{filter:url(#Adobe_OpacityMaskFilter);}
	.st2{mask:url(#mask-2_1_);fill-rule:evenodd;clip-rule:evenodd;fill:#FFFFFF;}
	.st3{filter:url(#Adobe_OpacityMaskFilter_1_);}
	.st4{mask:url(#mask-4_1_);fill-rule:evenodd;clip-rule:evenodd;fill:#276EF1;}
	.st5{fill-rule:evenodd;clip-rule:evenodd;fill:#276EF1;}
</style>
<desc>Created with Sketch.</desc>
<g id="Brand-Guideline">
	<g id="Rationale" transform="translate(-720.000000, -450.000000)">
		<g id="Logo_Hori" transform="translate(720.000000, 450.000000)">
			<path id="Fill-1" class="st0" d="M211.3,17.7c0-4.9-3.8-8.7-8.7-8.7c-4.9,0-8.7,3.8-8.7,8.7s3.8,8.7,8.7,8.7
				C207.6,26.4,211.3,22.6,211.3,17.7 M189,17.7c0-7.6,5.9-13.3,13.7-13.3c7.8,0,13.7,5.7,13.7,13.3c0,7.6-5.9,13.3-13.7,13.3
				C194.9,31,189,25.3,189,17.7"/>
			<path id="Fill-3" class="st0" d="M239.7,13c0-2.4-1.5-4-4.4-4h-4.5c-0.5,0-0.8,0.4-0.8,0.8v6.3c0,0.5,0.4,0.8,0.8,0.8h4.5
				C238.1,17,239.7,15.5,239.7,13 M244.6,13c0,4.7-3.4,8.2-8.6,8.2h-5.2c-0.5,0-0.8,0.4-0.8,0.8v7.8c0,0.5-0.4,0.8-0.8,0.8h-3.4
				c-0.5,0-0.8-0.4-0.8-0.8V5.5c0-0.5,0.4-0.8,0.8-0.8H236C241.2,4.7,244.6,8.4,244.6,13"/>
			<path id="Fill-5" class="st0" d="M257.8,10v4.6c0,0.5,0.4,0.8,0.8,0.8h7.5c0.5,0,0.8,0.4,0.8,0.8v2.7c0,0.5-0.4,0.8-0.8,0.8h-7.5
				c-0.5,0-0.8,0.4-0.8,0.8v4.6c0,0.5,0.4,0.8,0.8,0.8h8.8c0.5,0,0.8,0.4,0.8,0.8v2.8c0,0.5-0.4,0.8-0.8,0.8h-13.8
				c-0.5,0-0.8-0.4-0.8-0.8V5.5c0-0.5,0.4-0.8,0.8-0.8h13.8c0.5,0,0.8,0.4,0.8,0.8v2.8c0,0.5-0.4,0.8-0.8,0.8h-8.8
				C258.2,9.2,257.8,9.6,257.8,10"/>
			<path id="Fill-7" class="st0" d="M301.9,5.5v24.3c0,0.5-0.4,0.8-0.8,0.8h-3.5c-0.3,0-0.5-0.1-0.7-0.3L283.8,14
				c-0.5-0.6-1.5-0.3-1.5,0.5v15.4c0,0.5-0.4,0.8-0.8,0.8h-3.3c-0.5,0-0.8-0.4-0.8-0.8V5.5c0-0.5,0.4-0.8,0.8-0.8h3.5
				c0.3,0,0.5,0.1,0.7,0.3l13.1,16.3c0.5,0.6,1.5,0.3,1.5-0.5V5.5c0-0.5,0.4-0.8,0.8-0.8h3.3C301.5,4.7,301.9,5.1,301.9,5.5"/>
			<path id="Fill-9" class="st0" d="M216.4,62.5c0,7.6-5.9,13.4-13.7,13.4c-7.8,0-13.7-5.7-13.7-13.3s5.9-13.3,13.7-13.3
				c4.5,0,8.4,1.9,10.8,5c0.3,0.4,0.2,1-0.2,1.3l-2.9,1.6c-0.3,0.2-0.8,0.1-1-0.2c-1.6-1.8-3.9-3-6.6-3c-4.9,0-8.6,3.7-8.6,8.8
				c0,4.8,3.4,8.5,8.7,8.5c3.8,0,6.7-1.9,7.9-4.9c0.2-0.5-0.2-1.2-0.8-1.2h-4.8c-0.5,0-0.8-0.4-0.8-0.8v-2.5c0-0.5,0.4-0.8,0.8-0.8
				h10.4c0.4,0,0.8,0.3,0.8,0.8C216.4,61.9,216.4,62.2,216.4,62.5"/>
			<path id="Fill-11" class="st0" d="M245.2,62.5c0-4.9-3.8-8.7-8.7-8.7c-4.9,0-8.7,3.8-8.7,8.7s3.8,8.7,8.7,8.7
				C241.4,71.2,245.2,67.4,245.2,62.5 M222.8,62.5c0-7.6,5.9-13.3,13.7-13.3c7.8,0,13.7,5.7,13.7,13.3s-5.9,13.3-13.7,13.3
				C228.7,75.8,222.8,70.1,222.8,62.5"/>
			<path id="Fill-13" class="st0" d="M279.1,50.6L269.9,75c-0.1,0.3-0.4,0.5-0.8,0.5h-4c-0.4,0-0.7-0.2-0.8-0.5l-9.2-24.3
				c-0.2-0.6,0.2-1.1,0.8-1.1h3.5c0.4,0,0.7,0.2,0.8,0.6l6.1,17.1c0.3,0.7,1.3,0.7,1.6,0l6.1-17.1c0.1-0.3,0.4-0.6,0.8-0.6h3.5
				C278.9,49.5,279.3,50.1,279.1,50.6"/>
			<path id="Fill-15" class="st0" d="M292.2,54.8v4.6c0,0.5,0.4,0.8,0.8,0.8h7.5c0.5,0,0.8,0.4,0.8,0.8v2.7c0,0.5-0.4,0.8-0.8,0.8
				H293c-0.5,0-0.8,0.4-0.8,0.8v4.6c0,0.5,0.4,0.8,0.8,0.8h8.8c0.5,0,0.8,0.4,0.8,0.8v2.8c0,0.5-0.4,0.8-0.8,0.8H288
				c-0.5,0-0.8-0.4-0.8-0.8V50.3c0-0.5,0.4-0.8,0.8-0.8h13.8c0.5,0,0.8,0.4,0.8,0.8v2.8c0,0.5-0.4,0.8-0.8,0.8H293
				C292.6,54,292.2,54.4,292.2,54.8"/>
			<path id="Fill-17" class="st0" d="M316.8,59.6c0,0.5,0.4,0.8,0.8,0.8h3.9c2.4,0,3.7-1.2,3.7-3.3c0-2-1.3-3.4-3.7-3.4h-3.9
				c-0.5,0-0.8,0.4-0.8,0.8V59.6z M320.5,64.5h-2.9c-0.5,0-0.8,0.4-0.8,0.8v9.3c0,0.5-0.4,0.8-0.8,0.8h-3.4c-0.5,0-0.8-0.4-0.8-0.8
				V50.3c0-0.5,0.4-0.8,0.8-0.8h9.3c5.3,0,8.3,3.5,8.3,7.7c0,2.8-1.5,5.1-3.7,6.3c-0.4,0.2-0.6,0.8-0.3,1.2l5.6,9.5
				c0.3,0.6-0.1,1.3-0.7,1.3h-3.5c-0.3,0-0.6-0.2-0.7-0.4L321.3,65C321.1,64.7,320.8,64.5,320.5,64.5z"/>
			<path id="Fill-19" class="st0" d="M364.7,50.3v24.3c0,0.5-0.4,0.8-0.8,0.8h-3.5c-0.3,0-0.5-0.1-0.7-0.3l-13.1-16.4
				c-0.5-0.6-1.5-0.3-1.5,0.5v15.4c0,0.5-0.4,0.8-0.8,0.8H341c-0.5,0-0.8-0.4-0.8-0.8V50.3c0-0.5,0.4-0.8,0.8-0.8h3.5
				c0.3,0,0.5,0.1,0.7,0.3l13.1,16.3c0.5,0.6,1.5,0.3,1.5-0.5V50.3c0-0.5,0.4-0.8,0.8-0.8h3.3C364.3,49.5,364.7,49.9,364.7,50.3"/>
			<path id="Fill-21" class="st0" d="M403.4,50.3v24.3c0,0.5-0.4,0.8-0.8,0.8h-3.4c-0.5,0-0.8-0.4-0.8-0.8V60.6
				c0-0.9-1.3-1.2-1.6-0.3l-6,14.7c-0.1,0.3-0.4,0.5-0.8,0.5h-1.5c-0.3,0-0.7-0.2-0.8-0.5l-6-14.7c-0.3-0.9-1.6-0.6-1.6,0.3v14.1
				c0,0.5-0.4,0.8-0.8,0.8h-3.4c-0.5,0-0.8-0.4-0.8-0.8V50.3c0-0.5,0.4-0.8,0.8-0.8h5.4c0.3,0,0.6,0.2,0.8,0.5l6.4,15.4
				c0.3,0.7,1.3,0.7,1.6,0l6.4-15.4c0.1-0.3,0.4-0.5,0.8-0.5h5.4C403,49.5,403.4,49.9,403.4,50.3"/>
			<path id="Fill-23" class="st0" d="M418.7,54.8v4.6c0,0.5,0.4,0.8,0.8,0.8h7.5c0.5,0,0.8,0.4,0.8,0.8v2.7c0,0.5-0.4,0.8-0.8,0.8
				h-7.5c-0.5,0-0.8,0.4-0.8,0.8v4.6c0,0.5,0.4,0.8,0.8,0.8h8.8c0.5,0,0.8,0.4,0.8,0.8v2.8c0,0.5-0.4,0.8-0.8,0.8h-13.8
				c-0.5,0-0.8-0.4-0.8-0.8V50.3c0-0.5,0.4-0.8,0.8-0.8h13.8c0.5,0,0.8,0.4,0.8,0.8v2.8c0,0.5-0.4,0.8-0.8,0.8h-8.8
				C419,54,418.7,54.4,418.7,54.8"/>
			<path id="Fill-25" class="st0" d="M462.8,50.3v24.3c0,0.5-0.4,0.8-0.8,0.8h-3.5c-0.3,0-0.5-0.1-0.7-0.3l-13.1-16.4
				c-0.5-0.6-1.5-0.3-1.5,0.5v15.4c0,0.5-0.4,0.8-0.8,0.8h-3.3c-0.5,0-0.8-0.4-0.8-0.8V50.3c0-0.5,0.4-0.8,0.8-0.8h3.5
				c0.3,0,0.5,0.1,0.7,0.3l13.1,16.3c0.5,0.6,1.5,0.3,1.5-0.5V50.3c0-0.5,0.4-0.8,0.8-0.8h3.3C462.4,49.5,462.8,49.9,462.8,50.3"/>
			<g id="Group-29" transform="translate(469.476744, 49.418605)">
				<g id="Clip-28">
				</g>
				<defs>
					<filter id="Adobe_OpacityMaskFilter" filterUnits="userSpaceOnUse" x="1.1" y="0.1" width="18.4" height="26">
						<feColorMatrix  type="matrix" values="1 0 0 0 0  0 1 0 0 0  0 0 1 0 0  0 0 0 1 0"/>
					</filter>
				</defs>
				<mask maskUnits="userSpaceOnUse" x="1.1" y="0.1" width="18.4" height="26" id="mask-2_1_">
					<g class="st1">
						<polygon id="path-1_1_" class="st0" points="1.1,0.1 19.6,0.1 19.6,26.1 1.1,26.1 						"/>
					</g>
				</mask>
				<path id="Fill-27" class="st2" d="M18.7,4.6h-5c-0.5,0-0.8,0.4-0.8,0.8v19.8c0,0.5-0.4,0.8-0.8,0.8H8.7c-0.5,0-0.8-0.4-0.8-0.8
					V5.4c0-0.5-0.4-0.8-0.8-0.8H2c-0.5,0-0.8-0.4-0.8-0.8V0.9c0-0.5,0.4-0.8,0.8-0.8h16.7c0.5,0,0.8,0.4,0.8,0.8v2.8
					C19.6,4.2,19.2,4.6,18.7,4.6"/>
			</g>
			<path id="Fill-30" class="st0" d="M205.5,102.6c0-2.4-1.5-4-4.4-4h-4.5c-0.5,0-0.8,0.4-0.8,0.8v6.3c0,0.5,0.4,0.8,0.8,0.8h4.5
				C204,106.6,205.5,105.1,205.5,102.6 M210.4,102.7c0,4.7-3.4,8.2-8.6,8.2h-5.2c-0.5,0-0.8,0.4-0.8,0.8v7.8c0,0.5-0.4,0.8-0.8,0.8
				h-3.4c-0.5,0-0.8-0.4-0.8-0.8V95.2c0-0.5,0.4-0.8,0.8-0.8h10.3C207.1,94.3,210.4,98,210.4,102.7"/>
			<path id="Fill-32" class="st0" d="M223.6,104.4c0,0.5,0.4,0.8,0.8,0.8h3.9c2.4,0,3.7-1.2,3.7-3.3c0-2-1.3-3.4-3.7-3.4h-3.9
				c-0.5,0-0.8,0.4-0.8,0.8V104.4z M227.4,109.3h-2.9c-0.5,0-0.8,0.4-0.8,0.8v9.3c0,0.5-0.4,0.8-0.8,0.8h-3.4
				c-0.5,0-0.8-0.4-0.8-0.8V95.2c0-0.5,0.4-0.8,0.8-0.8h9.3c5.3,0,8.3,3.5,8.3,7.7c0,2.8-1.5,5.1-3.7,6.3c-0.4,0.2-0.6,0.8-0.3,1.2
				l5.6,9.5c0.3,0.6-0.1,1.3-0.7,1.3h-3.5c-0.3,0-0.6-0.2-0.7-0.4l-5.5-10.1C228,109.5,227.7,109.3,227.4,109.3z"/>
			<path id="Fill-34" class="st0" d="M266.9,107.3c0-4.9-3.8-8.7-8.7-8.7c-4.9,0-8.7,3.8-8.7,8.7s3.8,8.7,8.7,8.7
				C263.1,116,266.9,112.2,266.9,107.3 M244.5,107.3c0-7.6,5.9-13.3,13.7-13.3c7.8,0,13.7,5.7,13.7,13.3c0,7.6-5.9,13.3-13.7,13.3
				C250.4,120.6,244.5,114.9,244.5,107.3"/>
			<path id="Fill-36" class="st0" d="M289.1,115.8c5.5,0,8.2-3,8.2-8.5c0-5.5-2.7-8.5-8.2-8.5h-2.8c-0.5,0-0.8,0.4-0.8,0.8V115
				c0,0.5,0.4,0.8,0.8,0.8H289.1z M280.4,95.2c0-0.5,0.4-0.8,0.8-0.8h8.1c8.6,0,13.2,5.1,13.2,13c0,7.9-4.6,13-13.2,13h-8.1
				c-0.5,0-0.8-0.4-0.8-0.8V95.2z"/>
			<path id="Fill-38" class="st0" d="M310.6,111.3V95.2c0-0.5,0.4-0.8,0.8-0.8h3.4c0.5,0,0.8,0.4,0.8,0.8v15.4
				c0,4.1,2.4,5.7,5.5,5.7c3.1,0,5.5-1.5,5.5-5.7V95.2c0-0.5,0.4-0.8,0.8-0.8h3.4c0.5,0,0.8,0.4,0.8,0.8v16.1
				c0,6.2-4.6,9.3-10.6,9.3C315.2,120.6,310.6,117.5,310.6,111.3"/>
			<path id="Fill-40" class="st0" d="M339.7,107.3c0-7.6,5.9-13.3,13.7-13.3c3.5,0,6.9,1.3,9.3,3.4c0.4,0.3,0.4,0.9,0,1.3l-2.3,2.2
				c-0.3,0.3-0.8,0.3-1.1,0c-1.5-1.4-3.6-2.2-5.8-2.2c-4.9,0-8.7,3.8-8.7,8.7c0,4.9,3.8,8.7,8.7,8.7c2.2,0,4.3-0.8,5.8-2.2
				c0.3-0.3,0.8-0.3,1.1,0l2.3,2.2c0.4,0.3,0.4,0.9,0,1.3c-2.4,2.1-5.8,3.4-9.3,3.4C345.6,120.6,339.7,114.9,339.7,107.3"/>
			<path id="Fill-42" class="st0" d="M386.4,98.8h-5c-0.5,0-0.8,0.4-0.8,0.8v19.8c0,0.5-0.4,0.8-0.8,0.8h-3.3
				c-0.5,0-0.8-0.4-0.8-0.8V99.6c0-0.5-0.4-0.8-0.8-0.8h-5c-0.5,0-0.8-0.4-0.8-0.8v-2.8c0-0.5,0.4-0.8,0.8-0.8h16.7
				c0.5,0,0.8,0.4,0.8,0.8v2.8C387.2,98.4,386.8,98.8,386.4,98.8"/>
			<path id="Fill-44" class="st0" d="M393.3,115.9l1.8-2.3c0.3-0.4,0.9-0.4,1.2-0.1c1.7,1.7,4.2,2.8,6.3,2.8c2,0,3.5-1,3.5-2.9
				c0-2.3-2.3-3.2-5.3-4.5c-3.4-1.5-7-3.2-7-7.8c0-4.6,3.6-7.2,8-7.2c2.9,0,5.7,1.1,8,2.9c0.3,0.3,0.4,0.8,0.1,1.1l-1.6,2.2
				c-0.3,0.4-0.8,0.5-1.2,0.2c-1.7-1.4-3.7-2.2-5.4-2.2c-1.6,0-2.9,0.8-2.9,2.5c0,2.1,2.2,2.9,5.2,4.2c3.4,1.5,7.1,3.4,7.1,8.2
				c0,5-3.9,7.5-8.6,7.5c-3.3,0-6.8-1.3-9.2-3.6C393.1,116.8,393,116.2,393.3,115.9"/>
			<g id="Group-48">
				<g id="Clip-47">
				</g>
				<defs>
					<filter id="Adobe_OpacityMaskFilter_1_" filterUnits="userSpaceOnUse" x="0" y="0.8" width="44.7" height="123.4">
						<feColorMatrix  type="matrix" values="1 0 0 0 0  0 1 0 0 0  0 0 1 0 0  0 0 0 1 0"/>
					</filter>
				</defs>
				<mask maskUnits="userSpaceOnUse" x="0" y="0.8" width="44.7" height="123.4" id="mask-4_1_">
					<g class="st3">
						<polygon id="path-3_1_" class="st0" points="0,0.8 44.7,0.8 44.7,124.2 0,124.2 						"/>
					</g>
				</mask>
				<path id="Fill-46" class="st4" d="M44.2,111.7c0.8-1.5,0.4-3.3-1-4.2c-14.7-9.6-24.3-26.2-24.3-45c0-18.8,9.7-35.4,24.3-45
					c1.4-0.9,1.8-2.8,1-4.3L38,2.4c-0.9-1.6-3-2.1-4.5-1.1C13.3,14.3,0,36.8,0,62.5c0,25.7,13.3,48.2,33.5,61.2
					c1.5,1,3.6,0.5,4.5-1.1L44.2,111.7z"/>
			</g>
			<path id="Fill-49" class="st5" d="M107.4,2.4l-6.3,10.8c-0.8,1.5-0.4,3.3,1,4.2c14.7,9.6,24.3,26.2,24.3,45
				c0,18.8-9.7,35.4-24.3,45c-1.4,0.9-1.8,2.8-1,4.2l6.3,10.8c0.9,1.6,3,2.1,4.5,1.1c20.1-12.9,33.5-35.5,33.5-61.2
				c0-25.7-13.3-48.2-33.5-61.2C110.3,0.3,108.3,0.8,107.4,2.4"/>
		</g>
	</g>
</g>
</svg>
