<svg width="14" height="14" viewBox="0 0 14 14" fill="#2F3476" xmlns="http://www.w3.org/2000/svg">
<path d="M6.665 0C2.98992 0 0 2.98992 0 6.665C0 10.3401 2.98992 13.33 6.665 13.33C10.3401 13.33 13.33 10.3401 13.33 6.665C13.33 2.98992 10.3401 0 6.665 0ZM7.3315 10.664H5.9985V9.331H7.3315V10.664ZM7.982 7.40815C7.85137 7.51345 7.7254 7.6141 7.62543 7.71407C7.35349 7.98534 7.33217 8.23194 7.3315 8.24261V8.33125H5.9985V8.21994C5.9985 8.1413 6.01783 7.43547 6.68233 6.77097C6.8123 6.64101 6.97359 6.50904 7.14288 6.37174C7.63209 5.97517 7.95334 5.68591 7.95334 5.28734C7.9456 4.95064 7.80638 4.63034 7.56548 4.39498C7.32458 4.15962 7.00113 4.02789 6.66434 4.02797C6.32755 4.02806 6.00417 4.15996 5.76339 4.39545C5.52261 4.63093 5.38356 4.9513 5.37599 5.28801H4.04299C4.04299 3.84237 5.21936 2.666 6.665 2.666C8.11064 2.666 9.28701 3.84237 9.28701 5.28801C9.28701 6.35241 8.50121 6.98759 7.982 7.40815Z" fill="#2F3476"/>
</svg>
