<svg width="174" height="40" viewBox="0 0 174 40" fill="none" xmlns="http://www.w3.org/2000/svg">
<path d="M164.704 16.7693C164.24 17.7335 163.778 18.6977 163.317 19.6619C162.489 21.3904 161.657 23.1189 160.843 24.854C160.784 25.0157 160.672 25.1522 160.525 25.2405C160.378 25.3288 160.205 25.3636 160.035 25.339C159.304 25.3103 158.571 25.3015 157.84 25.339C157.384 25.3655 157.195 25.1318 157.024 24.7746C155.84 22.2862 154.651 19.7986 153.457 17.3117C153.372 17.1149 153.232 16.9476 153.053 16.8311C153.001 17.0139 152.958 17.1994 152.925 17.3866C152.658 19.6002 152.393 21.8144 152.133 24.0294C152.019 24.9929 151.889 25.9541 151.799 26.9176C151.755 27.3894 151.58 27.579 151.079 27.5525C150.039 27.5106 148.996 27.5128 147.956 27.5525C147.442 27.5702 147.273 27.4158 147.343 26.9021C147.532 25.544 147.688 24.1815 147.857 22.819C148.127 20.6254 148.393 18.4295 148.667 16.2336C148.922 14.1832 149.185 12.135 149.442 10.0847C149.497 9.64373 149.541 9.20279 149.578 8.77508C149.611 8.40469 149.771 8.22611 150.173 8.23713C151.051 8.25918 151.929 8.25477 152.807 8.23713C152.959 8.22151 153.113 8.25987 153.24 8.3456C153.368 8.43134 153.461 8.55906 153.505 8.70673C155.16 12.2872 156.827 15.8625 158.505 19.4326C158.632 19.6631 158.775 19.8841 158.933 20.094C159.109 19.8806 159.266 19.6519 159.401 19.4106C161.038 15.8639 162.666 12.3114 164.283 8.75303C164.339 8.5815 164.453 8.43519 164.605 8.33967C164.758 8.24415 164.939 8.20552 165.117 8.23052C165.995 8.26579 166.873 8.25256 167.751 8.23052C167.823 8.21793 167.896 8.22166 167.966 8.24141C168.037 8.26117 168.101 8.29645 168.156 8.34467C168.211 8.39289 168.254 8.45282 168.283 8.52005C168.311 8.58729 168.325 8.66012 168.322 8.73319C168.553 10.6954 168.787 12.6561 169.024 14.6153C169.283 16.7554 169.543 18.8969 169.803 21.0398C170.048 23.0344 170.297 25.0303 170.55 27.0278C170.598 27.4114 170.471 27.5481 170.078 27.5415C168.945 27.5217 167.812 27.5195 166.68 27.5415C166.276 27.5415 166.127 27.3916 166.087 27.0146C165.918 25.4514 165.734 23.8905 165.554 22.3274C165.365 20.6739 165.174 19.0211 164.981 17.369C164.959 17.175 164.904 16.9832 164.864 16.7892L164.704 16.7693Z" fill="#2F3476"/>
<path d="M90.1406 17.8738C90.1406 14.8909 90.1516 11.9057 90.1406 8.92274C90.1406 8.40243 90.2767 8.22826 90.8123 8.23487C93.2269 8.26353 95.6415 8.20401 98.0561 8.26353C101.529 8.34952 104.09 9.94792 105.568 13.1139C106.509 15.1356 106.731 17.3028 106.446 19.5075C106.191 21.5314 105.511 23.3746 104.119 24.9068C103.399 25.7056 102.524 26.3478 101.547 26.7937C100.57 27.2396 99.5129 27.4799 98.4403 27.4996C95.8303 27.601 93.2138 27.5304 90.6016 27.5503C90.1626 27.5503 90.1472 27.3166 90.1494 26.9903C90.1465 23.9507 90.1436 20.9119 90.1406 17.8738ZM96.5064 11.8969L96.4954 11.9895C96.0015 11.9895 95.5076 11.9895 95.0159 11.9895C94.6449 11.9895 94.4869 12.1372 94.4891 12.5098C94.4891 16.0814 94.4891 19.6516 94.4891 23.2202C94.4891 23.6281 94.6625 23.7758 95.0489 23.7714C95.9993 23.7582 96.952 23.7714 97.9025 23.7538C99.439 23.7075 100.556 22.9513 101.263 21.6395C102.499 19.3488 102.497 16.9721 101.483 14.6087C101.011 13.5063 100.236 12.5803 99.0373 12.243C98.2185 12.0115 97.3449 12.0027 96.4954 11.8969H96.5064Z" fill="#2F3476"/>
<path d="M52.1445 27.5062V8.29885C52.3104 8.27333 52.4774 8.25641 52.645 8.24814C55.2593 8.24814 57.8737 8.22609 60.4859 8.26357C63.5787 8.30767 65.8287 10.3514 66.4126 13.4027C66.9767 16.4122 65.0143 19.5539 62.4614 20.3255C62.0224 20.4556 62.1102 20.6937 62.3187 20.9869C63.5773 22.7624 64.8306 24.5402 66.0789 26.3201C66.327 26.675 66.5684 27.0344 66.8779 27.4886C66.6013 27.5128 66.4389 27.5415 66.2589 27.5415C64.9792 27.5415 63.6994 27.5283 62.4219 27.5415C62.2518 27.5534 62.082 27.5154 61.9331 27.432C61.7842 27.3486 61.6627 27.2235 61.5834 27.0719C60.3176 25.1082 59.04 23.149 57.7508 21.1942C57.6213 20.9868 57.4242 20.831 57.1932 20.7532C56.6115 20.6253 56.4798 20.7532 56.4798 21.3573C56.4798 23.2247 56.4645 25.0921 56.4798 26.9572C56.4798 27.418 56.3371 27.5591 55.8849 27.5459C54.8269 27.5172 53.7667 27.5459 52.7065 27.5459C52.5309 27.5415 52.3531 27.5194 52.1445 27.5062ZM58.3544 17.294V17.272C58.8285 17.272 59.3049 17.294 59.779 17.272C60.388 17.2477 60.9669 16.9993 61.4053 16.574C61.8437 16.1487 62.111 15.5763 62.1563 14.9659C62.2968 13.7136 61.4824 12.3753 60.2751 12.1791C59.1512 11.9983 57.99 12.0358 56.8442 12.0226C56.7235 12.0226 56.4974 12.3335 56.493 12.5032C56.4644 13.9473 56.493 15.3936 56.4732 16.8377C56.4732 17.164 56.6071 17.3051 56.9298 17.3006C57.4039 17.2874 57.8803 17.294 58.3544 17.294Z" fill="#2F3476"/>
<path d="M72.0157 17.876C72.0157 14.8931 72.0266 11.9101 72.0047 8.92495C72.0047 8.40904 72.1342 8.23046 72.6742 8.23487C76.3488 8.25545 80.0226 8.25545 83.6957 8.23487C84.2225 8.23487 84.4047 8.39361 84.3828 8.92274C84.3455 9.74509 84.3521 10.5697 84.3828 11.392C84.396 11.8506 84.2225 11.9983 83.7747 11.9939C81.5643 11.9785 79.3517 11.9939 77.1412 11.9939C76.362 11.9939 76.3575 11.9939 76.3553 12.8008C76.3553 13.6827 76.3773 14.5646 76.3553 15.4465C76.3378 15.9469 76.5222 16.1277 77.0139 16.1233C78.8599 16.1079 80.706 16.1233 82.5521 16.1233C83.3774 16.1233 83.3774 16.1233 83.3774 16.9743C83.3774 17.779 83.3577 18.5859 83.3774 19.3995C83.3928 19.8603 83.2194 20.0014 82.7716 19.997C80.8728 19.9793 78.9719 19.997 77.0644 19.997C76.3817 19.997 76.3466 20.0366 76.3422 20.7069C76.3422 21.4587 76.3422 22.2083 76.3422 22.9579C76.3422 23.7868 76.3531 23.7979 77.1565 23.7979H83.8471C84.633 23.7979 84.633 23.7979 84.633 24.5938C84.633 25.3897 84.6045 26.137 84.633 26.8999C84.6593 27.4246 84.4947 27.5899 83.9591 27.5855C80.6138 27.5635 77.2707 27.5855 73.9254 27.5855C73.4864 27.5855 73.0473 27.5591 72.6083 27.5855C72.132 27.623 71.9762 27.4643 71.9806 26.9726C72.0245 23.9169 72.0157 20.8965 72.0157 17.876Z" fill="#2F3476"/>
<path d="M111.992 17.9157C111.992 14.9129 112.005 11.9123 111.992 8.90946C111.992 8.37151 112.159 8.23262 112.679 8.23482C116.352 8.2554 120.025 8.2554 123.699 8.23482C124.186 8.23482 124.394 8.35828 124.37 8.8808C124.335 9.68551 124.329 10.4924 124.37 11.306C124.403 11.8902 124.164 12.0115 123.635 12.0071C121.46 11.9828 119.284 12.0071 117.109 12.0071C116.354 12.0071 116.343 12.0203 116.341 12.7743C116.341 13.6562 116.341 14.5381 116.341 15.4199C116.341 16.0814 116.385 16.1277 117.067 16.1299C118.948 16.1299 120.832 16.1453 122.713 16.1299C123.213 16.1299 123.393 16.2754 123.371 16.7913C123.334 17.6313 123.336 18.4757 123.371 19.3157C123.393 19.836 123.233 20.019 122.695 20.0123C120.832 19.9837 118.964 19.9991 117.102 20.0123C116.367 20.0123 116.345 20.041 116.343 20.795C116.343 21.5821 116.367 22.3714 116.343 23.1562C116.321 23.6721 116.532 23.8177 117.017 23.8177C119.302 23.8022 121.587 23.8177 123.872 23.8177C124.638 23.8177 124.64 23.8177 124.642 24.5739C124.642 25.3786 124.623 26.1855 124.642 26.999C124.658 27.44 124.541 27.6141 124.067 27.6119C120.227 27.5972 116.389 27.5972 112.552 27.6119C112.113 27.6119 111.997 27.4576 111.999 27.0365C111.999 23.9565 111.992 20.9361 111.992 17.9157Z" fill="#2F3476"/>
<path d="M130.117 17.9004C130.117 14.8998 130.117 11.897 130.117 8.89415C130.117 8.39809 130.249 8.23274 130.76 8.23274C134.452 8.25332 138.145 8.25332 141.837 8.23274C142.342 8.23274 142.513 8.39148 142.495 8.89415C142.462 9.7165 142.465 10.5411 142.495 11.3634C142.515 11.8507 142.333 11.9984 141.859 11.994C139.664 11.9741 137.469 11.994 135.273 11.994C134.463 11.994 134.463 11.994 134.461 12.8295C134.461 13.7114 134.481 14.5933 134.461 15.4752C134.446 15.9514 134.628 16.1366 135.098 16.1234C136.999 16.1101 138.9 16.1234 140.805 16.1079C141.312 16.1079 141.529 16.2292 141.503 16.7804C141.461 17.6622 141.475 18.5441 141.503 19.415C141.516 19.8559 141.349 19.986 140.928 19.9838C139.027 19.9684 137.126 19.9838 135.221 19.9838C134.507 19.9838 134.474 20.0213 134.472 20.7246C134.472 21.4742 134.472 22.226 134.472 22.9756C134.472 23.7671 134.492 23.7869 135.262 23.7869H141.951C142.763 23.7869 142.763 23.7869 142.763 24.6115C142.763 25.436 142.752 26.2584 142.763 27.0829C142.763 27.4357 142.645 27.568 142.287 27.568C138.394 27.5592 134.502 27.5592 130.609 27.568C130.146 27.568 130.126 27.3299 130.126 26.9815C130.125 23.9493 130.122 20.9223 130.117 17.9004Z" fill="#2F3476"/>
<g clip-path="url(#clip0_4967_41968)">
<path d="M31.8 2.60212e-05H3.53333C2.59624 2.60212e-05 1.69752 0.371871 1.03489 1.03376C0.372263 1.69566 0 2.59338 0 3.52944V14.353C0 14.665 0.124091 14.9642 0.344967 15.1849C0.565843 15.4055 0.865412 15.5294 1.17778 15.5294H2.51308C3.69086 15.5294 4.66989 16.4441 4.70964 17.5691C4.72121 17.8536 4.67499 18.1374 4.57378 18.4036C4.47257 18.6697 4.31847 18.9126 4.12075 19.1177C3.9235 19.3233 3.68643 19.4867 3.42398 19.5979C3.16152 19.7092 2.87916 19.7659 2.59406 19.7647H1.18073C0.868359 19.7647 0.568786 19.8887 0.34791 20.1093C0.127033 20.3299 0.00294732 20.6292 0.00294732 20.9412V31.7647C0.00294732 32.7008 0.375205 33.5985 1.03783 34.2604C1.70046 34.9223 2.59918 35.2941 3.53628 35.2941H21.8507L23.5291 37.5603C23.5497 37.5883 23.5732 37.6162 23.5968 37.6427L23.6189 37.6677C24.5022 38.653 25.6962 40 27.9619 40C28.7177 39.9961 29.4644 39.8341 30.1538 39.5246C30.8432 39.2151 31.4601 38.7649 31.9649 38.203C32.7521 37.3411 33.1673 36.204 33.1206 35.0383C33.7747 34.7757 34.3352 34.3236 34.73 33.7403C35.1249 33.1569 35.336 32.4689 35.3363 31.7647V3.52944C35.3363 3.0657 35.2448 2.60651 35.067 2.17811C34.8893 1.74971 34.6288 1.3605 34.3003 1.03272C33.9719 0.704948 33.5821 0.445032 33.1531 0.267836C32.724 0.0906392 32.2643 -0.000360426 31.8 2.60212e-05V2.60212e-05Z" fill="#303778"/>
<path d="M25.3895 36.1175C26.2345 37.0661 26.8161 37.647 27.96 37.647C28.3824 37.6452 28.7998 37.555 29.1852 37.3823C29.5707 37.2096 29.9156 36.9581 30.1978 36.644C30.4039 36.4258 30.5605 36.1656 30.6568 35.8814C30.7531 35.5971 30.7868 35.2954 30.7557 34.997C30.4966 32.9234 28.649 22.8411 27.4815 16.5426C26.5168 18.3004 25.0971 19.7671 23.3706 20.7893C21.6442 21.8114 19.6746 22.3514 17.6677 22.3529C17.6417 22.3543 17.6156 22.3543 17.5896 22.3529C17.2172 22.3279 16.7225 22.3881 16.4766 22.8117C16.244 23.2087 16.3044 23.7867 16.6239 24.2911L25.3895 36.1175Z" fill="#868AC3"/>
<path d="M2.35547 22.1177V31.7647C2.35547 32.0768 2.47956 32.376 2.70044 32.5966C2.92131 32.8173 3.22088 32.9412 3.53325 32.9412H20.1061L14.7133 25.6603L14.678 25.6088C13.8388 24.3397 13.7475 22.8147 14.4395 21.625C15.0799 20.525 16.2959 19.9177 17.7019 20C18.8664 19.9989 20.0189 19.7662 21.0924 19.3155C22.1659 18.8648 23.1388 18.2052 23.9544 17.375C24.7791 16.5451 25.4292 15.5587 25.8664 14.474C26.3036 13.3892 26.519 12.228 26.4999 11.0588C26.4366 6.25885 22.4086 2.35297 17.5194 2.35297H3.53325C3.22088 2.35297 2.92131 2.47692 2.70044 2.69755C2.47956 2.91818 2.35547 3.21742 2.35547 3.52944V13.1765H2.513C4.93775 13.1765 6.97972 15.1088 7.06364 17.4853C7.08755 18.086 6.98894 18.6853 6.77382 19.2468C6.5587 19.8083 6.23155 20.3202 5.81225 20.7515C5.39603 21.1854 4.89585 21.5302 4.34211 21.7651C3.78837 21.9999 3.19261 22.1199 2.59103 22.1177H2.35547Z" fill="#DFE1F2"/>
</g>
<defs>
<clipPath id="clip0_4967_41968">
<rect width="35.3333" height="40" fill="white"/>
</clipPath>
</defs>
</svg>
