<svg width="43" height="48" viewBox="0 0 43 48" fill="none" xmlns="http://www.w3.org/2000/svg">
<g clip-path="url(#clip0_5889_7316)">
<path d="M38.16 3.19884e-05H4.24C3.11548 3.19884e-05 2.03702 0.446246 1.24187 1.24052C0.446715 2.03479 0 3.11206 0 4.23533V17.2236C0 17.598 0.148909 17.9571 0.41396 18.2218C0.679011 18.4866 1.03849 18.6353 1.41333 18.6353H3.0157C4.42903 18.6353 5.60387 19.733 5.65157 21.083C5.66545 21.4243 5.60999 21.7649 5.48854 22.0843C5.36709 22.4037 5.18216 22.6952 4.9449 22.9412C4.7082 23.188 4.42372 23.384 4.10877 23.5175C3.79383 23.651 3.45499 23.7191 3.11287 23.7177H1.41687C1.04203 23.7177 0.682543 23.8664 0.417491 24.1312C0.15244 24.3959 0.00353678 24.755 0.00353678 25.1294V38.1177C0.00353678 39.241 0.450247 40.3182 1.2454 41.1125C2.04056 41.9067 3.11902 42.353 4.24354 42.353H26.2209L28.2349 45.0724C28.2596 45.1059 28.2879 45.1394 28.3161 45.1712L28.3426 45.2012C29.4026 46.3836 30.8354 48 33.5543 48C34.4613 47.9953 35.3572 47.8009 36.1845 47.4295C37.0118 47.0581 37.7521 46.5179 38.3579 45.8436C39.3025 44.8093 39.8008 43.4448 39.7447 42.0459C40.5296 41.7308 41.2022 41.1883 41.6761 40.4883C42.1499 39.7883 42.4032 38.9627 42.4035 38.1177V4.23533C42.4035 3.67884 42.2937 3.12781 42.0804 2.61373C41.8671 2.09965 41.5545 1.6326 41.1604 1.23927C40.7663 0.845939 40.2985 0.534039 39.7837 0.321404C39.2688 0.108768 38.7171 -0.000431748 38.16 3.19884e-05Z" fill="#303778"/>
<path d="M30.4663 43.3411C31.4804 44.4793 32.1782 45.1764 33.5509 45.1764C34.0578 45.1743 34.5587 45.0661 35.0212 44.8588C35.4837 44.6515 35.8976 44.3497 36.2362 43.9729C36.4836 43.7109 36.6715 43.3988 36.7871 43.0577C36.9026 42.7166 36.9431 42.3546 36.9058 41.9964C36.5949 39.5082 34.3777 27.4093 32.9767 19.8511C31.8191 21.9606 30.1154 23.7206 28.0437 24.9472C25.972 26.1737 23.6084 26.8217 21.2001 26.8235C21.169 26.8253 21.1377 26.8253 21.1065 26.8235C20.6595 26.7935 20.0659 26.8658 19.7709 27.374C19.4918 27.8505 19.5642 28.544 19.9476 29.1493L30.4663 43.3411Z" fill="#868AC3"/>
<path d="M2.82666 26.5412V38.1177C2.82666 38.4921 2.97557 38.8512 3.24062 39.1159C3.50567 39.3807 3.86515 39.5294 4.23999 39.5294H24.1274L17.6561 30.7924L17.6137 30.7306C16.6067 29.2077 16.4971 27.3777 17.3275 25.95C18.096 24.63 19.5552 23.9012 21.2424 24C22.6397 23.9986 24.0228 23.7194 25.311 23.1786C26.5992 22.6377 27.7667 21.8462 28.7454 20.85C29.7351 19.8541 30.5152 18.6705 31.0398 17.3688C31.5644 16.0671 31.8229 14.6736 31.8 13.2706C31.724 7.5106 26.8904 2.82355 21.0233 2.82355H4.23999C3.86515 2.82355 3.50567 2.97229 3.24062 3.23704C2.97557 3.5018 2.82666 3.86089 2.82666 4.23531V15.8118H3.01569C5.92539 15.8118 8.37576 18.1306 8.47646 20.9824C8.50515 21.7032 8.38683 22.4224 8.12868 23.0962C7.87054 23.7699 7.47796 24.3842 6.97479 24.9018C6.47533 25.4224 5.87512 25.8362 5.21063 26.1181C4.54614 26.3999 3.83123 26.5438 3.10933 26.5412H2.82666Z" fill="#DFE1F2"/>
</g>
<defs>
<clipPath id="clip0_5889_7316">
<rect width="42.4" height="48" fill="white"/>
</clipPath>
</defs>
</svg>
