<svg width="174" height="40" viewBox="0 0 174 40" fill="none" xmlns="http://www.w3.org/2000/svg">
<path d="M164.7 16.7694C164.236 17.7336 163.774 18.6978 163.313 19.6619C162.485 21.3904 161.654 23.1189 160.839 24.854C160.78 25.0157 160.668 25.1522 160.521 25.2405C160.374 25.3289 160.201 25.3636 160.031 25.339C159.3 25.3104 158.567 25.3016 157.836 25.339C157.38 25.3655 157.191 25.1318 157.02 24.7746C155.836 22.2863 154.647 19.7986 153.453 17.3117C153.368 17.1149 153.228 16.9476 153.049 16.8311C152.997 17.014 152.954 17.1994 152.922 17.3867C152.654 19.6002 152.39 21.8145 152.129 24.0295C152.015 24.9929 151.885 25.9542 151.795 26.9176C151.751 27.3894 151.576 27.579 151.075 27.5526C150.035 27.5107 148.992 27.5129 147.952 27.5526C147.438 27.5702 147.269 27.4159 147.339 26.9022C147.528 25.5441 147.684 24.1816 147.853 22.8191C148.123 20.6254 148.389 18.4295 148.663 16.2336C148.918 14.1833 149.181 12.1351 149.438 10.0847C149.493 9.64378 149.537 9.20284 149.574 8.77512C149.607 8.40473 149.767 8.22615 150.169 8.23718C151.047 8.25922 151.925 8.25481 152.803 8.23718C152.956 8.22155 153.109 8.25992 153.236 8.34565C153.364 8.43138 153.457 8.55911 153.501 8.70678C155.156 12.2872 156.823 15.8625 158.501 19.4327C158.628 19.6631 158.771 19.8842 158.929 20.0941C159.105 19.8807 159.262 19.652 159.397 19.4106C161.035 15.864 162.662 12.3115 164.279 8.75308C164.335 8.58155 164.449 8.43523 164.601 8.33972C164.754 8.2442 164.935 8.20556 165.113 8.23056C165.991 8.26584 166.869 8.25261 167.747 8.23056C167.819 8.21798 167.892 8.2217 167.963 8.24146C168.033 8.26121 168.097 8.29649 168.152 8.34471C168.207 8.39293 168.25 8.45286 168.279 8.5201C168.308 8.58733 168.321 8.66016 168.318 8.73323C168.549 10.6954 168.783 12.6561 169.02 14.6154C169.279 16.7554 169.539 18.8969 169.799 21.0399C170.044 23.0344 170.293 25.0304 170.546 27.0279C170.594 27.4115 170.467 27.5482 170.074 27.5415C168.941 27.5217 167.809 27.5195 166.676 27.5415C166.272 27.5415 166.123 27.3916 166.083 27.0146C165.914 25.4515 165.73 23.8906 165.55 22.3274C165.361 20.6739 165.17 19.0211 164.977 17.3691C164.955 17.175 164.9 16.9832 164.861 16.7892L164.7 16.7694Z" fill="#F6F7FA"/>
<path d="M90.1387 17.8739C90.1387 14.8909 90.1496 11.9057 90.1387 8.92279C90.1387 8.40248 90.2748 8.22831 90.8104 8.23492C93.225 8.26358 95.6396 8.20406 98.0542 8.26358C101.527 8.34957 104.088 9.94797 105.566 13.1139C106.507 15.1356 106.729 17.3029 106.444 19.5076C106.189 21.5315 105.509 23.3746 104.117 24.9069C103.397 25.7057 102.522 26.3478 101.545 26.7938C100.568 27.2397 99.511 27.4799 98.4383 27.4996C95.8283 27.601 93.2118 27.5305 90.5997 27.5503C90.1606 27.5503 90.1453 27.3166 90.1475 26.9903C90.1445 23.9508 90.1416 20.912 90.1387 17.8739ZM96.5044 11.8969L96.4934 11.9895C95.9995 11.9895 95.5056 11.9895 95.0139 11.9895C94.643 11.9895 94.485 12.1372 94.4872 12.5098C94.4872 16.0815 94.4872 19.6516 94.4872 23.2203C94.4872 23.6281 94.6606 23.7759 95.0469 23.7715C95.9974 23.7582 96.95 23.7715 97.9005 23.7538C99.4371 23.7075 100.554 22.9513 101.261 21.6395C102.497 19.3488 102.495 16.9722 101.481 14.6087C101.009 13.5064 100.234 12.5804 99.0354 12.2431C98.2166 12.0116 97.3429 12.0028 96.4934 11.8969H96.5044Z" fill="#F6F7FA"/>
<path d="M52.1426 27.5062V8.29885C52.3084 8.27333 52.4755 8.25641 52.643 8.24814C55.2574 8.24814 57.8717 8.22609 60.4839 8.26357C63.5768 8.30767 65.8267 10.3514 66.4106 13.4027C66.9748 16.4122 65.0124 19.5539 62.4595 20.3255C62.0205 20.4556 62.1083 20.6937 62.3168 20.9869C63.5753 22.7624 64.8287 24.5402 66.077 26.3201C66.325 26.675 66.5664 27.0344 66.876 27.4886C66.5994 27.5128 66.4369 27.5415 66.257 27.5415C64.9772 27.5415 63.6975 27.5283 62.42 27.5415C62.2499 27.5534 62.08 27.5154 61.9311 27.432C61.7822 27.3486 61.6607 27.2235 61.5814 27.0719C60.3156 25.1082 59.0381 23.149 57.7488 21.1942C57.6193 20.9868 57.4223 20.831 57.1913 20.7532C56.6096 20.6253 56.4779 20.7532 56.4779 21.3573C56.4779 23.2247 56.4625 25.0921 56.4779 26.9572C56.4779 27.418 56.3352 27.5591 55.883 27.5459C54.825 27.5172 53.7647 27.5459 52.7045 27.5459C52.5289 27.5415 52.3511 27.5194 52.1426 27.5062ZM58.3525 17.294V17.272C58.8266 17.272 59.3029 17.294 59.7771 17.272C60.3861 17.2477 60.9649 16.9993 61.4033 16.574C61.8417 16.1487 62.109 15.5763 62.1544 14.9659C62.2948 13.7136 61.4804 12.3753 60.2732 12.1791C59.1493 11.9983 57.9881 12.0358 56.8422 12.0226C56.7215 12.0226 56.4954 12.3335 56.491 12.5032C56.4625 13.9473 56.491 15.3936 56.4713 16.8377C56.4713 17.164 56.6052 17.3051 56.9278 17.3006C57.402 17.2874 57.8783 17.294 58.3525 17.294Z" fill="#F6F7FA"/>
<path d="M72.0157 17.876C72.0157 14.893 72.0266 11.9101 72.0047 8.92489C72.0047 8.40899 72.1342 8.23041 72.6742 8.23482C76.3488 8.2554 80.0226 8.2554 83.6957 8.23482C84.2225 8.23482 84.4047 8.39356 84.3828 8.92269C84.3455 9.74504 84.3521 10.5696 84.3828 11.392C84.396 11.8505 84.2225 11.9982 83.7747 11.9938C81.5643 11.9784 79.3517 11.9938 77.1412 11.9938C76.362 11.9938 76.3575 11.9938 76.3553 12.8008C76.3553 13.6826 76.3773 14.5645 76.3553 15.4464C76.3378 15.9469 76.5222 16.1277 77.0139 16.1232C78.8599 16.1078 80.706 16.1232 82.5521 16.1232C83.3774 16.1232 83.3774 16.1232 83.3774 16.9743C83.3774 17.779 83.3577 18.5859 83.3774 19.3994C83.3928 19.8602 83.2194 20.0013 82.7716 19.9969C80.8728 19.9793 78.9719 19.9969 77.0644 19.9969C76.3817 19.9969 76.3466 20.0366 76.3422 20.7068C76.3422 21.4586 76.3422 22.2082 76.3422 22.9578C76.3422 23.7868 76.3531 23.7978 77.1565 23.7978H83.8471C84.633 23.7978 84.633 23.7978 84.633 24.5937C84.633 25.3896 84.6045 26.137 84.633 26.8998C84.6593 27.4245 84.4947 27.5899 83.9591 27.5855C80.6138 27.5634 77.2707 27.5855 73.9254 27.5855C73.4864 27.5855 73.0473 27.559 72.6083 27.5855C72.132 27.623 71.9762 27.4642 71.9806 26.9726C72.0245 23.9169 72.0157 20.8964 72.0157 17.876Z" fill="#F6F7FA"/>
<path d="M111.992 17.9156C111.992 14.9128 112.005 11.9122 111.992 8.90941C111.992 8.37146 112.159 8.23256 112.679 8.23477C116.352 8.25534 120.025 8.25534 123.699 8.23477C124.186 8.23477 124.394 8.35823 124.37 8.88074C124.335 9.68546 124.329 10.4924 124.37 11.3059C124.403 11.8902 124.164 12.0114 123.635 12.007C121.46 11.9828 119.284 12.007 117.109 12.007C116.354 12.007 116.343 12.0202 116.341 12.7742C116.341 13.6561 116.341 14.538 116.341 15.4199C116.341 16.0813 116.385 16.1276 117.067 16.1298C118.948 16.1298 120.832 16.1452 122.713 16.1298C123.213 16.1298 123.393 16.2753 123.371 16.7912C123.334 17.6312 123.336 18.4756 123.371 19.3156C123.393 19.8359 123.233 20.0189 122.695 20.0123C120.832 19.9836 118.964 19.9991 117.102 20.0123C116.367 20.0123 116.345 20.0409 116.343 20.795C116.343 21.582 116.367 22.3713 116.343 23.1562C116.321 23.6721 116.532 23.8176 117.017 23.8176C119.302 23.8022 121.587 23.8176 123.872 23.8176C124.638 23.8176 124.64 23.8176 124.642 24.5738C124.642 25.3785 124.623 26.1854 124.642 26.999C124.658 27.4399 124.541 27.6141 124.067 27.6119C120.227 27.5972 116.389 27.5972 112.552 27.6119C112.113 27.6119 111.997 27.4576 111.999 27.0365C111.999 23.9565 111.992 20.9361 111.992 17.9156Z" fill="#F6F7FA"/>
<path d="M130.117 17.9004C130.117 14.8998 130.117 11.897 130.117 8.8942C130.117 8.39814 130.249 8.23279 130.76 8.23279C134.452 8.25337 138.145 8.25337 141.837 8.23279C142.342 8.23279 142.513 8.39153 142.495 8.8942C142.462 9.71655 142.465 10.5411 142.495 11.3635C142.515 11.8507 142.333 11.9984 141.859 11.994C139.664 11.9742 137.469 11.994 135.273 11.994C134.463 11.994 134.463 11.994 134.461 12.8296C134.461 13.7115 134.481 14.5934 134.461 15.4752C134.446 15.9514 134.628 16.1366 135.098 16.1234C136.999 16.1102 138.9 16.1234 140.805 16.108C141.312 16.108 141.529 16.2292 141.503 16.7804C141.461 17.6623 141.475 18.5442 141.503 19.415C141.516 19.856 141.349 19.9861 140.928 19.9838C139.027 19.9684 137.126 19.9838 135.221 19.9838C134.507 19.9838 134.474 20.0213 134.472 20.7246C134.472 21.4742 134.472 22.226 134.472 22.9756C134.472 23.7671 134.492 23.787 135.262 23.787H141.951C142.763 23.787 142.763 23.787 142.763 24.6115C142.763 25.4361 142.752 26.2584 142.763 27.083C142.763 27.4357 142.645 27.568 142.287 27.568C138.394 27.5592 134.502 27.5592 130.609 27.568C130.146 27.568 130.126 27.3299 130.126 26.9816C130.125 23.9494 130.122 20.9223 130.117 17.9004Z" fill="#F6F7FA"/>
<path d="M25.3875 36.1176C26.2326 37.0661 26.8141 37.647 27.958 37.647C28.3805 37.6452 28.7979 37.5551 29.1833 37.3823C29.5687 37.2096 29.9136 36.9581 30.1958 36.6441C30.402 36.4258 30.5586 36.1656 30.6549 35.8814C30.7511 35.5971 30.7849 35.2955 30.7538 34.997C30.4947 32.9235 28.647 22.8411 27.4796 16.5426C26.5149 18.3005 25.0951 19.7672 23.3687 20.7893C21.6423 21.8114 19.6726 22.3515 17.6657 22.3529C17.6397 22.3544 17.6137 22.3544 17.5877 22.3529C17.2152 22.3279 16.7206 22.3882 16.4747 22.8117C16.2421 23.2088 16.3024 23.7867 16.6219 24.2911L25.3875 36.1176Z" fill="#BCBFE3"/>
<path d="M2.35547 22.1177V31.7648C2.35547 32.0768 2.47956 32.3761 2.70044 32.5967C2.92131 32.8173 3.22088 32.9413 3.53325 32.9413H20.1061L14.7133 25.6604L14.678 25.6089C13.8388 24.3398 13.7475 22.8148 14.4395 21.6251C15.0799 20.5251 16.2959 19.9177 17.7019 20.0001C18.8664 19.9989 20.0189 19.7662 21.0924 19.3155C22.1659 18.8649 23.1388 18.2052 23.9544 17.3751C24.7791 16.5452 25.4292 15.5588 25.8664 14.474C26.3036 13.3893 26.519 12.2281 26.4999 11.0589C26.4366 6.2589 22.4086 2.35303 17.5194 2.35303H3.53325C3.22088 2.35303 2.92131 2.47698 2.70044 2.69761C2.47956 2.91824 2.35547 3.21748 2.35547 3.5295V13.1766H2.513C4.93775 13.1766 6.97972 15.1089 7.06364 17.4854C7.08755 18.0861 6.98894 18.6854 6.77382 19.2469C6.5587 19.8083 6.23155 20.3203 5.81225 20.7516C5.39603 21.1854 4.89585 21.5303 4.34211 21.7651C3.78837 22 3.19261 22.1199 2.59103 22.1177H2.35547Z" fill="#F6F7FA"/>
</svg>
