<svg width="105" height="124" viewBox="0 0 105 124" fill="none" xmlns="http://www.w3.org/2000/svg">
<path d="M107.505 37.431C107.505 37.431 123.736 32.7793 125.569 31.7976C127.402 30.816 135.736 42.279 143.236 48.779C143.236 48.779 118.416 56.1054 110.424 56.4628C102.432 56.8202 65.6285 50.428 44.0708 35.8865C42.1098 34.786 29.6129 28.3865 31.5568 24.5694C28.1885 22.3955 30.7804 18.2793 31.7084 18.96C29.7361 17.5122 31.5939 14.7804 33.736 15.7792C46.6043 21.7793 50.2361 21.2058 53.4881 21.2058C53.4881 11.7793 63.79 12.1856 61.2361 14.7793C55.9742 20.1235 60.1652 24.9681 60.1652 24.9681C60.1652 24.9681 64.067 29.2208 79.7207 33.7833C95.3743 38.3458 107.505 37.431 107.505 37.431Z" fill="#F5B896"/>
<path d="M31.7084 18.96C29.7361 17.5122 31.5939 14.7804 33.736 15.7792C46.6043 21.7793 50.2361 21.2058 53.4881 21.2058C53.4881 11.7793 63.79 12.1856 61.2361 14.7793C55.9742 20.1235 60.1652 24.9681 60.1652 24.9681C60.1652 24.9681 64.067 29.2208 79.7207 33.7833C95.3743 38.3458 107.505 37.431 107.505 37.431C107.505 37.431 123.736 32.7793 125.569 31.7976C127.402 30.816 135.736 42.279 143.236 48.779C143.236 48.779 118.416 56.1054 110.424 56.4628C102.432 56.8202 65.6285 50.428 44.0708 35.8865C42.1098 34.786 29.6129 28.3865 31.5568 24.5694M31.7084 18.96C30.7804 18.2793 28.1885 22.3955 31.5568 24.5694M31.7084 18.96C34.7484 21.1917 42.2275 25.5417 47.8234 25.0883M31.5568 24.5694C34.9253 26.7435 42.6506 30.9399 46.6044 30.3337" stroke="black" stroke-width="1.9" stroke-linecap="round" stroke-linejoin="round"/>
<path fill-rule="evenodd" clip-rule="evenodd" d="M47.1688 19.1767C43.1527 16.8411 32.8614 43.3883 27.908 57.0146C26.0805 56.4909 24.4913 56.0279 23.3575 55.6915C22.3882 55.4038 21.3422 55.856 20.9477 56.7869C16.7093 66.7884 13.6049 83.5748 11.6807 93.9788C11.0504 97.3872 10.5467 100.111 10.1714 101.686C8.64888 108.077 13.4754 108.413 18.6451 108.773L18.6451 108.773C20.2034 108.882 21.7928 108.993 23.2489 109.272C26.7898 109.952 30.3348 110.685 33.8399 111.409C40.1547 112.715 46.3401 113.994 52.1387 114.885C54.0985 115.187 55.9283 115.57 57.591 115.918C63.5785 117.171 67.3974 117.971 67.3031 112.859C67.2747 111.314 67.6862 107.327 68.2289 102.07C69.4228 90.5041 71.2517 72.7875 70.4292 61.3741C70.3322 60.0293 68.9 59.1903 67.599 59.5443C65.9795 59.985 63.9223 60.4202 61.6712 60.7939C61.6963 56.612 61.8946 53.4697 62.0431 51.1168C62.303 46.9988 62.4102 45.2994 61.1688 44.6787C60.0295 44.1091 59.4087 43.8543 58.7532 43.5854C58.0229 43.2858 57.2496 42.9686 55.6688 42.1787C55.6013 46.4594 55.4503 48.482 55.2655 50.9559C55.0887 53.3223 54.8811 56.1016 54.6864 61.6653C50.5972 62.003 46.6431 62.0005 44.0353 61.3792C41.9777 60.889 39.197 60.1565 36.293 59.3638C37.9338 55.1957 39.311 50.384 40.7114 45.491C43.5089 35.7172 46.3992 25.619 51.6688 19.6777C52.0846 19.6522 51.4852 19.6131 50.5992 19.5554C49.3289 19.4727 47.4693 19.3515 47.1688 19.1767Z" fill="#FFF7EE"/>
<path d="M27.908 57.0146L28.9465 57.3921L28.5944 58.3608L27.6036 58.0768L27.908 57.0146ZM47.1688 19.1767L47.7243 18.2215L47.7243 18.2215L47.1688 19.1767ZM23.3575 55.6915L23.6719 54.6321L23.6719 54.6321L23.3575 55.6915ZM20.9477 56.7869L19.9303 56.3558L19.9303 56.3558L20.9477 56.7869ZM11.6807 93.9788L12.7673 94.1798L11.6807 93.9788ZM10.1714 101.686L11.2463 101.942L10.1714 101.686ZM18.6451 108.773L18.7219 107.671L18.7347 107.672L18.6451 108.773ZM18.6451 108.773L18.5683 109.876L18.5555 109.875L18.6451 108.773ZM23.2489 109.272L23.0407 110.358L23.0406 110.358L23.2489 109.272ZM33.8399 111.409L34.0637 110.327L34.0637 110.327L33.8399 111.409ZM52.1387 114.885L51.9708 115.977L52.1387 114.885ZM57.591 115.918L57.3645 116.999L57.591 115.918ZM67.3031 112.859L66.1983 112.879L67.3031 112.859ZM68.2289 102.07L69.3281 102.183L68.2289 102.07ZM70.4292 61.3741L69.327 61.4535L70.4292 61.3741ZM67.599 59.5443L67.8891 60.6106L67.8891 60.6106L67.599 59.5443ZM61.6712 60.7939L61.8521 61.8839L60.5584 62.0987L60.5662 60.7872L61.6712 60.7939ZM62.0431 51.1168L60.9403 51.0472L62.0431 51.1168ZM61.1688 44.6787L61.6629 43.6903L61.6629 43.6903L61.1688 44.6787ZM58.7532 43.5854L58.3338 44.6077L58.7532 43.5854ZM55.6688 42.1787L54.5639 42.1613L54.5915 40.4051L56.1627 41.1902L55.6688 42.1787ZM55.2655 50.9559L54.1635 50.8736L55.2655 50.9559ZM54.6864 61.6653L55.7907 61.704L55.7564 62.6857L54.7773 62.7666L54.6864 61.6653ZM44.0353 61.3792L44.2914 60.3043L44.0353 61.3792ZM36.293 59.3638L36.002 60.4298L34.8135 60.1054L35.2648 58.959L36.293 59.3638ZM40.7114 45.491L39.6491 45.187L39.6491 45.187L40.7114 45.491ZM51.6688 19.6777L50.8421 18.9445L51.1452 18.6029L51.601 18.5748L51.6688 19.6777ZM50.5992 19.5554L50.5274 20.6581L50.5992 19.5554ZM26.8695 56.6371C29.3485 49.8176 33.1721 39.7396 36.8856 31.649C38.7381 27.613 40.5865 24.0195 42.2466 21.5678C43.0691 20.3531 43.897 19.3398 44.7099 18.7031C45.4904 18.0919 46.6143 17.576 47.7243 18.2215L46.6132 20.1319C46.6117 20.131 46.6201 20.1354 46.6319 20.1369C46.6416 20.1381 46.6325 20.1346 46.5965 20.143C46.5124 20.1627 46.3392 20.2343 46.0726 20.443C45.5347 20.8644 44.861 21.6483 44.0765 22.8069C42.5227 25.1017 40.7357 28.5588 38.8941 32.5709C35.2196 40.5765 31.4209 50.5853 28.9465 57.3921L26.8695 56.6371ZM23.6719 54.6321C24.8014 54.9673 26.3872 55.4293 28.2124 55.9523L27.6036 58.0768C25.7738 57.5525 24.1811 57.0885 23.0431 56.7508L23.6719 54.6321ZM19.9303 56.3558C20.5593 54.8717 22.2011 54.1956 23.6719 54.6321L23.0431 56.7508C22.5753 56.6119 22.1252 56.8403 21.9651 57.2181L19.9303 56.3558ZM10.5942 93.7779C12.5095 83.4212 15.6338 66.4944 19.9303 56.3558L21.9651 57.2181C17.7848 67.0824 14.7002 83.7283 12.7673 94.1798L10.5942 93.7779ZM9.09647 101.43C9.46352 99.8894 9.96085 97.2024 10.5942 93.7779L12.7673 94.1798C12.14 97.572 11.63 100.332 11.2463 101.942L9.09647 101.43ZM18.5682 109.876C17.287 109.786 15.9659 109.695 14.754 109.504C13.5472 109.314 12.3579 109.013 11.3601 108.456C10.3326 107.882 9.502 107.032 9.08026 105.795C8.66985 104.592 8.68816 103.144 9.09647 101.43L11.2463 101.942C10.8934 103.424 10.944 104.414 11.172 105.082C11.3885 105.717 11.8022 106.172 12.4372 106.526C13.1019 106.897 13.9934 107.147 15.098 107.321C16.1974 107.494 17.4183 107.58 18.7219 107.671L18.5682 109.876ZM18.5555 109.875L18.5554 109.875L18.7347 107.672L18.7348 107.672L18.5555 109.875ZM23.0406 110.358C21.6616 110.093 20.1409 109.985 18.5683 109.876L18.722 107.671C20.2659 107.779 21.924 107.893 23.4572 108.187L23.0406 110.358ZM33.6162 112.492C30.1098 111.767 26.5725 111.035 23.0407 110.358L23.4572 108.187C27.0071 108.868 30.5598 109.603 34.0637 110.327L33.6162 112.492ZM51.9708 115.977C46.1389 115.081 39.9247 113.796 33.6162 112.492L34.0637 110.327C40.3848 111.634 46.5413 112.907 52.3066 113.793L51.9708 115.977ZM57.3645 116.999C55.699 116.651 53.8969 116.274 51.9708 115.977L52.3066 113.793C54.3 114.1 56.1577 114.489 57.8174 114.836L57.3645 116.999ZM68.408 112.839C68.4336 114.23 68.2005 115.409 67.5717 116.305C66.9171 117.237 65.9572 117.691 64.9097 117.865C63.8934 118.035 62.7222 117.957 61.4913 117.781C60.2504 117.604 58.8512 117.311 57.3645 116.999L57.8174 114.836C59.3245 115.152 60.6481 115.428 61.8042 115.594C62.9704 115.76 63.8707 115.798 64.5458 115.686C65.1896 115.578 65.541 115.351 65.763 115.035C66.0109 114.682 66.2198 114.044 66.1983 112.879L68.408 112.839ZM69.3281 102.183C68.7798 107.495 68.3811 111.381 68.408 112.839L66.1983 112.879C66.1682 111.247 66.5926 107.16 67.1298 101.956L69.3281 102.183ZM71.5313 61.2946C72.3624 72.8271 70.518 90.656 69.3281 102.183L67.1298 101.956C68.3276 90.3523 70.141 72.748 69.327 61.4535L71.5313 61.2946ZM67.3089 58.4781C69.1502 57.9771 71.3751 59.1269 71.5313 61.2946L69.327 61.4535C69.2894 60.9317 68.6498 60.4036 67.8891 60.6106L67.3089 58.4781ZM61.4903 59.7038C63.7157 59.3344 65.7348 58.9064 67.3089 58.4781L67.8891 60.6106C66.2242 61.0636 64.1289 61.506 61.8521 61.8839L61.4903 59.7038ZM63.1459 51.1864C62.9976 53.5355 62.8011 56.6518 62.7762 60.8005L60.5662 60.7872C60.5915 56.5723 60.7916 53.4039 60.9403 51.0472L63.1459 51.1864ZM61.6629 43.6903C62.7905 44.2541 63.1592 45.3167 63.2691 46.4826C63.3752 47.6085 63.2731 49.1713 63.1459 51.1864L60.9403 51.0472C61.073 48.9444 61.1545 47.5984 61.0688 46.69C60.987 45.8214 60.7885 45.724 60.6746 45.667L61.6629 43.6903ZM59.1726 42.5631C59.8402 42.837 60.4891 43.1034 61.6629 43.6903L60.6746 45.667C59.57 45.1147 58.9772 44.8717 58.3338 44.6077L59.1726 42.5631ZM56.1627 41.1902C57.7117 41.9642 58.4586 42.2702 59.1726 42.5631L58.3338 44.6077C57.5872 44.3014 56.7875 43.9729 55.1748 43.1671L56.1627 41.1902ZM54.1635 50.8736C54.3475 48.4113 54.4969 46.4122 54.5639 42.1613L56.7736 42.1961C56.7057 46.5065 56.5531 48.5527 56.3674 51.0382L54.1635 50.8736ZM53.5821 61.6267C53.7775 56.0437 53.9861 53.249 54.1635 50.8736L56.3674 51.0382C56.1913 53.3956 55.9848 56.1595 55.7907 61.704L53.5821 61.6267ZM44.2914 60.3043C46.7187 60.8826 50.5248 60.9002 54.5954 60.5641L54.7773 62.7666C50.6697 63.1058 46.5675 63.1184 43.7792 62.4541L44.2914 60.3043ZM36.584 58.2978C39.4851 59.0897 42.2518 59.8183 44.2914 60.3043L43.7792 62.4541C41.7036 61.9596 38.909 61.2233 36.002 60.4298L36.584 58.2978ZM41.7738 45.7951C40.377 50.6751 38.9852 55.5413 37.3212 59.7686L35.2648 58.959C36.8823 54.85 38.2449 50.0929 39.6491 45.187L41.7738 45.7951ZM52.4955 20.411C49.9891 23.2368 48.0063 27.1042 46.2941 31.5447C44.5841 35.9792 43.1754 40.8979 41.7738 45.7951L39.6491 45.187C41.0449 40.3103 42.4801 35.293 44.232 30.7496C45.9817 26.2122 48.0789 22.06 50.8421 18.9445L52.4955 20.411ZM50.6711 18.4527C51.1038 18.4809 51.498 18.5065 51.7285 18.5288C51.7866 18.5344 51.8512 18.5413 51.9104 18.5502C51.9382 18.5544 51.9838 18.5617 52.035 18.5737C52.0602 18.5796 52.1032 18.5904 52.1542 18.6079C52.1873 18.6193 52.3078 18.6607 52.4386 18.753C52.5051 18.7998 53.0293 19.1831 52.886 19.8812C52.8246 20.1801 52.6595 20.372 52.5573 20.4676C52.4538 20.5644 52.3544 20.6199 52.3004 20.6473C52.1279 20.7349 51.9644 20.7568 51.961 20.7574C51.8775 20.7713 51.7911 20.7773 51.7366 20.7807L51.601 18.5748C51.6505 18.5718 51.6363 18.5709 51.5962 18.5777C51.5829 18.5799 51.5542 18.585 51.517 18.5945C51.4911 18.6012 51.404 18.6239 51.3004 18.6765C51.2484 18.7029 51.1504 18.7575 51.048 18.8533C50.9468 18.9479 50.7823 19.1388 50.7211 19.4368C50.5783 20.1328 51.1012 20.5141 51.1648 20.559C51.2927 20.6492 51.4086 20.6885 51.4357 20.6978C51.4806 20.7133 51.5159 20.7219 51.5319 20.7256C51.5504 20.73 51.5641 20.7326 51.5707 20.7338C51.5779 20.7351 51.5823 20.7357 51.5831 20.7358C51.5842 20.736 51.5793 20.7353 51.5662 20.7338C51.5537 20.7323 51.5371 20.7306 51.5158 20.7285C51.3292 20.7105 50.9807 20.6876 50.5274 20.6581L50.6711 18.4527ZM47.7243 18.2215C47.6164 18.1587 47.5467 18.1501 47.6144 18.1668C47.6542 18.1766 47.7225 18.1903 47.8248 18.2064C48.0279 18.2384 48.3019 18.27 48.6243 18.3005C49.2664 18.3612 50.032 18.4111 50.6711 18.4527L50.5274 20.6581C49.8961 20.6169 49.0967 20.565 48.4164 20.5007C48.0775 20.4687 47.7509 20.432 47.4811 20.3895C47.3469 20.3684 47.2107 20.3434 47.0863 20.3128C46.9898 20.289 46.7963 20.2384 46.6132 20.1319L47.7243 18.2215Z" fill="black"/>
<path d="M54.1837 58.3349C45.867 56.0365 43.5735 55.5602 38.2172 55.4764" stroke="black" stroke-width="2.47" stroke-linecap="round" stroke-linejoin="round"/>
<path d="M64.1426 65.7656C63.9053 77.0235 62.5161 99.6312 60.6689 104.176" stroke="black" stroke-width="2.47" stroke-linecap="round" stroke-linejoin="round"/>
<path d="M24.8333 81.4167C24.8333 81.4167 24.5274 81.6751 24.7147 82.1603C24.7147 82.1603 24.8149 81.9639 25.2781 82.0839L25.834 82.228C26.359 82.3641 26.8826 81.9644 26.7696 81.3829C26.7696 81.3829 27.1301 81.5176 27.314 81.318C27.4974 81.1185 27.3902 80.9918 27.205 80.9438L26.2708 80.7017C26.2278 80.8678 25.9054 80.809 25.9544 80.6197L25.4294 80.4837C25.4294 80.4837 25.0356 80.3816 24.942 80.7117C24.942 80.7117 25.045 80.6807 25.1354 80.6961L25.1125 80.7845C25.1125 80.7845 24.9994 80.7759 24.9421 80.79C24.8851 80.8039 24.7927 80.8583 24.8133 81.0656C24.8337 81.2725 24.8438 81.3452 24.8438 81.3452C24.8438 81.3452 24.981 81.2775 25.1624 81.3245L25.3748 81.3795C25.7528 81.4775 25.5884 81.8262 25.2102 81.7282C24.8319 81.6301 24.8339 81.4166 24.8339 81.4166L24.8333 81.4167Z" fill="#DB0000"/>
<path d="M26.9055 81.5456C26.9055 81.5456 27.0309 81.5864 27.1444 81.5294C27.1444 81.5294 27.8129 82.3989 26.2301 83.389C24.647 84.3792 25.3879 85.4777 25.3879 85.4777C25.3879 85.4777 25.1083 85.6357 25.1264 86.0896C25.1264 86.0896 24.685 85.6637 24.418 85.0655C24.0322 84.201 23.967 83.0145 25.7629 82.547C25.7629 82.547 26.9335 82.2944 26.9053 81.5455L26.9055 81.5456Z" fill="#DB0000"/>
<path d="M25.8208 80.4563C25.8208 80.4563 26.0655 80.2012 26.4539 80.3018C26.7601 80.3812 26.8707 80.2422 26.8707 80.2422C26.8707 80.2422 27.0702 80.0222 27.7446 80.1969C28.3626 80.3571 28.7256 80.671 28.9913 81.0334C28.9913 81.0334 28.2289 80.2346 27.128 80.7951L25.8208 80.4563Z" fill="#DB0000"/>
<path d="M29.1094 83.3229C29.3251 82.3847 28.8632 81.1997 27.2995 80.8548C29.1447 79.9655 31.028 83.5069 28.4766 84.45C28.4766 84.45 28.972 84.0279 29.1093 83.3232L29.1094 83.3229Z" fill="#DB0000"/>
<path d="M27.5056 81.0186C29.4091 81.4515 29.4966 83.8907 28.0126 84.5937L26.6344 84.8683C26.6344 84.8683 26.6082 84.3123 27.3563 83.8633C28.1043 83.4148 28.9675 82.4356 27.5232 81.2704C27.5232 81.2704 27.5941 81.1241 27.506 81.019L27.5056 81.0186Z" fill="#DB0000"/>
<path d="M27.2743 81.5034C27.2743 81.5034 27.3897 81.4399 27.4393 81.3759C28.6921 82.3266 28.2135 83.2629 27.1585 83.8791C26.5065 84.2757 26.5179 84.8885 26.5179 84.8885C26.5179 84.8885 25.7889 85.1168 25.4845 85.4005C25.4845 85.4005 24.7762 84.391 26.3679 83.4327C27.9299 82.4919 27.2742 81.5036 27.2742 81.5036L27.2743 81.5034Z" fill="#DB0000"/>
<g clip-path="url(#clip0_1469_72234)">
<path d="M38.1497 83.5995C38.1497 83.5995 37.8926 83.9065 38.1603 84.3523C38.1603 84.3523 38.2254 84.1417 38.7023 84.1805L39.2747 84.2271C39.8153 84.2711 40.2625 83.7876 40.0516 83.2341C40.0516 83.2341 40.4297 83.305 40.5767 83.0768C40.7232 82.8489 40.5959 82.7424 40.4052 82.7269L39.4433 82.6485C39.4294 82.8196 39.1017 82.8169 39.1175 82.622L38.577 82.578C38.577 82.578 38.1715 82.545 38.1359 82.8862C38.1359 82.8862 38.232 82.838 38.3238 82.8377L38.3163 82.9288C38.3163 82.9288 38.2035 82.9396 38.1494 82.9633C38.0957 82.9868 38.014 83.0563 38.0698 83.2569C38.1254 83.4573 38.1478 83.5272 38.1478 83.5272C38.1478 83.5272 38.2713 83.4369 38.4581 83.4522L38.6768 83.47C39.066 83.5016 38.9638 83.8734 38.5744 83.8417C38.1849 83.81 38.1502 83.5993 38.1502 83.5993L38.1497 83.5995Z" fill="#DB0000"/>
<path d="M40.2127 83.3723C40.2127 83.3723 40.3432 83.391 40.4452 83.3154C40.4452 83.3154 41.253 84.0574 39.8634 85.3042C38.4735 86.5513 39.3919 87.5065 39.3919 87.5065C39.3919 87.5065 39.1434 87.71 39.2391 88.1541C39.2391 88.1541 38.7313 87.8102 38.3657 87.2667C37.8373 86.4812 37.5696 85.3234 39.2587 84.5548C39.2587 84.5548 40.3687 84.1052 40.2124 83.3723L40.2127 83.3723Z" fill="#DB0000"/>
<path d="M38.958 82.4813C38.958 82.4813 39.1553 82.188 39.5552 82.2205C39.8705 82.2462 39.9556 82.0903 39.9556 82.0903C39.9556 82.0903 40.1145 81.8393 40.8088 81.8958C41.4451 81.9476 41.8566 82.1946 42.1805 82.5062C42.1805 82.5062 41.2924 81.8499 40.304 82.5908L38.958 82.4813Z" fill="#DB0000"/>
<path d="M42.6891 84.7414C42.7408 83.7801 42.0825 82.6918 40.4828 82.6202C42.1482 81.4276 44.6109 84.5936 42.259 85.9602C42.259 85.9602 42.6747 85.4595 42.6891 84.7416L42.6891 84.7414Z" fill="#DB0000"/>
<path d="M40.7138 82.7472C42.6633 82.8472 43.1678 85.2353 41.8264 86.1823L40.5156 86.6892C40.5156 86.6892 40.3945 86.1459 41.0546 85.5753C41.7146 85.0052 42.397 83.8925 40.7743 82.9922C40.7743 82.9922 40.819 82.836 40.7142 82.7475L40.7138 82.7472Z" fill="#DB0000"/>
<path d="M40.5696 83.2619C40.5696 83.2619 40.6724 83.1795 40.7103 83.108C42.1076 83.8297 41.7967 84.8342 40.8629 85.6222C40.2886 86.1247 40.4049 86.7265 40.4049 86.7265C40.4049 86.7265 39.7259 87.0765 39.4747 87.4082C39.4747 87.4082 38.6037 86.5351 40.0075 85.3181C41.385 84.1233 40.5696 83.2621 40.5696 83.2621L40.5696 83.2619Z" fill="#DB0000"/>
</g>
<path d="M31.431 70.0096C31.431 70.0096 31.1739 70.3166 31.4416 70.7625C31.4416 70.7625 31.5067 70.5518 31.9836 70.5907L32.556 70.6373C33.0965 70.6813 33.5438 70.1978 33.3328 69.6443C33.3328 69.6443 33.711 69.7152 33.858 69.487C34.0044 69.259 33.8771 69.1525 33.6864 69.137L32.7246 69.0587C32.7107 69.2297 32.3829 69.227 32.3988 69.0322L31.8582 68.9882C31.8582 68.9882 31.4528 68.9552 31.4172 69.2963C31.4172 69.2963 31.5133 69.2482 31.605 69.2478L31.5976 69.3389C31.5976 69.3389 31.4847 69.3498 31.4307 69.3735C31.3769 69.397 31.2952 69.4664 31.351 69.6671C31.4066 69.8675 31.429 69.9373 31.429 69.9373C31.429 69.9373 31.5526 69.8471 31.7394 69.8623L31.958 69.8801C32.3472 69.9118 32.2451 70.2835 31.8556 70.2518C31.4662 70.2201 31.4315 70.0094 31.4315 70.0094L31.431 70.0096Z" fill="#DB0000"/>
<path d="M33.4939 69.7825C33.4939 69.7825 33.6245 69.8012 33.7265 69.7256C33.7265 69.7256 34.5342 70.4676 33.1447 71.7144C31.7548 72.9615 32.6731 73.9166 32.6731 73.9166C32.6731 73.9166 32.4247 74.1202 32.5204 74.5643C32.5204 74.5643 32.0125 74.2204 31.6469 73.6768C31.1185 72.8913 30.8509 71.7336 32.54 70.965C32.54 70.965 33.6499 70.5154 33.4937 69.7825L33.4939 69.7825Z" fill="#DB0000"/>
<path d="M32.2393 68.8914C32.2393 68.8914 32.4366 68.5981 32.8365 68.6307C33.1518 68.6564 33.2369 68.5004 33.2369 68.5004C33.2369 68.5004 33.3957 68.2495 34.0901 68.306C34.7263 68.3578 35.1379 68.6048 35.4617 68.9163C35.4617 68.9163 34.5736 68.26 33.5852 69.001L32.2393 68.8914Z" fill="#DB0000"/>
<path d="M35.9704 71.1516C36.022 70.1903 35.3637 69.1019 33.7641 69.0304C35.4295 67.8378 37.8922 71.0038 35.5403 72.3704C35.5403 72.3704 35.956 71.8696 35.9704 71.1518L35.9704 71.1516Z" fill="#DB0000"/>
<path d="M33.9941 69.1573C35.9436 69.2574 36.4481 71.6454 35.1066 72.5925L33.7959 73.0993C33.7959 73.0993 33.6748 72.5561 34.3348 71.9855C34.9948 71.4154 35.6773 70.3027 34.0546 69.4024C34.0546 69.4024 34.0993 69.2461 33.9945 69.1576L33.9941 69.1573Z" fill="#DB0000"/>
<path d="M33.8509 69.672C33.8509 69.672 33.9537 69.5897 33.9916 69.5181C35.3889 70.2399 35.078 71.2444 34.1442 72.0324C33.5699 72.5349 33.6862 73.1367 33.6862 73.1367C33.6862 73.1367 33.0072 73.4866 32.7559 73.8183C32.7559 73.8183 31.885 72.9453 33.2888 71.7282C34.6663 70.5335 33.8509 69.6723 33.8509 69.6723L33.8509 69.672Z" fill="#DB0000"/>
<path d="M28.0208 96.8573C28.0208 96.8573 27.7637 97.1643 28.0314 97.6101C28.0314 97.6101 28.0965 97.3995 28.5734 97.4383L29.1458 97.4849C29.6863 97.5289 30.1336 97.0454 29.9226 96.4919C29.9226 96.4919 30.3008 96.5628 30.4478 96.3347C30.5943 96.1067 30.467 96.0002 30.2762 95.9847L29.3144 95.9064C29.3005 96.0774 28.9728 96.0747 28.9886 95.8798L28.4481 95.8358C28.4481 95.8358 28.0426 95.8028 28.007 96.144C28.007 96.144 28.1031 96.0958 28.1949 96.0955L28.1874 96.1866C28.1874 96.1866 28.0745 96.1974 28.0205 96.2212C27.9668 96.2447 27.8851 96.3141 27.9409 96.5147C27.9964 96.7152 28.0189 96.785 28.0189 96.785C28.0189 96.785 28.1424 96.6948 28.3292 96.71L28.5479 96.7278C28.9371 96.7595 28.8349 97.1312 28.4455 97.0995C28.056 97.0678 28.0213 96.8571 28.0213 96.8571L28.0208 96.8573Z" fill="#DB0000"/>
<path d="M30.0838 96.6321C30.0838 96.6321 30.2143 96.6508 30.3163 96.5752C30.3163 96.5752 31.1241 97.3172 29.7345 98.564C28.3446 99.8111 29.263 100.766 29.263 100.766C29.263 100.766 29.0145 100.97 29.1102 101.414C29.1102 101.414 28.6024 101.07 28.2368 100.526C27.7084 99.7409 27.4407 98.5832 29.1298 97.8146C29.1298 97.8146 30.2398 97.365 30.0835 96.6321L30.0838 96.6321Z" fill="#DB0000"/>
<path d="M28.8291 95.7391C28.8291 95.7391 29.0264 95.4458 29.4263 95.4783C29.7416 95.504 29.8267 95.3481 29.8267 95.3481C29.8267 95.3481 29.9856 95.0971 30.6799 95.1537C31.3162 95.2055 31.7277 95.4525 32.0516 95.764C32.0516 95.764 31.1635 95.1077 30.1751 95.8487L28.8291 95.7391Z" fill="#DB0000"/>
<path d="M32.5602 98.0012C32.6119 97.0399 31.9536 95.9516 30.3539 95.88C32.0193 94.6874 34.482 97.8534 32.1301 99.22C32.1301 99.22 32.5458 98.7192 32.5602 98.0014L32.5602 98.0012Z" fill="#DB0000"/>
<path d="M30.5839 96.0069C32.5334 96.107 33.0379 98.4951 31.6965 99.4421L30.3857 99.9489C30.3857 99.9489 30.2646 99.4057 30.9247 98.8351C31.5847 98.265 32.2671 97.1523 30.6444 96.252C30.6444 96.252 30.6892 96.0957 30.5844 96.0072L30.5839 96.0069Z" fill="#DB0000"/>
<path d="M30.4397 96.5197C30.4397 96.5197 30.5426 96.4373 30.5804 96.3658C31.9778 97.0875 31.6668 98.092 30.733 98.88C30.1587 99.3826 30.2751 99.9843 30.2751 99.9843C30.2751 99.9843 29.596 100.334 29.3448 100.666C29.3448 100.666 28.4738 99.7929 29.8776 98.5759C31.2552 97.3811 30.4397 96.5199 30.4397 96.5199L30.4397 96.5197Z" fill="#DB0000"/>
<g clip-path="url(#clip1_1469_72234)">
<path d="M47.1645 71.8294C47.1645 71.8294 46.9347 72.1574 47.2397 72.5786C47.2397 72.5786 47.2865 72.3632 47.765 72.3609L48.3392 72.3581C48.8816 72.3555 49.2857 71.8353 49.0279 71.302C49.0279 71.302 49.4108 71.3402 49.5376 71.1002C49.6639 70.8605 49.5279 70.7653 49.3366 70.7662L48.3716 70.7709C48.3724 70.9425 48.0457 70.9679 48.0447 70.7724L47.5024 70.775C47.5024 70.775 47.0956 70.777 47.0894 71.12C47.0894 71.12 47.181 71.0637 47.2724 71.0555L47.2729 71.1469C47.2729 71.1469 47.1613 71.1674 47.1095 71.1957C47.058 71.2237 46.9825 71.2999 47.0554 71.495C47.128 71.6899 47.1563 71.7576 47.1563 71.7576C47.1563 71.7576 47.2716 71.6571 47.4591 71.6562L47.6785 71.6551C48.0689 71.6532 47.9991 72.0324 47.6084 72.0342C47.2176 72.0361 47.165 71.8292 47.165 71.8292L47.1645 71.8294Z" fill="#DB0000"/>
<path d="M49.1994 71.4233C49.1994 71.4233 49.3311 71.4307 49.4263 71.3466C49.4263 71.3466 50.2948 72.0164 49.0175 73.3781C47.7399 74.74 48.7369 75.6127 48.7369 75.6127C48.7369 75.6127 48.5069 75.8368 48.6404 76.271C48.6404 76.271 48.1049 75.9721 47.6939 75.4619C47.1 74.7247 46.7338 73.5943 48.3506 72.6834C48.3506 72.6834 49.4179 72.1401 49.1992 71.4233L49.1994 71.4233Z" fill="#DB0000"/>
<path d="M47.8727 70.6458C47.8727 70.6458 48.044 70.3366 48.4452 70.3347C48.7616 70.3332 48.833 70.1705 48.833 70.1705C48.833 70.1705 48.9697 69.9068 49.6663 69.9035C50.3047 69.9004 50.7359 70.1112 51.0853 70.3937C51.0853 70.3937 50.1441 69.8161 49.223 70.6393L47.8727 70.6458Z" fill="#DB0000"/>
<path d="M51.7854 72.5783C51.7542 71.6161 51.0048 70.5884 49.4049 70.6545C50.9617 69.3232 53.6873 72.2659 51.4616 73.8295C51.4616 73.8295 51.8327 73.2949 51.7854 72.5785L51.7854 72.5783Z" fill="#DB0000"/>
<path d="M49.6436 70.7608C51.5945 70.693 52.3023 73.0289 51.0472 74.0877L49.7848 74.7053C49.7848 74.7053 49.6175 74.1745 50.2261 73.5493C50.8347 72.9245 51.419 71.7573 49.7249 70.9998C49.7249 70.9998 49.7561 70.8403 49.644 70.7611L49.6436 70.7608Z" fill="#DB0000"/>
<path d="M49.5454 71.2865C49.5454 71.2865 49.6407 71.1956 49.6723 71.1211C51.1265 71.7201 50.903 72.7477 50.0404 73.613C49.5114 74.163 49.679 74.7525 49.679 74.7525C49.679 74.7525 49.0325 75.1595 48.8107 75.5116C48.8107 75.5116 47.868 74.7166 49.162 73.3834C50.4318 72.0747 49.5454 71.2868 49.5454 71.2868L49.5454 71.2865Z" fill="#DB0000"/>
</g>
<g clip-path="url(#clip2_1469_72234)">
<path d="M44.8276 99.6369C44.8276 99.6369 44.5683 99.9421 44.8327 100.39C44.8327 100.39 44.8993 100.18 45.3759 100.222L45.948 100.273C46.4882 100.321 46.939 99.8404 46.732 99.2854C46.732 99.2854 47.1097 99.359 47.2583 99.1319C47.4064 98.905 47.2799 98.7976 47.0893 98.7807L46.128 98.6954C46.1129 98.8663 45.7852 98.8612 45.8025 98.6665L45.2622 98.6186C45.2622 98.6186 44.857 98.5826 44.8189 98.9236C44.8189 98.9236 44.9154 98.8761 45.0071 98.8764L44.9991 98.9674C44.9991 98.9674 44.8861 98.9775 44.8319 99.0008C44.778 99.0239 44.6958 99.0927 44.7501 99.2938C44.8042 99.4946 44.8262 99.5646 44.8262 99.5646C44.8262 99.5646 44.9503 99.4753 45.137 99.4919L45.3555 99.5112C45.7445 99.5458 45.6396 99.9167 45.2504 99.8822C44.8612 99.8477 44.8281 99.6367 44.8281 99.6367L44.8276 99.6369Z" fill="#DB0000"/>
<path d="M46.8935 99.4221C46.8935 99.4221 47.0239 99.4417 47.1265 99.3669C47.1265 99.3669 47.9288 100.115 46.5302 101.351C45.1313 102.588 46.0427 103.55 46.0427 103.55C46.0427 103.55 45.7928 103.752 45.8852 104.197C45.8852 104.197 45.3799 103.849 45.0183 103.303C44.4956 102.514 44.2363 101.354 45.931 100.598C45.931 100.598 47.0442 100.156 46.8933 99.422L46.8935 99.4221Z" fill="#DB0000"/>
<path d="M45.6441 98.5238C45.6441 98.5238 45.8435 98.2319 46.2432 98.2674C46.5583 98.2953 46.6445 98.14 46.6445 98.14C46.6445 98.14 46.8052 97.8902 47.4991 97.9518C48.135 98.0082 48.5447 98.2582 48.8663 98.5721C48.8663 98.5721 47.983 97.9093 46.9892 98.6431L45.6441 98.5238Z" fill="#DB0000"/>
<path d="M49.3588 100.812C49.4174 99.8509 48.767 98.7579 47.1679 98.6747C48.842 97.4943 51.2816 100.678 48.9198 102.028C48.9198 102.028 49.3391 101.53 49.3588 100.812L49.3588 100.812Z" fill="#DB0000"/>
<path d="M47.3974 98.8019C49.3461 98.916 49.8333 101.308 48.485 102.245L47.1706 102.742C47.1706 102.742 47.0534 102.198 47.7176 101.632C48.3817 101.067 49.0722 99.9594 47.4561 99.0474C47.4561 99.0474 47.502 98.8914 47.3978 98.8021L47.3974 98.8019Z" fill="#DB0000"/>
<path d="M47.2504 99.3184C47.2504 99.3184 47.3538 99.2368 47.3922 99.1656C48.7842 99.8974 48.466 100.9 47.5265 101.681C46.9486 102.179 47.0605 102.782 47.0605 102.782C47.0605 102.782 46.379 103.127 46.1253 103.457C46.1253 103.457 45.2607 102.577 46.6733 101.37C48.0595 100.186 47.2504 99.3187 47.2504 99.3187L47.2504 99.3184Z" fill="#DB0000"/>
</g>
<path d="M52.1897 85.2202C52.1897 85.2202 51.9938 85.5694 52.3394 85.9581C52.3394 85.9581 52.3644 85.739 52.8402 85.689L53.4113 85.6289C53.9507 85.5722 54.3009 85.0143 53.9911 84.5094C53.9911 84.5094 54.3759 84.5091 54.4781 84.2577C54.5799 84.0065 54.4351 83.9255 54.2448 83.9455L53.2851 84.0464C53.3031 84.2171 52.9805 84.275 52.96 84.0806L52.4207 84.1373C52.4207 84.1373 52.0161 84.1799 52.0442 84.5217C52.0442 84.5217 52.1297 84.4566 52.2198 84.4393L52.2294 84.5302C52.2294 84.5302 52.1205 84.5618 52.0718 84.5951C52.0233 84.6281 51.9558 84.7114 52.0478 84.8983C52.1395 85.085 52.1744 85.1495 52.1744 85.1495C52.1744 85.1495 52.2791 85.038 52.4655 85.0184L52.6837 84.9954C53.072 84.9546 53.0404 85.3388 52.6518 85.3796C52.2632 85.4205 52.1902 85.2199 52.1902 85.2199L52.1897 85.2202Z" fill="#DB0000"/>
<path d="M54.1744 84.6174C54.1744 84.6174 54.3062 84.6117 54.3925 84.5185C54.3925 84.5185 55.3235 85.0983 54.1885 86.5806C53.0533 88.0632 54.1324 88.8321 54.1324 88.8321C54.1324 88.8321 53.9259 89.0781 54.102 89.4968C54.102 89.4968 53.5394 89.2528 53.0795 88.7862C52.415 88.112 51.9378 87.0237 53.4557 85.956C53.4557 85.956 54.4633 85.3089 54.1742 84.6175L54.1744 84.6174Z" fill="#DB0000"/>
<path d="M52.7769 83.9738C52.7769 83.9738 52.9166 83.6491 53.3156 83.6071C53.6302 83.574 53.685 83.405 53.685 83.405C53.685 83.405 53.7947 83.129 54.4875 83.0562C55.1224 82.9894 55.5725 83.156 55.9484 83.4023C55.9484 83.4023 54.9542 82.9216 54.1199 83.8326L52.7769 83.9738Z" fill="#DB0000"/>
<path d="M56.8619 85.505C56.7349 84.5507 55.8867 83.603 54.3014 83.8285C55.7175 82.3485 58.7232 85.0044 56.6647 86.7824C56.6647 86.7824 56.9806 86.2134 56.862 85.5053L56.8619 85.505Z" fill="#DB0000"/>
<path d="M54.5519 83.9093C56.4863 83.647 57.4237 85.9006 56.2806 87.0794L55.0862 87.8199C55.0862 87.8199 54.8667 87.3085 55.4098 86.6256C55.953 85.9433 56.4179 84.7236 54.6567 84.1389C54.6567 84.1389 54.6717 83.9771 54.5524 83.9095L54.5519 83.9093Z" fill="#DB0000"/>
<path d="M54.5061 84.4432C54.5061 84.4432 54.5919 84.3433 54.6159 84.266C56.1226 84.7168 56.0028 85.7615 55.2308 86.7086C54.7594 87.3087 54.985 87.8786 54.985 87.8786C54.985 87.8786 54.3824 88.3481 54.1968 88.7205C54.1968 88.7205 53.1794 88.0236 54.3339 86.5679C55.4667 85.139 54.5061 84.4435 54.5061 84.4435L54.5061 84.4432Z" fill="#DB0000"/>
<defs>
<clipPath id="clip0_1469_72234">
<rect width="7.8" height="7.8" fill="white" transform="translate(36.9385 80.7656) rotate(4.6546)"/>
</clipPath>
<clipPath id="clip1_1469_72234">
<rect width="7.8" height="7.8" fill="white" transform="translate(45.7139 69.1094) rotate(-0.274704)"/>
</clipPath>
<clipPath id="clip2_1469_72234">
<rect width="7.8" height="7.8" fill="white" transform="translate(43.6377 96.793) rotate(5.0707)"/>
</clipPath>
</defs>
</svg>
