<svg width="33" height="27" viewBox="0 0 33 27" fill="none" xmlns="http://www.w3.org/2000/svg">
<path d="M13.2629 26.8801C14.825 26.8801 16.0914 25.5907 16.0914 24.0001C16.0914 22.4095 14.825 21.1201 13.2629 21.1201C11.7007 21.1201 10.4343 22.4095 10.4343 24.0001C10.4343 25.5907 11.7007 26.8801 13.2629 26.8801Z" fill="white"/>
<path d="M24.5771 26.8801C26.1393 26.8801 27.4057 25.5907 27.4057 24.0001C27.4057 22.4095 26.1393 21.1201 24.5771 21.1201C23.0149 21.1201 21.7485 22.4095 21.7485 24.0001C21.7485 25.5907 23.0149 26.8801 24.5771 26.8801Z" fill="white"/>
<path d="M0.942856 1.92H5.00367C5.05616 2.11245 9.82764 19.6043 9.52549 18.4969C9.63875 18.9122 10.0107 19.2 10.4343 19.2H27.4057C27.8264 19.2 28.1966 18.9159 28.3126 18.5034L32.1469 5.06342C32.228 4.77375 32.1709 4.46246 31.9932 4.22156C31.8145 3.98156 31.5356 3.84 31.24 3.84H7.48414L6.62878 0.703103C6.51551 0.287808 6.14352 0 5.71999 0H0.942856C0.421708 0 0 0.429375 0 0.959999C0 1.49062 0.421708 1.92 0.942856 1.92ZM23.6343 15.36H14.2057C13.6845 15.36 13.2628 14.9306 13.2628 14.4C13.2628 13.8694 13.6845 13.44 14.2057 13.44H23.6343C24.1554 13.44 24.5771 13.8694 24.5771 14.4C24.5771 14.9306 24.1554 15.36 23.6343 15.36ZM12.32 9.59999H25.52C26.0411 9.59999 26.4628 10.0294 26.4628 10.56C26.4628 11.0906 26.0411 11.52 25.52 11.52H12.32C11.7988 11.52 11.3771 11.0906 11.3771 10.56C11.3771 10.0294 11.7988 9.59999 12.32 9.59999Z" fill="white"/>
</svg>
