<svg width="87" height="80" viewBox="0 0 87 80" fill="none" xmlns="http://www.w3.org/2000/svg">
<path d="M81.306 12.0218C76.6133 5.07209 68.6504 0.130551 60.2266 0.00232751C51.8027 -0.125896 43.2835 5.05433 40.4465 12.9332C39.0557 16.772 39.018 20.9462 38.2054 24.9428C37.3928 28.9394 35.5094 33.0998 31.826 34.9048C26.8352 37.3469 20.9187 34.5556 15.3637 34.8199C9.07566 35.1178 3.36574 39.6826 1.15647 45.5315C-1.0528 51.3805 0.0180623 58.2059 3.39157 63.4828C6.76507 68.7597 12.2485 72.5295 18.2306 74.4765C24.2127 76.4235 38.3107 77.5558 44.5491 76.7234C47.4916 76.6032 50.4081 76.1248 53.2332 75.2991C61.812 72.7682 68.7954 68.5151 74.6007 62.5359C81.5206 55.4047 85.8358 45.8728 86.8033 36.0173C87.604 27.6887 85.9967 18.9715 81.306 12.0218Z" fill="#DFE1F2"/>
<path d="M28.5063 30.705H39.3781C39.3781 30.705 39.3781 21.5765 48.8643 21.4146C53.791 21.328 56.3456 24.5566 57.3848 27.0284C58.5896 29.8993 58.2244 33.1712 56.6092 35.835C54.7661 38.8753 50.7939 41.9307 43.467 40.6393L43.3973 64.8622H54.1486V50.502C54.1486 50.502 69.2261 46.6051 69.2261 29.9821C69.2261 14.0839 56.3701 10.6501 49.4592 10.428C45.615 10.3056 44.2219 10.1399 39.4666 10.8158C33.4066 11.6817 28.3783 18.7188 28.5063 30.705Z" fill="#868AC3"/>
<path d="M54.2785 69.9121H43.3672V80.1024H54.2785V69.9121Z" fill="#868AC3"/>
<path opacity="0.1" d="M54.2785 69.9121H43.3672V80.1024H54.2785V69.9121Z" fill="#ABADB2"/>
<path opacity="0.1" d="M28.5063 30.705H39.3781C39.3781 30.705 39.3781 21.5765 48.8643 21.4146C53.791 21.328 56.3456 24.5566 57.3848 27.0284C58.5896 29.8993 58.2244 33.1712 56.6092 35.835C54.7661 38.8753 50.7939 41.9307 43.467 40.6393L43.3973 64.8622H54.1486V50.502C54.1486 50.502 69.2261 46.6051 69.2261 29.9821C69.2261 14.0839 56.3701 10.6501 49.4592 10.428C45.615 10.3056 44.2219 10.1399 39.4666 10.8158C33.4066 11.6817 28.3783 18.7188 28.5063 30.705Z" fill="#ABADB2"/>
<path d="M24.002 30.7054H34.8756C34.8756 30.7054 34.8756 21.5769 44.3619 21.415C49.2885 21.3284 51.8431 24.557 52.8804 27.0288C54.0872 29.8997 53.7219 33.1716 52.1067 35.8354C50.2637 38.8757 46.2218 41.6393 38.8949 40.3535V64.8626H49.6462V50.5024C49.6462 50.5024 64.7236 46.6055 64.7236 29.9825C64.7236 14.0843 50.4651 10.3926 44.3637 10.3926C39.6969 10.3982 23.7968 11.5259 24.002 30.7054Z" fill="#868AC3"/>
<path opacity="0.3" d="M24.002 30.7054H34.8756C34.8756 30.7054 34.8756 21.5769 44.3619 21.415C49.2885 21.3284 51.8431 24.557 52.8804 27.0288C54.0872 29.8997 53.7219 33.1716 52.1067 35.8354C50.2637 38.8757 46.2218 41.6393 38.8949 40.3535V64.8626H49.6462V50.5024C49.6462 50.5024 64.7236 46.6055 64.7236 29.9825C64.7236 14.0843 50.4651 10.3926 44.3637 10.3926C39.6969 10.3982 23.7968 11.5259 24.002 30.7054Z" fill="#FBFCFD"/>
<path d="M49.7766 69.9121H38.8652V80.1024H49.7766V69.9121Z" fill="#868AC3"/>
<path opacity="0.3" d="M49.7766 69.9121H38.8652V80.1024H49.7766V69.9121Z" fill="#FBFCFD"/>
<path d="M45.59 21.463C45.5362 21.4676 45.482 21.4676 45.4281 21.463C45.3208 21.463 45.1665 21.4272 44.965 21.4253C44.3955 21.3974 43.8246 21.4213 43.2594 21.4969C42.4213 21.603 41.5966 21.7967 40.7989 22.0748C40.3287 22.2392 39.8707 22.4367 39.4284 22.6659C38.9504 22.9048 38.5002 23.1959 38.0862 23.5338C37.675 23.8748 37.3064 24.2641 36.9886 24.6935C36.6874 25.0904 36.4125 25.5067 36.1659 25.9397C35.7542 26.6772 35.4277 27.4591 35.1927 28.2703C35.0333 28.8178 34.9237 29.3786 34.8651 29.9458C34.8425 30.1454 34.8369 30.3035 34.8312 30.4089C34.8313 30.4632 34.8263 30.5174 34.8161 30.5708C34.8113 30.517 34.8113 30.4628 34.8161 30.4089C34.8161 30.3016 34.8161 30.1435 34.8331 29.942C34.8764 29.3687 34.9766 28.8012 35.1324 28.2477C35.3588 27.4271 35.6811 26.636 36.0925 25.8908C36.3396 25.453 36.6157 25.0323 36.919 24.6313C37.2395 24.195 37.6125 23.7998 38.0297 23.4547C38.4487 23.1122 38.9046 22.8173 39.3889 22.5756C39.8339 22.3421 40.2951 22.1408 40.7688 21.9732C41.5738 21.6961 42.4063 21.5067 43.2519 21.4084C43.8209 21.3385 44.3953 21.3252 44.9669 21.3689C45.1222 21.3788 45.2769 21.3976 45.43 21.4253C45.4842 21.4341 45.5376 21.4467 45.59 21.463Z" fill="#31377C"/>
<path d="M61.9718 19.5262C61.9718 19.5262 61.9586 19.5131 61.936 19.4848C61.9134 19.4566 61.8796 19.4076 61.8419 19.3531L61.4823 18.8448C61.4051 18.7356 61.3223 18.6094 61.2244 18.4795L60.8856 18.0673L60.4977 17.591C60.3566 17.4253 60.1909 17.2653 60.0252 17.0902C59.8596 16.9151 59.6901 16.7288 59.4981 16.5499C59.3061 16.3711 59.1009 16.1885 58.89 16.0002C58.7846 15.9061 58.6811 15.812 58.5681 15.7122L58.218 15.4354C57.9789 15.2472 57.7417 15.0589 57.4838 14.8707C56.3596 14.0664 55.1672 13.3621 53.9201 12.766L52.928 12.3179L51.9434 11.9414C51.6215 11.8077 51.2939 11.7136 50.9776 11.6082C50.6614 11.5028 50.3526 11.3955 50.0364 11.322L49.1365 11.0867C48.8447 11.0095 48.5548 10.9625 48.2781 10.8985C48.0013 10.8345 47.734 10.778 47.4723 10.746L46.7193 10.6368C46.243 10.5558 45.8063 10.5389 45.426 10.5012C45.2377 10.4862 45.0495 10.4655 44.8932 10.4579L44.4452 10.4467L43.8239 10.4259H43.662H43.6074C43.6255 10.4231 43.6439 10.4231 43.662 10.4259H43.8239H44.4452H44.8951C45.0589 10.4259 45.2377 10.4485 45.4297 10.4617C45.8063 10.4937 46.2505 10.5069 46.7268 10.5841L47.4798 10.6857C47.7415 10.7159 48.0088 10.7836 48.2875 10.8345C48.5661 10.8853 48.8522 10.938 49.1516 11.0227L50.0552 11.2562C50.3677 11.3277 50.6764 11.4444 50.9965 11.5404C51.3165 11.6364 51.6422 11.7287 51.9641 11.8718L52.9543 12.2483L53.9521 12.6982C55.2057 13.2957 56.4029 14.0052 57.529 14.818C57.7887 15.0062 58.026 15.2077 58.265 15.394L58.6152 15.6482C58.7281 15.7423 58.8317 15.8364 58.9371 15.9381L59.5433 16.5029C59.7315 16.6911 59.901 16.8794 60.0685 17.0507C60.2361 17.222 60.3961 17.3895 60.5373 17.5571L60.9138 18.0371L61.2489 18.4551C61.3449 18.5869 61.4258 18.7149 61.5012 18.8316C61.648 19.0518 61.7628 19.225 61.8438 19.3493L61.9323 19.4867C61.9471 19.4981 61.9604 19.5114 61.9718 19.5262Z" fill="#31377C"/>
<path d="M60.8378 42.8711C60.8155 42.9118 60.7883 42.9498 60.7569 42.984L60.4971 43.2909C60.3898 43.4283 60.2542 43.5921 60.0867 43.7747C59.9191 43.9573 59.7403 44.1719 59.5219 44.3941C59.3035 44.6162 59.0701 44.8647 58.8047 45.1151C58.5392 45.3655 58.2512 45.629 57.9443 45.9039C56.5984 47.0786 55.123 48.0961 53.5467 48.9367C53.1815 49.125 52.837 49.3132 52.5037 49.4582C52.1705 49.6031 51.8599 49.7518 51.5738 49.8723C51.2876 49.9928 51.024 50.0926 50.7944 50.1811C50.5647 50.2695 50.3633 50.3411 50.1976 50.3938L49.8211 50.5162C49.7774 50.5335 49.7319 50.5462 49.6855 50.5538C49.7261 50.5306 49.769 50.5117 49.8136 50.4973L50.1901 50.358C50.3539 50.2997 50.5515 50.2244 50.7793 50.1302C51.0071 50.0361 51.2707 49.942 51.553 49.8083C51.8354 49.6747 52.1479 49.5485 52.4736 49.3847C52.7993 49.221 53.1476 49.0478 53.5109 48.8576C54.2282 48.4623 55.0019 47.9992 55.7832 47.4645C56.5644 46.9299 57.2666 46.367 57.8916 45.8361C58.1985 45.565 58.4922 45.3109 58.7538 45.0549C59.0155 44.7988 59.2602 44.5673 59.4767 44.3451C59.6932 44.123 59.8834 43.9178 60.0528 43.7371C60.2222 43.5563 60.3615 43.3982 60.4745 43.2664L60.7381 42.9671C60.7687 42.9325 60.802 42.9003 60.8378 42.8711Z" fill="#31377C"/>
<path d="M49.4551 64.0074C49.4269 64.0074 49.4043 60.984 49.4043 57.2546C49.4043 53.5253 49.4269 50.5 49.4551 50.5C49.4834 50.5 49.5041 53.5234 49.5041 57.2546C49.5041 60.9859 49.4815 64.0074 49.4551 64.0074Z" fill="#31377C"/>
<path d="M49.8712 79.4103C49.843 79.4103 49.8223 77.2887 49.8223 74.6719C49.8223 72.0552 49.843 69.9316 49.8712 69.9316C49.8994 69.9316 49.9202 72.0533 49.9202 74.6719C49.9202 77.2906 49.8976 79.4103 49.8712 79.4103Z" fill="#31377C"/>
</svg>
