<svg width="38" height="24" viewBox="0 0 38 24" fill="none" xmlns="http://www.w3.org/2000/svg">
<path fill-rule="evenodd" clip-rule="evenodd" d="M10.9961 0H36.1339C36.7367 0 37.2245 0.487927 37.2245 1.09091V22.9091C37.2245 23.5121 36.7367 24 36.1339 24H10.9056V20.7273C10.9056 20.1243 10.4178 19.6364 9.81505 19.6364C9.21226 19.6364 8.72449 20.1243 8.72449 20.7273V24H1.09056C0.487772 24 0 23.5121 0 22.9091V16.3636C0 15.7607 0.487772 15.2727 1.09056 15.2727C2.89464 15.2727 4.36225 13.8047 4.36225 12C4.36225 10.1953 2.89464 8.72727 1.09056 8.72727C0.487772 8.72727 0 8.23935 0 7.63636V1.09091C0 0.487927 0.487772 0 1.09056 0H8.81501V3.27273C8.81501 3.87571 9.30278 4.36364 9.90557 4.36364C10.5084 4.36364 10.9961 3.87571 10.9961 3.27273V0ZM9.81505 17.4545C10.4178 17.4545 10.9056 16.9666 10.9056 16.3636V14.1818C10.9056 13.5788 10.4178 13.0909 9.81505 13.0909C9.21226 13.0909 8.72449 13.5788 8.72449 14.1818V16.3636C8.72449 16.9666 9.21226 17.4545 9.81505 17.4545ZM9.81505 10.9091C10.4178 10.9091 10.9056 10.4212 10.9056 9.81818V7.63636C10.9056 7.03338 10.4178 6.54545 9.81505 6.54545C9.21226 6.54545 8.72449 7.03338 8.72449 7.63636V9.81818C8.72449 10.4212 9.21226 10.9091 9.81505 10.9091Z" fill="white"/>
<path d="M24.8139 11.0137C24.208 10.6789 23.5639 10.4238 22.9262 10.1591C22.5563 10.0061 22.2023 9.82749 21.8898 9.57877C21.2744 9.0877 21.3924 8.2905 22.113 7.97481C22.3171 7.88553 22.5307 7.85683 22.7476 7.84407C23.583 7.79943 24.377 7.95249 25.1328 8.31601C25.5091 8.49777 25.6334 8.44038 25.761 8.04816C25.8949 7.63362 26.0065 7.2127 26.1309 6.79497C26.2138 6.51435 26.1117 6.32941 25.8471 6.21142C25.3624 5.99777 24.8649 5.84471 24.342 5.7618C23.6596 5.65657 23.6596 5.65339 23.6564 4.9678C23.6532 4.0016 23.6532 4.0016 22.6838 4.0016C22.5435 4.0016 22.4032 3.99841 22.2629 4.0016C21.8101 4.01436 21.7335 4.09407 21.7208 4.55007C21.7144 4.75415 21.7208 4.95823 21.7176 5.1655C21.7144 5.77137 21.7112 5.7618 21.1309 5.97226C19.7278 6.48247 18.8605 7.4391 18.768 8.96971C18.6851 10.3249 19.393 11.2401 20.5059 11.9066C21.1915 12.3179 21.9504 12.5603 22.6774 12.8823C22.9612 13.0067 23.2323 13.1502 23.4682 13.3479C24.1666 13.9251 24.039 14.8849 23.21 15.2484C22.7667 15.4429 22.298 15.4908 21.8165 15.4302C21.0735 15.3377 20.3624 15.1432 19.6927 14.7956C19.3005 14.5915 19.1857 14.6457 19.0518 15.0698C18.937 15.4365 18.835 15.8064 18.7329 16.1763C18.5958 16.6738 18.6468 16.7918 19.1219 17.0246C19.7278 17.3179 20.3751 17.4678 21.0352 17.573C21.5518 17.6559 21.5677 17.6783 21.5741 18.214C21.5773 18.4563 21.5773 18.7019 21.5805 18.9442C21.5837 19.2503 21.7304 19.4289 22.0461 19.4353C22.4032 19.4417 22.7635 19.4416 23.1207 19.4321C23.414 19.4257 23.5639 19.2663 23.5639 18.9697C23.5639 18.6381 23.5799 18.3033 23.5671 17.9716C23.5512 17.6336 23.6978 17.4614 24.0231 17.3721C24.7725 17.1681 25.4102 16.7663 25.9013 16.1668C27.2661 14.5086 26.7463 12.082 24.8139 11.0137Z" fill="#20A1A9"/>
</svg>
