<svg width="225" height="143" viewBox="0 0 225 143" fill="none" xmlns="http://www.w3.org/2000/svg">
<path d="M90.3585 105.059C90.1067 102.676 89.3122 100.384 88.5214 98.1183C85.9206 90.6918 83.3257 83.2642 80.7367 75.8354C80.0522 73.8777 79.35 71.8845 78.1016 70.2318C76.8532 68.5791 74.9487 67.2811 72.874 67.2953L74.055 115.223L77.0199 122.082C81.0163 121.527 84.641 119.442 87.1294 116.266C89.6179 113.09 90.7756 109.072 90.3585 105.059Z" fill="#2F3476"/>
<path d="M46.1285 75.4459L28.0198 56.5571C28.0198 56.5571 12.8938 60.1462 9.5069 64.4836C7.12717 67.5301 8.74794 91.7919 8.74794 91.7919C8.74794 91.7919 21.6609 129.949 22.5794 133.556L20.1359 142.493H80.8703L75.4051 113.057L79.661 62.9515L51.3383 55.8584C51.8136 57.2132 46.1285 75.4459 46.1285 75.4459Z" fill="#2F3476"/>
<g opacity="0.3">
<path opacity="0.3" d="M21.2252 139.314C25.513 138.36 28.7616 134.704 30.5455 130.682C32.3295 126.66 32.9395 122.248 33.8686 117.953C34.7978 113.659 36.1633 109.282 39.1175 106.03C41.1284 103.817 43.7599 102.26 45.895 100.164C48.03 98.0679 49.6969 95.0676 48.9698 92.1665L36.2519 100.114C34.8759 100.976 33.4679 101.863 32.4784 103.15C31.2442 104.753 30.7832 106.8 30.3257 108.768C27.9295 119.104 24.7278 129.237 20.75 139.073" fill="black"/>
</g>
<path d="M27.5628 94.7737C27.5628 94.7737 21.5869 104.349 21.0195 105.371C20.452 106.392 12.7206 116.624 12.7206 116.624C12.7206 116.624 10.238 124.696 14.086 128.104C17.934 131.512 22.5977 132.083 23.5198 132.083C24.4419 132.083 29.3148 122.196 29.3148 122.196L35.4574 104.704L27.5628 94.7737Z" fill="#A36957"/>
<path d="M9.50648 64.4807C9.50648 64.4807 5.56273 68.3819 3.47736 77.1667C2.12613 82.8411 1.11536 103.227 1.11536 103.227C1.11536 103.227 -0.281973 118.608 0.0514013 122.147C0.384776 125.687 3.82847 135.433 5.69395 138.185C8.32193 142.065 20.405 140.905 22.3981 137.532C23.4621 135.706 27.7853 128.865 27.5655 125.637C27.3456 122.41 17.3337 110.423 17.3337 110.423L9.50648 64.4807Z" fill="#2F3476"/>
<g opacity="0.3">
<path opacity="0.3" d="M66.594 83.3003C66.5408 93.032 68.2006 102.058 70.4314 111.531C71.0378 114.106 72.655 117.812 75.0419 118.932C77.4287 120.053 78.8438 120.351 81.1596 119.188C83.7841 117.858 86.7171 114.435 86.7171 112.91C85.263 114.432 83.7699 115.978 81.8973 116.932C80.0248 117.886 77.6415 118.152 75.8682 117.07C73.3856 115.584 72.8288 112.29 72.4281 109.417C71.2222 100.767 70.4207 91.9716 67.4097 83.7755" fill="black"/>
</g>
<path d="M19.9977 106.867C19.9445 106.867 20.0686 101.902 20.2743 95.7774C20.48 89.6525 20.6892 84.6945 20.7424 84.698C20.7956 84.7015 20.668 89.6632 20.4623 95.7845C20.2566 101.906 20.0473 106.867 19.9977 106.867Z" fill="#48494B"/>
<path d="M17.3282 110.423C17.2194 110.517 17.1004 110.597 16.9735 110.664L15.9805 111.257C15.1399 111.753 13.9767 112.438 12.7283 113.25C11.4799 114.062 10.4018 114.87 9.63572 115.477L8.73844 116.204C8.63017 116.301 8.51119 116.386 8.38379 116.456C8.47114 116.344 8.56979 116.242 8.67815 116.151C8.87676 115.959 9.17112 115.693 9.54351 115.378C10.5212 114.556 11.548 113.794 12.6184 113.097C13.8703 112.278 15.0442 111.611 15.9025 111.143C16.3316 110.909 16.6827 110.725 16.9274 110.6C17.0539 110.526 17.1883 110.467 17.3282 110.423Z" fill="#48494B"/>
<path d="M17.3305 110.423C16.8954 110.375 16.4632 110.303 16.036 110.207C15.2416 110.069 14.1421 109.902 12.915 109.806C11.6879 109.71 10.5743 109.7 9.7657 109.703C9.32982 109.728 8.89291 109.728 8.45703 109.703C8.57243 109.67 8.69166 109.652 8.81168 109.65C9.03866 109.625 9.36495 109.604 9.76925 109.583C10.825 109.535 11.8826 109.551 12.9363 109.632C13.9904 109.714 15.0378 109.867 16.0714 110.09C16.4651 110.179 16.7808 110.257 17.0006 110.32C17.1139 110.343 17.2244 110.378 17.3305 110.423Z" fill="#48494B"/>
<path d="M27.7326 125.603C27.712 125.785 27.674 125.966 27.6191 126.142C27.5375 126.496 27.3992 126.982 27.2148 127.589C26.7272 129.169 26.1348 130.715 25.4415 132.217C24.7462 133.718 23.9524 135.172 23.0653 136.568C22.7106 137.104 22.434 137.53 22.2248 137.813C22.1172 137.967 21.9987 138.113 21.8701 138.25C21.9479 138.083 22.0405 137.924 22.1467 137.774C22.3383 137.476 22.6078 137.04 22.9376 136.501C23.7877 135.089 24.562 133.633 25.2571 132.139C25.9454 130.643 26.5527 129.111 27.0764 127.55C27.2786 126.95 27.4311 126.461 27.5375 126.131C27.586 125.949 27.6513 125.772 27.7326 125.603Z" fill="#48494B"/>
<path d="M54.7189 94.2849C54.7083 94.3555 54.6892 94.4246 54.6621 94.4906L54.4706 95.0652C54.3855 95.317 54.2791 95.622 54.1373 95.9695C53.9954 96.3171 53.85 96.7214 53.6585 97.1541C53.3038 98.0265 52.8109 99.0444 52.2399 100.151C51.6689 101.257 50.9525 102.442 50.1545 103.644C49.3565 104.847 48.516 105.939 47.7251 106.907C46.9342 107.875 46.1682 108.702 45.5014 109.39C45.1752 109.744 44.8595 110.021 44.59 110.283C44.3204 110.546 44.0828 110.762 43.8807 110.936L43.4196 111.337C43.3684 111.385 43.3126 111.427 43.2529 111.464C43.2529 111.464 43.2955 111.408 43.3948 111.308L43.831 110.883C44.0225 110.702 44.2531 110.478 44.5155 110.209C44.7779 109.939 45.0829 109.645 45.4021 109.297C46.0547 108.616 46.7995 107.776 47.5904 106.815C48.3812 105.854 49.1969 104.747 49.9984 103.556C50.8 102.364 51.488 101.179 52.0874 100.084C52.6867 98.9876 53.1513 97.9769 53.545 97.1151C53.7471 96.6895 53.8996 96.2923 54.0486 95.9482C54.1975 95.6042 54.3146 95.3028 54.4032 95.0545L54.6267 94.4906C54.6491 94.4186 54.68 94.3495 54.7189 94.2849Z" fill="#48494B"/>
<path d="M66.3322 84.1504C66.3435 84.1847 66.3495 84.2206 66.3499 84.2568L66.3783 84.5653C66.4019 84.8514 66.4339 85.2486 66.4741 85.757C66.5592 86.789 66.6762 88.2857 66.8287 90.1334C67.1834 93.8254 67.7366 98.9182 68.602 104.508C69.0488 107.302 69.4496 109.973 70.049 112.342C70.3291 113.465 70.6967 114.564 71.1484 115.629C71.556 116.551 72.0203 117.446 72.5386 118.311C72.9664 119.024 73.4745 119.685 74.053 120.283C74.4953 120.726 74.9937 121.11 75.5355 121.425C75.8775 121.62 76.2331 121.791 76.5994 121.935L76.8902 122.045C76.925 122.055 76.9584 122.069 76.9895 122.088C76.9545 122.083 76.92 122.075 76.8867 122.063L76.5888 121.971C76.2105 121.841 75.844 121.68 75.4929 121.488C74.9378 121.179 74.4262 120.797 73.9714 120.353C73.3791 119.759 72.8589 119.098 72.4216 118.382C71.8901 117.516 71.4162 116.617 71.003 115.69C70.5411 114.619 70.164 113.514 69.8752 112.384C69.2616 110.001 68.8609 107.331 68.414 104.536C67.5416 98.9395 66.9954 93.8395 66.6904 90.144C66.5343 88.2963 66.435 86.7961 66.3747 85.7605C66.3499 85.2534 66.3286 84.8526 66.3145 84.5689V84.2568C66.318 84.221 66.3239 84.1854 66.3322 84.1504Z" fill="#48494B"/>
<g opacity="0.3">
<path opacity="0.3" d="M43.6441 111.474C47.2616 110.594 49.9712 109.073 52.0069 105.952C54.0426 102.831 54.72 98.9366 54.7377 94.4822C51.8544 101.437 48.0808 107.353 43.332 111.53" fill="black"/>
</g>
<path d="M37.3084 66.7791C37.2778 66.7825 37.2469 66.7825 37.2162 66.7791L36.9502 66.7259C36.7197 66.6763 36.3757 66.6124 35.9324 66.5521C34.675 66.3905 33.4021 66.3905 32.1447 66.5521C30.2806 66.7946 28.4585 67.291 26.7291 68.0275C24.6163 68.9432 22.577 70.0197 20.6291 71.2478C18.5366 72.5281 16.5612 73.7977 14.6283 74.7092C12.9308 75.553 11.1017 76.1012 9.21983 76.3299C7.94898 76.482 6.66112 76.4039 5.41794 76.0994C4.9633 75.9922 4.52112 75.8376 4.09863 75.6384C4.12914 75.6406 4.15908 75.6478 4.1873 75.6596L4.44265 75.7483C4.55259 75.7909 4.6909 75.8334 4.85759 75.8795C5.04764 75.9389 5.24058 75.9887 5.43568 76.0285C6.67293 76.3036 7.94863 76.3612 9.20565 76.1987C11.0685 75.9518 12.8765 75.3931 14.5538 74.546C16.4725 73.6346 18.455 72.3649 20.5333 71.0846C22.4888 69.8494 24.5392 68.7715 26.6653 67.8608C28.4102 67.1221 30.2497 66.6303 32.1305 66.3996C33.3987 66.2528 34.6808 66.2755 35.943 66.467C36.2858 66.5187 36.6255 66.5886 36.9609 66.6763L37.2198 66.7472L37.3084 66.7791Z" fill="white"/>
<path d="M19.4543 96.0908C19.3991 96.1198 19.3408 96.1424 19.2805 96.1582L18.7698 96.3142C18.55 96.3816 18.2769 96.4596 17.9541 96.5341C17.6314 96.6086 17.2732 96.7114 16.8654 96.7895C16.0532 96.9633 15.0921 97.1229 13.9891 97.2505C12.811 97.3743 11.6272 97.4358 10.4426 97.4349C9.2512 97.4195 8.06147 97.3413 6.8783 97.2009C5.78951 97.059 4.81776 96.8852 4.00915 96.6973C3.6013 96.6157 3.23955 96.5128 2.92036 96.4277C2.60118 96.3426 2.33164 96.2681 2.10821 96.1972L1.58687 96.0305C1.52652 96.0149 1.4682 95.9923 1.41309 95.9631C1.47587 95.9638 1.53814 95.9746 1.59751 95.9951L2.1153 96.1263C2.33873 96.1866 2.61182 96.2575 2.93101 96.3284C3.25019 96.3994 3.61549 96.4951 4.01979 96.5696C4.8284 96.7398 5.79306 96.8994 6.88539 97.0306C8.06313 97.1629 9.24685 97.2352 10.4319 97.247C11.691 97.247 12.8897 97.1831 13.9785 97.0803C15.0673 96.9774 16.0355 96.8214 16.8476 96.6618C17.2555 96.5909 17.6172 96.5022 17.94 96.4348C18.2627 96.3674 18.5358 96.3001 18.7592 96.2433L19.277 96.1192C19.3345 96.1017 19.3942 96.0922 19.4543 96.0908Z" fill="white"/>
<path d="M13.3471 112.061C13.1678 112.078 12.9873 112.078 12.808 112.061C12.4534 112.033 11.9569 112.012 11.3362 112.005C10.7156 111.997 9.9779 112.004 9.15865 112.079C8.27232 112.151 7.39039 112.269 6.51648 112.434C5.64507 112.61 4.78331 112.832 3.9346 113.097C3.15436 113.352 2.45924 113.608 1.89179 113.856C1.32435 114.104 0.859752 114.306 0.551203 114.462C0.392764 114.551 0.226563 114.624 0.0546875 114.682C0.199261 114.573 0.353606 114.479 0.515737 114.398C0.817193 114.221 1.27115 113.994 1.8386 113.735C2.50464 113.433 3.18658 113.166 3.8814 112.937C4.73408 112.659 5.60206 112.431 6.48101 112.253C7.36115 112.083 8.25049 111.964 9.14447 111.898C9.87509 111.848 10.6078 111.835 11.3398 111.859C11.964 111.884 12.4676 111.926 12.8116 111.973C12.9922 111.988 13.1713 112.017 13.3471 112.061Z" fill="white"/>
<path d="M24.318 119.598C24.2794 119.675 24.2318 119.746 24.1761 119.811L23.7328 120.4C23.5448 120.655 23.3037 120.964 23.0022 121.304C22.7008 121.645 22.3816 122.049 21.9773 122.457L21.3602 123.106C21.1438 123.329 20.9027 123.546 20.6509 123.776C20.1721 124.251 19.6188 124.709 19.0443 125.195C17.7741 126.233 16.4326 127.181 15.0296 128.032C13.6148 128.862 12.1429 129.591 10.6248 130.213C9.91549 130.483 9.25229 130.749 8.61036 130.944C8.29117 131.047 7.98263 131.153 7.68472 131.238L6.81936 131.472C6.26965 131.632 5.7554 131.724 5.31917 131.827C4.88295 131.93 4.48928 131.99 4.17364 132.036L3.46433 132.142C3.38053 132.161 3.29479 132.169 3.20898 132.167C3.29105 132.14 3.37529 132.12 3.46079 132.107L4.1701 131.965C4.48219 131.908 4.8794 131.837 5.30144 131.724C5.72348 131.611 6.24837 131.518 6.79099 131.348L7.64925 131.103C7.94716 131.018 8.25216 130.905 8.5678 130.802C9.20618 130.603 9.86939 130.33 10.5681 130.061C12.0734 129.432 13.5343 128.702 14.9409 127.876C16.3426 127.03 17.6862 126.092 18.9627 125.067C19.5337 124.581 20.0905 124.127 20.5693 123.649C20.814 123.418 21.0552 123.205 21.2786 122.985L21.9028 122.347C22.3106 121.95 22.6369 121.553 22.9419 121.219C23.2469 120.886 23.4952 120.584 23.6938 120.336L24.1619 119.772C24.2102 119.711 24.2623 119.653 24.318 119.598Z" fill="white"/>
<path d="M76.7742 126.337C76.7357 126.358 76.6954 126.374 76.6536 126.387L76.299 126.511L74.9158 126.965C73.71 127.355 71.9651 127.908 69.7804 128.497C68.6845 128.777 67.4823 129.086 66.1736 129.338C64.7854 129.624 63.3824 129.834 61.9709 129.965C58.7274 130.313 55.4475 130.059 52.296 129.217C48.9551 128.281 45.9832 126.827 43.2275 125.67C40.8167 124.583 38.2876 123.779 35.6911 123.276C33.9358 122.95 32.1392 122.911 30.3713 123.159C30.0592 123.195 29.7861 123.262 29.5485 123.308C29.3463 123.345 29.1462 123.392 28.9491 123.45L28.5945 123.546C28.5531 123.56 28.5102 123.568 28.4668 123.571C28.5061 123.554 28.5464 123.54 28.5874 123.528L28.942 123.415C29.1016 123.365 29.2967 123.305 29.5379 123.255C29.779 123.206 30.0486 123.131 30.3642 123.088C32.1378 122.81 33.9455 122.831 35.7124 123.149C37.9538 123.503 40.5392 124.348 43.2949 125.514C46.0505 126.681 49.0261 128.103 52.3456 129.033C55.4751 129.869 58.7312 130.127 61.9532 129.791C63.3565 129.667 64.7522 129.468 66.1346 129.196C67.4397 128.947 68.6384 128.649 69.7343 128.376C71.9225 127.805 73.671 127.27 74.8803 126.905L76.2741 126.483L76.6288 126.376C76.676 126.359 76.7247 126.346 76.7742 126.337Z" fill="white"/>
<path d="M49.6298 102.727C49.6298 102.752 49.19 102.536 48.4771 102.248C47.5494 101.873 46.5889 101.585 45.608 101.387C44.6249 101.197 43.6265 101.097 42.6253 101.089C41.8557 101.089 41.3805 101.124 41.377 101.089C41.4848 101.053 41.5969 101.031 41.7103 101.025C41.9231 100.997 42.2352 100.968 42.6253 100.954C44.6559 100.89 46.6744 101.29 48.5268 102.124C48.8075 102.247 49.081 102.386 49.346 102.539C49.4488 102.589 49.5443 102.652 49.6298 102.727Z" fill="white"/>
<path d="M68.7456 100.094C68.6932 100.119 68.6386 100.139 68.5824 100.154L68.1143 100.293C67.7029 100.41 67.1035 100.559 66.341 100.718C64.3932 101.13 62.4145 101.379 60.4254 101.463C58.4362 101.547 56.4434 101.468 54.4672 101.225C53.7118 101.13 53.1018 101.03 52.6939 100.949L52.2116 100.849C52.1542 100.842 52.0981 100.826 52.0449 100.803C52.1025 100.794 52.1611 100.794 52.2187 100.803L52.7046 100.867C53.1266 100.928 53.7366 101.006 54.4956 101.084C58.4426 101.498 62.4293 101.328 66.3268 100.58C67.0751 100.438 67.6781 100.31 68.1001 100.225L68.5789 100.119C68.6327 100.101 68.689 100.093 68.7456 100.094Z" fill="white"/>
<path d="M66.4461 69.0747C66.3868 69.0971 66.3248 69.1114 66.2617 69.1173L65.7297 69.1989C65.2687 69.2698 64.5948 69.3513 63.7649 69.4436C62.1052 69.6209 59.7999 69.7982 57.2464 69.855C54.6929 69.9117 52.3841 69.8266 50.7172 69.7166C49.8838 69.6599 49.2099 69.6032 48.7453 69.5535L48.2098 69.4932C48.147 69.4925 48.0848 69.4817 48.0254 69.4613C48.0878 69.453 48.151 69.453 48.2134 69.4613L48.7489 69.4861L50.7243 69.589C52.3912 69.667 54.6964 69.7273 57.2428 69.6741C59.7893 69.6209 62.091 69.4613 63.7543 69.3194L65.7226 69.135L66.2582 69.0854C66.3201 69.0741 66.3833 69.0705 66.4461 69.0747Z" fill="white"/>
<path d="M25.7986 37.3409C24.0253 33.6774 22.2804 29.9819 21.1881 26.07C20.0957 22.1582 19.6382 17.9804 20.5284 14.0118C20.6632 13.4124 21.947 9.32328 22.5747 9.302C23.0145 9.302 22.3832 13.0188 22.6528 13.3663C25.2382 16.6859 26.3944 20.9382 26.6249 25.1373C26.8086 29.2227 26.5362 33.3159 25.8127 37.3409" fill="#48494B"/>
<path d="M45.6836 76.9136C39.4168 77.6229 29.2737 65.7491 28.4226 59.5036L23.3049 21.9103C21.6097 11.8523 26.0464 2.48237 36.1469 1.06376L37.0903 0.985735C41.6588 0.615238 46.1993 1.97866 49.8079 4.8046C53.4166 7.63055 55.8288 11.7118 56.5643 16.2359C57.9829 24.9603 58.256 30.9859 58.6923 35.6922C59.7562 46.9985 50.8048 51.4104 50.8048 51.4104C50.8048 51.4104 51.0566 53.666 51.4112 56.5139C52.2127 62.9189 51.0388 76.2007 44.6302 76.9313L45.6836 76.9136Z" fill="#A36957"/>
<path d="M50.8232 51.5062C50.8232 51.5062 44.7018 52.368 37.8145 48.7825C37.8145 48.7825 41.4887 55.6273 51.1494 53.9569L50.8232 51.5062Z" fill="#6E473C"/>
<path d="M42.3415 36.5038C42.5321 36.2536 42.7762 36.0493 43.056 35.9057C43.3359 35.7622 43.6443 35.6832 43.9586 35.6744C44.273 35.6656 44.5853 35.7273 44.8727 35.855C45.1601 35.9827 45.4153 36.1731 45.6195 36.4122C45.8237 36.6514 45.9718 36.9332 46.0528 37.2371C46.1339 37.5409 46.146 37.8591 46.088 38.1682C46.0301 38.4773 45.9038 38.7695 45.7182 39.0234C45.5326 39.2772 45.2926 39.4864 45.0156 39.6354C44.4951 39.8928 43.9042 39.9713 43.3346 39.8588C42.8972 39.8052 42.489 39.611 42.1713 39.3055C41.9667 39.0643 41.8268 38.775 41.7647 38.4648C41.7027 38.1546 41.7206 37.8337 41.8167 37.5323C41.9516 37.028 42.2242 36.5711 42.604 36.213" fill="#6E473C"/>
<path d="M52.7974 24.4756C52.8305 24.8382 52.7207 25.1993 52.4915 25.4821C52.2623 25.7649 51.9318 25.9472 51.5703 25.99C51.3942 26.0186 51.2142 26.0117 51.0408 25.9697C50.8674 25.9276 50.7042 25.8513 50.5608 25.7452C50.4173 25.6392 50.2966 25.5054 50.2056 25.3519C50.1147 25.1985 50.0553 25.0283 50.0312 24.8516C49.9981 24.489 50.1079 24.1279 50.3371 23.8451C50.5662 23.5623 50.8968 23.38 51.2582 23.3372C51.4344 23.3081 51.6146 23.3146 51.7882 23.3564C51.9618 23.3983 52.1252 23.4745 52.2687 23.5807C52.4123 23.6869 52.5331 23.8208 52.6239 23.9745C52.7147 24.1283 52.7737 24.2987 52.7974 24.4756Z" fill="#48494B"/>
<path d="M54.8996 21.1857C54.7435 21.3808 53.6228 20.6857 52.1262 20.8098C50.6296 20.9339 49.5869 21.7745 49.4095 21.6042C49.3244 21.5298 49.4734 21.1893 49.9238 20.7992C50.537 20.2978 51.2901 19.998 52.0801 19.9409C52.8589 19.8757 53.6384 20.0582 54.3073 20.4622C54.7861 20.7814 54.9776 21.0971 54.8996 21.1857Z" fill="#48494B"/>
<path d="M39.1955 25.7027C39.2295 26.0654 39.12 26.427 38.8907 26.71C38.6613 26.9931 38.3303 27.1751 37.9684 27.2171C37.7923 27.2457 37.6123 27.2388 37.4389 27.1967C37.2655 27.1547 37.1023 27.0784 36.9588 26.9723C36.8154 26.8662 36.6946 26.7325 36.6037 26.579C36.5127 26.4255 36.4534 26.2554 36.4292 26.0786C36.4006 25.7166 36.5119 25.3575 36.7402 25.0751C36.9685 24.7927 37.2964 24.6086 37.6563 24.5607C37.8327 24.5321 38.013 24.5391 38.1866 24.5814C38.3602 24.6236 38.5235 24.7003 38.667 24.8067C38.8105 24.9132 38.9312 25.0473 39.022 25.2012C39.1127 25.3551 39.1718 25.5256 39.1955 25.7027Z" fill="#48494B"/>
<path d="M40.5076 22.7152C40.348 22.9103 39.2273 22.2151 37.7307 22.3606C36.234 22.506 35.1949 23.3252 35.0176 23.155C34.9289 23.0805 35.0778 22.7365 35.5318 22.3499C36.1427 21.8465 36.895 21.5454 37.6846 21.4881C38.4639 21.4218 39.2441 21.6056 39.9118 22.013C40.4012 22.3109 40.5963 22.6265 40.5076 22.7152Z" fill="#48494B"/>
<path d="M46.5029 33.4168C46.5029 33.3317 47.4072 33.0976 48.9003 32.782C49.2798 32.711 49.638 32.6046 49.6806 32.3386C49.7231 32.0727 49.5564 31.6542 49.3259 31.225L47.9569 28.3878C46.0489 24.366 44.6338 21.0465 44.797 20.9684C44.9601 20.8904 46.6376 24.0929 48.5457 28.1147C49.0067 29.1077 49.45 30.0547 49.8685 30.9519C50.0494 31.374 50.3402 31.8492 50.1913 32.4379C50.1464 32.5774 50.0704 32.7048 49.969 32.8105C49.8677 32.9161 49.7435 32.9974 49.6061 33.0479C49.399 33.1231 49.1834 33.1719 48.9642 33.1934C47.4569 33.4345 46.5171 33.5161 46.5029 33.4168Z" fill="#48494B"/>
<path d="M42.1763 34.8358C42.4175 34.8003 42.5523 36.4282 44.0418 37.4708C45.5314 38.5135 47.2337 38.1802 47.2763 38.4178C47.3082 38.5171 46.9216 38.7724 46.1839 38.8434C45.231 38.9333 44.277 38.6819 43.4921 38.134C42.7364 37.6122 42.2126 36.8176 42.0309 35.9175C41.9139 35.2436 42.0628 34.8358 42.1763 34.8358Z" fill="#48494B"/>
<path d="M40.0669 16.852C39.9534 17.2705 38.439 17.2066 36.6977 17.5613C34.9563 17.9159 33.5732 18.5118 33.3107 18.1642C33.1902 17.9975 33.4065 17.5968 33.9491 17.1534C34.6746 16.6068 35.5153 16.2332 36.4072 16.0611C37.299 15.889 38.2184 15.923 39.0952 16.1604C39.7619 16.359 40.113 16.6534 40.0669 16.852Z" fill="#48494B"/>
<path d="M53.9634 16.9874C53.7258 17.342 52.6653 17.0796 51.4205 17.1647C50.1757 17.2498 49.1472 17.5797 48.8776 17.2427C48.757 17.0796 48.8954 16.725 49.328 16.3668C49.9132 15.9296 50.6153 15.6765 51.3448 15.6399C52.0744 15.6032 52.7983 15.7847 53.4243 16.1611C53.8924 16.4731 54.0733 16.8136 53.9634 16.9874Z" fill="#48494B"/>
<path d="M24.6978 29.1637C24.5276 29.1034 17.8353 27.7451 18.5907 34.3771C19.3461 41.0092 25.8682 38.899 25.8575 38.7075C25.8469 38.5159 24.6978 29.1637 24.6978 29.1637Z" fill="#A36957"/>
<path d="M23.5381 36.4304C23.5062 36.4127 23.4317 36.5262 23.2473 36.6397C22.9842 36.7873 22.6743 36.828 22.382 36.7532C21.6514 36.5758 20.9314 35.5261 20.7647 34.3309C20.6834 33.7628 20.7294 33.1837 20.8995 32.6356C20.9387 32.4205 21.0295 32.218 21.1642 32.0456C21.2988 31.8733 21.4733 31.7362 21.6727 31.6462C21.8 31.5967 21.9407 31.5934 22.0702 31.6368C22.1998 31.6802 22.3101 31.7676 22.382 31.8838C22.4955 32.0611 22.4671 32.1994 22.5025 32.2065C22.538 32.2136 22.6338 32.0788 22.5487 31.8093C22.4926 31.6492 22.3838 31.5129 22.2401 31.4227C22.142 31.3638 22.0332 31.3249 21.9199 31.3085C21.8066 31.2921 21.6912 31.2983 21.5804 31.327C21.0697 31.4192 20.6619 31.9441 20.4846 32.4938C20.2675 33.1026 20.203 33.7552 20.2966 34.3947C20.4881 35.7282 21.318 36.9057 22.311 37.0759C22.4955 37.1073 22.6846 37.0968 22.8645 37.0453C23.0444 36.9937 23.2104 36.9024 23.3502 36.778C23.5452 36.6113 23.5736 36.4411 23.5381 36.4304Z" fill="#6E473C"/>
<path d="M51.1617 5.96436C52.1654 5.25505 48.2819 2.04189 45.4872 1.16589C41.2704 -0.156968 35.0356 -0.525807 31.482 0.967286C27.2013 2.76893 23.7895 5.42529 22.0553 9.73433C20.321 14.0434 20.0621 18.8454 20.7572 23.4346C20.9665 24.8532 21.2927 26.2718 22.1758 27.3819C23.2717 28.7225 25.1336 29.4283 25.3393 31.4143C25.3782 32.1335 25.6769 32.814 26.1799 33.3295C27.5985 34.6417 28.9852 33.2053 29.5314 31.8683C30.6733 29.0949 30.457 25.9775 30.2407 23.0019C30.0775 20.9556 29.7938 17.863 29.049 15.9514C28.7669 15.2417 28.5946 14.493 28.5383 13.7313C28.4162 12.4875 28.6525 11.2348 29.2193 10.1209C29.3757 9.87947 29.5538 9.65275 29.7512 9.44352C30.4742 8.68402 31.3828 8.12622 32.3873 7.82519C33.3918 7.52416 34.4574 7.49032 35.4789 7.72699C39.4085 8.58525 42.6926 10.3372 46.8278 8.01781C47.7428 7.50356 48.1223 6.65239 48.5124 6.14169C49.0941 5.37918 50.4063 5.30116 51.144 5.91116L51.1617 5.96436Z" fill="#48494B"/>
<path d="M36.511 77.8491C36.511 77.8491 35.6457 79.8706 34.5853 80.4452C33.5249 81.0197 29.9748 84.4882 29.003 87.3751C28.0313 90.262 27.5596 94.7874 27.5596 94.7874L35.4542 104.703C35.4542 104.703 39.3837 102.82 41.2528 101.121C42.9587 99.5681 46.1364 96.511 47.9912 94.7377C49.1022 93.673 49.9624 92.3743 50.5092 90.9358C50.6511 90.5528 50.7327 90.2584 50.6759 90.1733C50.4844 89.8861 50.0021 89.308 50.0021 89.308C50.0021 89.308 50.2929 88.0561 49.8106 87.2865C49.3282 86.5169 49.041 86.0345 49.041 86.0345C49.041 86.0345 49.7822 84.4634 49.4949 83.6938C49.2565 83.1668 48.8909 82.7074 48.431 82.3568C48.431 82.3568 53.8288 79.1046 53.9246 78.1435C54.0203 77.1824 54.1622 76.9199 53.0095 76.9199C51.8569 76.9199 45.1823 79.2996 43.3523 80.3565C41.5223 81.4134 37.5786 83.2434 37.5786 83.2434C37.5786 83.2434 39.4937 78.4272 36.511 77.8491Z" fill="#A36957"/>
<path d="M37.5783 83.3289C37.2642 83.5239 36.9344 83.6924 36.5923 83.8325L34.1842 84.978L31.7832 86.1483C31.4581 86.3258 31.1203 86.4787 30.7725 86.6059C31.0707 86.3852 31.3889 86.1929 31.7229 86.0313C32.3223 85.7015 33.1628 85.2653 34.1027 84.8113C35.0425 84.3574 35.9078 83.9779 36.5391 83.7154C36.8734 83.556 37.2211 83.4267 37.5783 83.3289Z" fill="#6E473C"/>
<path d="M49.072 81.9094C48.9636 82.0146 48.8448 82.1085 48.7173 82.1896C48.4868 82.3634 48.1464 82.6045 47.7208 82.8989C46.8731 83.4841 45.6815 84.2643 44.3409 85.0871C43.0003 85.9099 41.7555 86.605 40.8476 87.0945C40.3936 87.3392 40.0248 87.5307 39.7659 87.6584C39.6357 87.7335 39.4978 87.7941 39.3545 87.8392C39.4708 87.7447 39.5968 87.6626 39.7304 87.5945L40.7944 86.981C41.6881 86.4632 42.9223 85.7468 44.2558 84.9275C45.5893 84.1083 46.7951 83.3458 47.6605 82.7996L48.689 82.1435C48.8072 82.051 48.9358 81.9725 49.072 81.9094Z" fill="#6E473C"/>
<path d="M49.1595 86.1533C49.1595 86.1533 49.0886 86.2562 48.9361 86.4158C48.7836 86.5754 48.553 86.7988 48.2658 87.0719C47.6841 87.6109 46.8471 88.3273 45.8896 89.0544C45.0668 89.6755 44.2121 90.2532 43.329 90.7851C42.9743 90.9908 42.7083 91.1398 42.5133 91.2497C42.4157 91.3109 42.3108 91.3598 42.2012 91.3951C42.5406 91.1366 42.8959 90.8997 43.2651 90.6858C43.9248 90.2531 44.8256 89.6396 45.7867 88.9125C46.7478 88.1855 47.5848 87.4939 48.1842 86.9797C48.4943 86.687 48.8198 86.4111 49.1595 86.1533Z" fill="#6E473C"/>
<path d="M49.9538 88.7727C50.0014 88.8845 50.0185 89.0068 50.0035 89.1274C49.9829 89.4647 49.878 89.7915 49.6985 90.0778C49.4262 90.4922 49.0799 90.8528 48.6771 91.1418C48.2373 91.4752 47.755 91.8298 47.2585 92.2058C46.2371 92.9541 45.3079 93.6244 44.6305 94.1067C44.2758 94.3443 44.0134 94.5358 43.8219 94.6635C43.7254 94.7379 43.6206 94.801 43.5098 94.8515C43.5877 94.7576 43.6784 94.6753 43.7793 94.6068C43.9566 94.4613 44.2226 94.2521 44.5524 94.0003C45.2121 93.4967 46.1271 92.8051 47.1485 92.0568C48.1699 91.3085 49.1665 90.6985 49.6027 89.9998C49.7891 89.7363 49.9106 89.4325 49.9574 89.1132C49.9609 88.9039 49.9396 88.7727 49.9538 88.7727Z" fill="#6E473C"/>
<path d="M89.1511 104.239L79.9656 83.4244H79.9088L88.8071 68.529L86.0266 65.5712L71.4539 62.9325C71.4539 62.9325 70.4927 59.1519 69.3047 59.23C68.1166 59.308 67.4214 59.6662 67.2938 64.5498C67.2938 64.5498 66.7228 72.8877 66.5525 75.0475C66.4142 76.8492 66.5135 81.254 66.5525 82.4952C66.5525 82.5768 66.5525 82.6655 66.5525 82.7683V82.8286C66.8327 87.7725 72.3795 112.907 73.291 115.854C73.7556 117.336 75.1068 118.032 76.6105 118.337C78.1196 118.614 79.6748 118.496 81.1252 117.996C82.5755 117.495 83.8718 116.628 84.8882 115.478C86.9345 113.201 89.3639 109.708 89.4987 105.856L89.1511 104.239ZM67.2867 64.8299C67.2867 64.9115 67.2867 64.9753 67.2867 65.0285C67.2831 64.9824 67.2867 64.8973 67.2867 64.8299Z" fill="#A36957"/>
<path d="M87.0736 83.1772L72.4157 82.6158C71.5693 82.5833 70.7704 82.2159 70.1947 81.5943C69.6189 80.9727 69.3134 80.1478 69.3453 79.3009L70.7374 42.5351C70.7699 41.6878 71.1375 40.8881 71.7593 40.3118C72.381 39.7356 73.2061 39.43 74.0531 39.4622L88.7109 40.0236C89.1301 40.0396 89.542 40.138 89.9231 40.3132C90.3043 40.4884 90.6472 40.737 90.9323 41.0448C91.2175 41.3527 91.4392 41.7136 91.5848 42.1072C91.7305 42.5007 91.7973 42.9191 91.7813 43.3385L90.3893 80.1031C90.3733 80.5228 90.2749 80.9352 90.0997 81.3168C89.9244 81.6984 89.6757 82.0418 89.3678 82.3272C89.0599 82.6127 88.6989 82.8347 88.3052 82.9805C87.9116 83.1264 87.4931 83.1932 87.0736 83.1772Z" fill="#242425"/>
<path d="M88.5346 41.0482L85.6923 40.9385C85.505 40.9358 85.3244 41.0076 85.1899 41.138C85.0554 41.2685 84.9781 41.4469 84.9749 41.6343L84.9576 42.1495C84.9562 42.2423 84.9365 42.334 84.8996 42.4192C84.8628 42.5044 84.8096 42.5815 84.7429 42.6461C84.6763 42.7108 84.5976 42.7616 84.5114 42.7958C84.4251 42.83 84.3329 42.8468 84.2402 42.8454L78.7011 42.6331C78.5141 42.6216 78.3393 42.5364 78.215 42.3962C78.0907 42.2559 78.0271 42.0721 78.0381 41.8849L78.0555 41.3686C78.0665 41.1815 78.0028 40.9976 77.8785 40.8574C77.7543 40.7171 77.5794 40.6319 77.3925 40.6204L76.3928 40.5867L73.9057 40.4924C73.612 40.4812 73.319 40.5279 73.0433 40.6299C72.7676 40.732 72.5147 40.8873 72.2991 41.0871C72.0834 41.287 71.9092 41.5273 71.7864 41.7945C71.6636 42.0617 71.5946 42.3504 71.5834 42.6443L70.2244 78.5301C70.2139 78.8241 70.2614 79.1173 70.3642 79.3929C70.4669 79.6685 70.623 79.9212 70.8234 80.1364C71.0238 80.3517 71.2646 80.5253 71.5321 80.6474C71.7996 80.7695 72.0885 80.8377 72.3824 80.848L87.0111 81.4085C87.3048 81.4197 87.5978 81.373 87.8734 81.271C88.149 81.1689 88.4018 81.0135 88.6174 80.8137C88.8329 80.6139 89.007 80.3735 89.1297 80.1063C89.2524 79.8391 89.3212 79.5504 89.3323 79.2566L90.69 43.3754C90.7019 43.0808 90.6555 42.7868 90.5535 42.5102C90.4515 42.2336 90.2959 41.9799 90.0957 41.7637C89.8954 41.5475 89.6544 41.3729 89.3865 41.2501C89.1186 41.1274 88.8291 41.0587 88.5346 41.0482Z" fill="#C9CCCF"/>
<path d="M74.8237 43.5427C74.5484 43.5635 74.272 43.5643 73.9966 43.5452C73.7209 43.5458 73.4455 43.5264 73.1727 43.4871C73.4475 43.4655 73.7236 43.4646 73.9986 43.4845C74.2747 43.4832 74.5505 43.5027 74.8237 43.5427Z" fill="#242425"/>
<path d="M74.81 43.8946C74.5348 43.9161 74.2583 43.9169 73.9829 43.8971C73.7072 43.8984 73.4318 43.879 73.159 43.839C73.4339 43.8181 73.7099 43.8172 73.985 43.8363C74.261 43.8358 74.5368 43.8553 74.81 43.8946Z" fill="#242425"/>
<path d="M74.8013 44.2261C74.526 44.2476 74.2495 44.2485 73.9741 44.2287C73.6984 44.2299 73.423 44.2105 73.1502 44.1705C73.4251 44.1496 73.7012 44.1488 73.9762 44.1679C74.2522 44.1674 74.528 44.1868 74.8013 44.2261Z" fill="#242425"/>
<path fill-rule="evenodd" clip-rule="evenodd" d="M72.3262 45.9954L89.4698 46.7509L88.9071 65.526C88.9029 65.5257 88.8986 65.5254 88.8944 65.5251L88.8962 65.3789L88.1809 65.3699L88.1716 66.1099L88.2391 66.1108L88.2388 66.1174C88.2237 66.4599 88.489 66.7497 88.8314 66.7648C88.8444 66.7654 88.8572 66.7655 88.87 66.7653L88.4972 79.206L70.9928 78.4814L71.481 66.5882C71.7833 66.5585 72.0257 66.3102 72.0395 65.9978C72.0408 65.9669 72.0399 65.9365 72.0369 65.9067L72.4349 65.9117L72.4442 65.1717L71.7289 65.1627L71.7255 65.4304C71.6663 65.3968 71.601 65.3726 71.5314 65.3599L72.3262 45.9954ZM75.2961 65.9477L73.8655 65.9297L73.8748 65.1897L75.3054 65.2077L75.2961 65.9477ZM78.1573 65.9838L76.7267 65.9658L76.736 65.2257L78.1666 65.2438L78.1573 65.9838ZM81.0185 66.0198L79.5879 66.0018L79.5972 65.2618L81.0279 65.2798L81.0185 66.0198ZM83.8798 66.0559L82.4492 66.0379L82.4585 65.2978L83.8891 65.3159L83.8798 66.0559ZM86.741 66.0919L85.3104 66.0739L85.3197 65.3339L86.7503 65.3519L86.741 66.0919Z" fill="white"/>
<path fill-rule="evenodd" clip-rule="evenodd" d="M72.2562 45.9184L89.5468 46.6804L88.9797 65.606L88.9023 65.6C88.8985 65.5997 88.8948 65.5994 88.891 65.5992L88.8204 65.5952L88.8222 65.4522L88.2548 65.4451L88.2474 66.0371L88.3177 66.038L88.3136 66.1209C88.3136 66.121 88.3136 66.1211 88.3136 66.1212C88.3004 66.4227 88.5341 66.6778 88.8356 66.6911C88.847 66.6916 88.8583 66.6917 88.8696 66.6915L88.9472 66.6902L88.5698 79.2832L70.9167 78.5525L71.4105 66.521L71.4746 66.5147C71.7408 66.4886 71.9543 66.2698 71.9664 65.9948C71.9676 65.9675 71.9668 65.9407 71.9641 65.9144L71.9557 65.8318L72.3627 65.837L72.3701 65.2449L71.8028 65.2378L71.7988 65.5568L71.6898 65.495C71.6377 65.4654 71.5803 65.4441 71.519 65.433L71.4557 65.4214L72.2562 45.9184ZM88.1661 66.1841L88.0975 66.1832L88.1087 65.2952L88.8406 65.3044L89.3945 46.8218L72.398 46.0728L71.6087 65.3019C71.624 65.3062 71.639 65.311 71.6538 65.3163L71.6567 65.0879L72.52 65.0988L72.5088 65.9868L72.1149 65.9819C72.1147 65.9883 72.1146 65.9948 72.1143 66.0013C72.0999 66.3286 71.8613 66.5929 71.5533 66.6527L71.0706 78.4107L88.4263 79.1291L88.7947 66.8366C88.4514 66.8046 88.1849 66.5249 88.1661 66.1841ZM73.8026 65.115L75.3812 65.1348L75.37 66.0229L73.7914 66.003L73.8026 65.115ZM73.9487 65.2648L73.9413 65.8568L75.2239 65.873L75.2313 65.281L73.9487 65.2648ZM76.6638 65.151L78.2424 65.1709L78.2313 66.0589L76.6526 66.039L76.6638 65.151ZM76.81 65.3009L76.8025 65.8929L78.0851 65.9091L78.0926 65.317L76.81 65.3009ZM79.525 65.1871L81.1037 65.2069L81.0925 66.095L79.5139 66.0751L79.525 65.1871ZM79.6712 65.3369L79.6637 65.9289L80.9463 65.9451L80.9538 65.3531L79.6712 65.3369ZM82.3863 65.2231L83.9649 65.243L83.9537 66.131L82.3751 66.1111L82.3863 65.2231ZM82.5324 65.373L82.525 65.965L83.8076 65.9811L83.815 65.3891L82.5324 65.373ZM85.2475 65.2591L86.8261 65.279L86.8149 66.1671L85.2363 66.1472L85.2475 65.2591ZM85.3936 65.409L85.3862 66.001L86.6688 66.0172L86.6762 65.4252L85.3936 65.409Z" fill="white"/>
<path d="M72.8483 49.6029L72.4336 64.7847L87.6152 65.2011L88.0299 50.0193L72.8483 49.6029Z" fill="white"/>
<path d="M77.5503 50.78L73.8897 50.6795L73.7896 54.3401L77.4503 54.4406L77.5503 50.78ZM76.9272 53.8882L74.3432 53.8172L74.4139 51.2331L76.998 51.3042L76.9272 53.8882Z" fill="#242425"/>
<path d="M73.5269 63.741L77.1876 63.8415L77.2876 60.1808L73.627 60.0804L73.5269 63.741ZM74.1512 60.6328L76.7353 60.7038L76.6645 63.2879L74.0805 63.2168L74.1512 60.6328Z" fill="#242425"/>
<path d="M74.9153 51.7372L74.873 53.2847L76.4205 53.3271L76.4628 51.7796L74.9153 51.7372Z" fill="#242425"/>
<path d="M74.6585 61.1591L74.6162 62.7065L76.1637 62.749L76.2059 61.2015L74.6585 61.1591Z" fill="#242425"/>
<path d="M86.9146 51.03L83.2539 50.9295L83.1539 54.5902L86.8145 54.6906L86.9146 51.03ZM86.2915 54.1382L83.7074 54.0672L83.7782 51.4831L86.3623 51.5542L86.2915 54.1382Z" fill="#242425"/>
<path d="M81.9002 61.9153L84.5138 61.9871L84.5854 59.3735L81.9718 59.3017L81.9002 61.9153ZM82.4648 59.8069L84.0676 59.8507L84.024 61.4534L82.4212 61.4097L82.4648 59.8069Z" fill="#242425"/>
<path d="M84.2796 51.9948L84.2373 53.5422L85.7848 53.5847L85.827 52.0372L84.2796 51.9948Z" fill="#242425"/>
<path d="M82.1536 52.9801L82.0957 55.0999L82.5982 55.1136L82.6561 52.9939L82.1536 52.9801Z" fill="#242425"/>
<path d="M82.5997 55.113L82.585 55.6536L83.5931 55.6812L83.6078 55.1407L82.5997 55.113Z" fill="#242425"/>
<path d="M77.3746 56.5507L77.3887 56.0144L78.5033 56.0457L78.5167 55.5427L77.4034 55.5115L77.4175 54.9764L76.8787 54.9611L76.8646 55.4974L76.3616 55.4827L76.3757 54.9476L75.837 54.9323L75.8198 55.5724L75.8082 55.9715L76.8499 56.0003L76.8358 56.5354L77.3746 56.5507Z" fill="#242425"/>
<path d="M76.257 57.5261L76.2422 58.0667L77.2503 58.0943L77.2651 57.5538L76.257 57.5261Z" fill="#242425"/>
<path d="M74.1782 58.0455L73.6943 58.0318L73.668 59.0009L74.1705 59.0156L74.1528 59.6255L75.6788 59.6668L75.6952 59.0569L76.2693 59.0728L76.2528 59.6827L77.2677 59.7107L77.2842 59.1009L78.8002 59.1423L78.8136 58.6399L79.3877 58.6558L79.3743 59.1583L79.899 59.1726L79.8841 59.7294L80.4125 59.7436L80.397 60.2696L80.9328 60.2849L80.947 59.7578L81.4359 59.7715L81.4518 59.1974L80.3802 59.1679L80.3945 58.6469L79.9994 58.6365L80.0265 57.6464L80.5191 57.6601L80.5344 57.1218L79.9986 57.1077L79.9845 57.6422L79.4425 57.6282L79.4578 57.0924L78.922 57.077L78.9079 57.6128L78.3931 57.5996L78.4072 57.0638L78.9195 57.0771L78.9336 56.5388L78.399 56.5247L78.3837 57.0629L77.8726 57.0484L77.8574 57.5867L78.3759 57.6011L78.3616 58.1245L77.248 58.0946L77.2352 58.56L75.7463 58.5193L75.7732 57.518L75.2349 57.5027L75.219 58.0743L74.7165 58.0609L74.7324 57.4893L74.2299 57.4758L74.2435 56.9783L75.3114 57.0078L75.3248 56.5054L74.2482 56.476L74.2346 56.9636L73.7062 56.9494L73.6908 57.4839L74.1933 57.4986L74.1782 58.0455Z" fill="#242425"/>
<path d="M82.4389 62.4056L81.9002 62.3915L81.8861 62.9266L81.3831 62.9131L81.3972 62.378L80.8584 62.3627L80.8443 62.8978L80.8412 63.0028L80.8297 63.4007L81.8726 63.4295L81.8573 63.9658L82.3961 63.9799L82.4114 63.4448L83.5248 63.4749L83.5382 62.9719L82.4248 62.9419L82.4389 62.4056Z" fill="#242425"/>
<path d="M81.3813 61.8806L81.396 61.3782L80.875 61.3638L80.8903 60.8292L80.352 60.8139L80.3367 61.3497L79.8342 61.335L79.8495 60.8004L79.31 60.7851L79.2959 61.3209L79.2928 61.4246L79.2822 61.8049L77.7217 61.7617L77.7071 62.2654L79.8071 62.3226L79.8208 61.8375L80.3233 61.8522L80.308 62.3867L80.8463 62.402L80.8616 61.8662L81.3813 61.8806Z" fill="#242425"/>
<path d="M74.2652 55.9314L75.3449 55.9609L75.3596 55.4569L74.2885 55.4273L74.3026 54.8912L73.7628 54.8758L73.7487 55.4132L74.2786 55.4275L74.2652 55.9314Z" fill="#242425"/>
<path d="M83.1779 58.2785L83.1631 58.8191L84.1712 58.8467L84.186 58.3062L83.1779 58.2785Z" fill="#242425"/>
<path d="M86.2324 58.8787L86.2475 58.3318L86.7314 58.3456L86.7577 57.3764L86.2552 57.3629L86.2718 56.7617L86.72 56.7736L86.7352 56.2353L86.3402 56.2249L86.3672 55.2323L84.7165 55.187L84.7023 55.7129L83.5899 55.6829L83.5771 56.1496L82.0869 56.1089L82.1138 55.1076L81.5755 55.0923L81.5596 55.6627L81.0571 55.6492L81.073 55.0788L80.5347 55.0635L80.5188 55.6339L80.0817 55.6218L80.1538 52.9723L81.1551 52.9993L81.1703 52.461L80.5999 52.445L80.6133 51.9425L81.1837 51.9585L81.199 51.4202L80.6286 51.4042L80.6423 50.9202L79.6731 50.8939L79.6597 51.3964L79.0585 51.3797L79.0704 50.9315L78.5321 50.9162L78.5193 51.3829L78.0526 51.37L77.9788 54.0615L78.4812 54.075L78.5398 51.9218L79.0337 51.9354L79.0074 52.9046L79.6173 52.9211L79.5699 54.6533L78.9872 54.6375L78.9719 55.1758L79.5547 55.1916L79.5322 56.0262L80.0224 56.0399L80.0074 56.5905L81.658 56.6359L82.0173 56.6456L83.1569 56.6764L83.1402 57.2777L81.6241 57.2362L81.6107 57.7387L80.4983 57.7087L80.4849 58.2111L83.1764 58.2853L83.1892 57.8186L84.6794 57.8593L84.6525 58.8605L85.1908 58.8759L85.2067 58.3055L85.7092 58.3189L85.6933 58.8893L86.1958 58.9028L86.1822 59.3991L85.0785 59.369L85.0651 59.8714L86.1775 59.9015L86.1911 59.4138L86.7208 59.428L86.7349 58.8934L86.2324 58.8787ZM85.7296 56.2429L85.716 56.7331L85.1419 56.7172L85.1555 56.227L85.7296 56.2429ZM84.1717 56.702L84.7458 56.7179L84.7292 57.3191L84.1551 57.3032L84.1717 56.702Z" fill="#242425"/>
<path d="M85.5401 60.9447L86.1431 60.9615L86.1256 61.5905L86.6296 61.6052L86.647 60.975L86.6557 60.9748L86.6692 60.4709L85.5535 60.4408L85.5401 60.9447Z" fill="#242425"/>
<path d="M85.4698 63.4218L86.0728 63.4385L86.0553 64.0675L86.5593 64.0823L86.5767 63.452L86.5854 63.4519L86.5988 62.9479L85.4832 62.9178L85.4698 63.4218Z" fill="#242425"/>
<path d="M81.1007 54.0359L81.0859 54.5764L81.6228 54.5911L81.6376 54.0506L81.1007 54.0359Z" fill="#242425"/>
<path d="M80.5529 53.4829L80.5381 54.0234L81.0749 54.0382L81.0897 53.4976L80.5529 53.4829Z" fill="#242425"/>
<path d="M85.0519 61.3906L85.0371 61.9312L85.574 61.9459L85.5887 61.4053L85.0519 61.3906Z" fill="#242425"/>
<path d="M78.7472 63.3747L78.7324 63.9153L79.2693 63.93L79.284 63.3894L78.7472 63.3747Z" fill="#242425"/>
<path d="M78.2115 63.3629L77.6988 63.3483L77.6835 63.8894L78.2209 63.9035L78.235 63.3637L78.7488 63.377L78.7629 62.8372L78.2267 62.823L78.2115 63.3629Z" fill="#242425"/>
<path d="M79.8263 63.4038L79.8115 63.9443L80.3484 63.9591L80.3631 63.4185L79.8263 63.4038Z" fill="#242425"/>
<path d="M79.3019 62.8493L79.2871 63.3899L79.824 63.4046L79.8387 62.8641L79.3019 62.8493Z" fill="#242425"/>
<path d="M78.4762 54.6254L78.9888 54.6388L79.0041 54.0989L78.4667 54.0847L78.4527 54.6246L77.94 54.61L77.9247 55.1499L78.4609 55.1653L78.4762 54.6254Z" fill="#242425"/>
<path d="M79.4728 56.5507L79.458 57.0913L79.9949 57.106L80.0096 56.5655L79.4728 56.5507Z" fill="#242425"/>
<path d="M82.9825 60.3393L82.9678 60.8799L83.5046 60.8946L83.5194 60.354L82.9825 60.3393Z" fill="#242425"/>
<path d="M80.9581 60.2829L80.9434 60.8235L81.4802 60.8382L81.495 60.2976L80.9581 60.2829Z" fill="#242425"/>
<path d="M78.8361 60.226L78.8213 60.7666L79.3581 60.7813L79.3729 60.2408L78.8361 60.226Z" fill="#242425"/>
<path d="M81.6965 51.4557L81.666 52.5715L82.1695 52.5853L82.2 51.4695L81.6965 51.4557Z" fill="#242425"/>
<path d="M82.3654 46.3042C82.3175 47.3911 81.3977 48.2334 80.311 48.1855C79.2242 48.1376 78.3821 47.2177 78.4299 46.1308C78.4778 45.0439 79.3976 44.2017 80.4843 44.2496C81.5711 44.2974 82.4133 45.2174 82.3654 46.3042Z" fill="#636467"/>
<path d="M82.2678 46.0818C82.2199 47.1687 81.3001 48.011 80.2133 47.9631C79.1266 47.9152 78.2844 46.9953 78.3323 45.9084C78.3801 44.8215 79.2999 43.9793 80.3867 44.0271C81.4734 44.075 82.3156 44.9949 82.2678 46.0818Z" fill="white"/>
<path d="M73.2738 68.5253L73.4588 67.8973L75.8079 68.0334L75.7509 68.6234L73.2738 68.5253Z" fill="#ABADB2"/>
<path d="M73.1632 69.6495L73.2254 69.0064L78.4546 69.3737L78.5319 69.8447L73.1632 69.6495Z" fill="#ABADB2"/>
<path d="M73.2607 71.5143L73.3164 70.8699L75.7755 71.1527L75.7384 71.5823L73.2607 71.5143Z" fill="#ABADB2"/>
<path d="M73.1682 72.6428L73.2238 71.9989L77.155 72.0988L77.2176 72.6208L73.1682 72.6428Z" fill="#ABADB2"/>
<path d="M73.2016 74.3649L73.2607 75.0332L74.7388 74.8944L74.6994 74.4488L73.2016 74.3649Z" fill="#ABADB2"/>
<path d="M73.1454 75.9861L73.2386 75.365L76.0889 75.5629L76.0917 76.0692L73.1454 75.9861Z" fill="#ABADB2"/>
<path d="M80.6568 68.7885L80.7734 68.2819L85.5081 68.5368L85.493 68.9679L80.6568 68.7885Z" fill="#ABADB2"/>
<path d="M80.7643 70.0066L80.8336 69.3469L85.8227 69.6692L85.9032 70.21L80.7643 70.0066Z" fill="#ABADB2"/>
<path d="M75.9116 49.2851L75.9911 48.6248L85.3345 49.3875L85.5258 49.9409L75.9116 49.2851Z" fill="#ABADB2"/>
<path d="M80.7846 72.0643L80.833 71.4177L82.0837 71.5445L82.0514 71.9755L80.7846 72.0643Z" fill="#ABADB2"/>
<path d="M80.698 73.1904L80.7463 72.5457L84.584 72.5828L84.6499 73.1038L80.698 73.1904Z" fill="#ABADB2"/>
<path d="M80.7281 75.0827L80.7764 74.438L84.5683 74.8223L84.5361 75.2521L80.7281 75.0827Z" fill="#ABADB2"/>
<path d="M80.6394 76.2109L80.6877 75.5662L87.0104 75.8552L87.1443 76.383L80.6394 76.2109Z" fill="#ABADB2"/>
<path d="M71.576 57.2122C70.0841 57.959 68.8028 59.0673 67.8486 60.436L68.1465 64.4116C69.3985 63.635 70.5972 62.6951 71.3384 61.4255C72.0797 60.1558 72.296 58.496 71.576 57.2122Z" fill="#A36957"/>
<path d="M90.0984 59.1486C90.622 59.072 91.1565 59.155 91.6322 59.3867C92.1078 59.6185 92.5026 59.9883 92.7649 60.4478C93.0272 60.9073 93.1449 61.4353 93.1026 61.9627C93.0603 62.4901 92.86 62.9926 92.5278 63.4044C92.8945 63.5585 93.2135 63.8075 93.452 64.1258C93.6904 64.4442 93.8398 64.8203 93.8846 65.2155C93.9294 65.6107 93.868 66.0107 93.7068 66.3744C93.5457 66.738 93.2905 67.0521 92.9676 67.2843C94.3011 67.905 94.716 69.8378 93.8862 71.0507C93.0563 72.2637 91.283 72.629 89.9495 72.0119C89.6871 71.9122 89.4507 71.7546 89.2579 71.5507C89.065 71.3468 88.9208 71.1019 88.8359 70.8344C88.7893 70.544 88.819 70.2464 88.9222 69.9709C89.0255 69.6955 89.1986 69.4516 89.4246 69.2633C89.8815 68.892 90.4001 68.6039 90.9567 68.4121C90.4259 68.301 89.9445 68.0228 89.5832 67.6183C89.222 67.2138 88.9996 66.7043 88.9489 66.1643C88.8982 65.6243 89.0216 65.0823 89.3012 64.6176C89.5809 64.1528 90.0019 63.7899 90.5028 63.5818C90.1015 63.4446 89.7482 63.1947 89.4853 62.862C89.2224 62.5292 89.0609 62.1278 89.0203 61.7056C88.9565 60.8616 89.3395 59.5281 90.0843 59.1486" fill="#A36957"/>
<path d="M195.695 30.5438C195.588 30.9093 195.586 31.2978 195.689 31.6644C195.793 32.031 195.998 32.361 196.28 32.6165C196.573 32.861 196.93 33.0164 197.309 33.0641C197.687 33.1117 198.072 33.0498 198.416 32.8855C199.714 32.2526 199.904 30.4805 199.666 29.0565C199.217 27.678 199.184 26.1975 199.571 24.8004C200.179 23.8779 200.939 23.0648 201.818 22.3954C202.507 21.7178 203.027 20.8883 203.338 19.9733C203.648 19.0584 203.74 18.0835 203.606 17.1266C203.457 16.1733 203.047 15.2797 202.422 14.5452C201.796 13.8106 200.979 13.2638 200.062 12.9654C198.179 12.4116 195.837 12.9654 194.445 11.5889C193.432 10.5763 193.401 8.94659 192.625 7.75993C191.423 5.90874 188.828 5.57649 186.629 5.84547C184.485 6.3935 182.257 6.52775 180.063 6.24102C178.353 5.54937 176.712 4.70195 175.158 3.70947C173.334 2.84403 171.284 2.57147 169.297 2.93005C167.31 3.28864 165.485 4.26037 164.079 5.70887C162.672 7.15737 161.754 9.00995 161.454 11.0066C161.154 13.0033 161.487 15.0438 162.405 16.8418C163.054 18.1234 164.351 21.8258 168.449 21.8258" fill="#242425"/>
<path d="M196.549 15.1821V18.1408L195.963 62.2212C195.905 63.4725 195.599 64.6999 195.064 65.8325C194.528 66.9652 193.774 67.9806 192.845 68.8205C191.915 69.6603 190.829 70.3078 189.648 70.7258C188.467 71.1437 187.215 71.3238 185.964 71.2556C183.389 71.2711 180.907 70.2928 179.036 68.5244C177.164 66.7561 176.047 64.3339 175.917 61.7623C175.917 56.3195 175.774 50.6077 175.774 50.6077C175.774 50.6077 168.781 49.4527 167.341 40.3234C166.736 34.3226 166.699 28.2781 167.23 22.2704C167.311 20.9735 167.653 19.7062 168.236 18.5449C168.818 17.3836 169.63 16.3521 170.622 15.5126C171.614 14.6731 172.765 14.0428 174.007 13.6597C175.248 13.2766 176.555 13.1486 177.847 13.2834L196.549 15.1821Z" fill="#F0BFA4"/>
<path d="M169.031 27.3625C169.027 27.5142 169.052 27.6653 169.106 27.807C169.161 27.9488 169.242 28.0784 169.347 28.1886C169.451 28.2988 169.576 28.3874 169.714 28.4493C169.853 28.5111 170.002 28.5451 170.154 28.5492C170.303 28.5599 170.452 28.5409 170.594 28.4932C170.735 28.4455 170.866 28.3701 170.978 28.2714C171.09 28.1727 171.181 28.0527 171.246 27.9184C171.311 27.7841 171.349 27.6381 171.357 27.4891C171.361 27.1839 171.246 26.8891 171.036 26.6674C170.826 26.4458 170.538 26.3148 170.233 26.3025C170.084 26.2917 169.935 26.3108 169.793 26.3585C169.652 26.4062 169.522 26.4816 169.41 26.5802C169.298 26.6789 169.206 26.799 169.141 26.9333C169.076 27.0676 169.039 27.2135 169.031 27.3625Z" fill="#242425"/>
<path d="M168.779 26.0513C168.922 26.2095 169.808 25.5608 171.058 25.5608C172.308 25.5608 173.241 26.1937 173.384 26.0354C173.526 25.8772 173.304 25.6873 172.893 25.4025C172.357 25.021 171.716 24.8159 171.058 24.8159C170.4 24.8159 169.758 25.021 169.222 25.4025C168.827 25.719 168.7 25.988 168.779 26.0513Z" fill="#242425"/>
<path d="M181.628 27.3625C181.628 27.6692 181.746 27.9641 181.959 28.1853C182.171 28.4065 182.461 28.5369 182.767 28.5492C182.916 28.5599 183.066 28.5409 183.207 28.4932C183.348 28.4455 183.479 28.3701 183.591 28.2714C183.703 28.1727 183.794 28.0527 183.859 27.9184C183.924 27.7841 183.962 27.6381 183.97 27.4891C183.97 27.1851 183.854 26.8925 183.645 26.6716C183.436 26.4508 183.15 26.3187 182.846 26.3025C182.697 26.2917 182.546 26.3107 182.404 26.3582C182.262 26.4057 182.13 26.4809 182.017 26.5794C181.904 26.6779 181.811 26.7977 181.744 26.9321C181.677 27.0665 181.638 27.2128 181.628 27.3625Z" fill="#242425"/>
<path d="M181.155 26.2873C181.297 26.4455 182.183 25.781 183.449 25.7968C184.715 25.8126 185.632 26.4297 185.759 26.2715C185.885 26.1132 185.68 25.9234 185.284 25.6386C184.739 25.2511 184.086 25.0462 183.417 25.0532C182.763 25.0607 182.127 25.2707 181.598 25.6544C181.265 25.9392 181.075 26.224 181.155 26.2873Z" fill="#242425"/>
<path d="M176.515 35.622C175.851 35.4211 175.166 35.299 174.474 35.2581C174.158 35.2581 173.841 35.1632 173.794 34.9417C173.766 34.6118 173.838 34.2812 173.999 33.9924C174.316 33.2171 174.632 32.4102 174.964 31.5399C175.869 29.4627 176.599 27.3141 177.148 25.1162C176.117 27.1218 175.234 29.2 174.506 31.3343L173.604 33.8025C173.399 34.1908 173.337 34.639 173.43 35.0683C173.479 35.1806 173.553 35.2802 173.646 35.3597C173.739 35.4392 173.849 35.4965 173.968 35.5271C174.146 35.5545 174.327 35.5545 174.506 35.5271C175.168 35.6533 175.844 35.6852 176.515 35.622Z" fill="#242425"/>
<path d="M175.71 50.526C180.005 50.5914 184.233 49.4631 187.925 47.2666C187.925 47.2666 184.966 53.5955 175.837 52.6778L175.71 50.526Z" fill="#EAB292"/>
<path d="M180.284 36.491C180.079 36.491 180.079 37.8517 178.908 38.8168C177.737 39.782 176.281 39.6396 176.281 39.8294C176.281 40.0193 176.598 40.0984 177.215 40.1142C178.013 40.1221 178.79 39.8538 179.414 39.3548C180.012 38.8636 180.397 38.1609 180.49 37.3928C180.537 36.8232 180.379 36.491 180.284 36.491Z" fill="#242425"/>
<path d="M180.823 21.3507C180.949 21.6988 182.215 21.5406 183.687 21.7146C185.158 21.8887 186.36 22.3 186.55 21.9836C186.74 21.6672 186.44 21.5248 185.949 21.1925C185.312 20.7785 184.585 20.5235 183.829 20.4489C183.076 20.3465 182.309 20.4335 181.598 20.702C181.044 20.9235 180.775 21.1925 180.823 21.3507Z" fill="#242425"/>
<path d="M169.243 22.411C169.465 22.6958 170.335 22.411 171.379 22.411C172.423 22.411 173.294 22.6167 173.499 22.3161C173.705 22.0155 173.499 21.8731 173.072 21.6041C172.555 21.2712 171.946 21.1105 171.332 21.1453C170.721 21.1476 170.127 21.3474 169.639 21.7149C169.259 21.9522 169.148 22.2686 169.243 22.411Z" fill="#242425"/>
<path d="M166.852 17.8386C168.595 18.5621 170.474 18.8973 172.359 18.8208C174.245 18.7442 176.091 18.2579 177.769 17.3956C181.883 15.5127 186.614 14.6742 187.626 15.5286C188.639 16.383 188.734 20.5442 192.705 21.8574C192.705 21.8574 192.167 29.7685 195.348 29.6102C198.528 29.452 198.053 13.5033 198.053 13.5033L189.303 13.0287L180.902 11.1775L172.105 12.2376L165.887 13.7249L166.852 17.8386Z" fill="#242425"/>
<path d="M198.255 11.5577C198.255 11.4311 197.559 11.1463 196.673 11.4628C195.787 11.7792 195.407 12.4754 195.518 12.5387C195.629 12.6019 196.103 12.1748 196.847 11.9216C197.59 11.6685 198.223 11.6843 198.255 11.5577Z" fill="#242425"/>
<path d="M195.63 8.86743C195.478 9.53267 195.388 10.2107 195.361 10.8927C195.203 11.9686 194.744 12.7438 194.855 12.823C194.966 12.9021 195.662 12.1743 195.836 10.956C196.007 10.2567 195.934 9.51994 195.63 8.86743Z" fill="#242425"/>
<path d="M195.156 26.6985C195.299 26.6985 200.441 24.8948 200.488 30.2268C200.536 35.5589 195.188 34.4988 195.188 34.3406C195.188 34.1824 195.156 26.6985 195.156 26.6985Z" fill="#F0BFA4"/>
<path d="M196.785 32.2686C196.785 32.2686 196.879 32.2686 197.038 32.3951C197.147 32.444 197.266 32.4693 197.386 32.4693C197.506 32.4693 197.624 32.444 197.734 32.3951C198.074 32.1713 198.35 31.8621 198.533 31.4983C198.716 31.1346 198.801 30.7291 198.778 30.3224C198.781 29.864 198.683 29.4105 198.493 28.9934C198.443 28.829 198.354 28.6795 198.232 28.5581C198.111 28.4367 197.962 28.347 197.797 28.2972C197.69 28.2708 197.577 28.2815 197.476 28.3274C197.376 28.3734 197.294 28.4519 197.243 28.5504C197.243 28.7086 197.243 28.8035 197.243 28.8193C197.243 28.8351 197.133 28.7244 197.243 28.5029C197.273 28.3723 197.345 28.2554 197.449 28.1706C197.595 28.0631 197.775 28.0124 197.955 28.0282C198.174 28.073 198.379 28.1717 198.55 28.3154C198.721 28.459 198.854 28.6431 198.936 28.851C199.164 29.3075 199.278 29.8123 199.269 30.3224C199.299 30.7976 199.189 31.271 198.952 31.6844C198.716 32.0977 198.364 32.4328 197.94 32.6483C197.795 32.6892 197.644 32.6977 197.496 32.673C197.349 32.6484 197.208 32.5913 197.085 32.5059C196.8 32.3951 196.769 32.2844 196.785 32.2686Z" fill="#EAB292"/>
<path d="M219.238 84.0214C219.238 84.0214 220.995 134.889 220.821 140.981L160.966 142.136L160.222 119.194V99.5904L154.209 108.561L136.062 93.5305L155.523 68.5157C158.986 64.8896 163.25 62.1259 167.975 60.4465C170.487 59.5455 173.124 59.0384 175.791 58.9434C181.923 60.8814 188.503 60.8814 194.635 58.9434L197.799 59.2914H198.053C203.707 59.9731 208.937 62.6354 212.815 66.8062C216.693 70.9769 218.969 76.3864 219.238 82.0753V84.0214Z" fill="#EA837D"/>
<path d="M160.493 97.5021C160.248 94.5924 160.169 91.6712 160.255 88.7525C160.17 85.8286 160.249 82.9021 160.493 79.9871C160.727 82.9026 160.806 85.8286 160.73 88.7525C160.806 91.6712 160.727 94.5919 160.493 97.5021Z" fill="#242425"/>
<path d="M197.923 59.3384C197.923 59.3384 220.311 59.5124 223.08 83.1506L224.472 100.713L204.188 100.318L197.923 59.3384Z" fill="#EA837D"/>
<g opacity="0.3">
<path opacity="0.3" d="M202.593 79.7646L199.365 107.975L206.628 112.342L205.916 100.349L203.954 100.318L202.593 79.7646Z" fill="black"/>
</g>
<path d="M163.783 142.311V76.8866L197.927 76.1904L205.016 142.153L163.783 142.311Z" fill="#FBFCFD"/>
<path d="M168.954 107.502L194.269 130.507C200.345 136.029 211.357 137.405 218.177 132.849C222.259 130.127 223.082 125.128 223.92 120.286C224.799 113.796 224.884 107.224 224.173 100.714L205.93 100.35L206.437 111.964L175.932 94.7333L175.378 94.0687C175.046 93.2143 174.682 92.2017 174.302 90.9993C173.966 89.9469 173.816 88.8439 173.859 87.7399C173.866 86.5043 174.009 85.2733 174.286 84.0692C174.286 83.9901 174.286 83.8793 174.381 83.816C174.454 83.6572 174.492 83.4845 174.492 83.3097C174.534 83.0812 174.512 82.8455 174.427 82.629C174.343 82.4125 174.2 82.2238 174.014 82.0841C173.828 81.9444 173.607 81.8592 173.376 81.8382C173.145 81.8171 172.912 81.861 172.704 81.9648C171.818 82.5344 170.615 85.2875 170.584 88.8791V89.0373C170.457 92.6764 167.087 88.1354 165.837 86.4899C164.587 84.8444 160.458 79.9871 159.651 79.9871C158.48 79.9871 158.274 81.2845 159.556 82.8825C160.837 84.4805 164.397 89.5753 163.527 90.224C162.657 90.8727 156.36 82.4395 156.36 82.4395C156.36 82.4395 155.3 80.4143 154.271 81.1263C152.404 82.4078 159.73 90.841 160.458 91.6321C160.948 92.1701 160.015 92.9137 159.524 92.2967C159.034 91.6796 153.433 83.7527 151.518 85.0343C150.047 86.0153 157.483 92.0277 157.752 94.3377C158.021 96.6477 152.562 89.1797 151.186 90.1923C150.68 90.5562 150.347 90.9043 154.081 94.7175C157.14 97.5748 160.357 100.258 163.717 102.755L168.954 107.502Z" fill="#F0BFA4"/>
<path d="M196.863 59.2295C194.658 61.7531 193.087 64.7664 192.281 68.0191C191.474 71.2718 191.456 74.67 192.227 77.9313H195.391C195.391 77.9313 193.366 62.5047 200.708 59.6251C199.449 59.3244 198.156 59.1914 196.863 59.2295Z" fill="#FBFCFD"/>
<path d="M169.494 60.0198C169.494 60.0198 163.023 65.779 165.38 77.6456H168.545C168.545 77.6456 166.725 61.9817 174.067 59.1021C172.493 59.0648 170.931 59.3783 169.494 60.0198Z" fill="#FBFCFD"/>
<path d="M138.832 94.97L112.235 128.086L125.589 135.633L153.721 107.596L138.832 94.97Z" fill="#F0BFA4"/>
<path d="M134.907 131.805C134.825 130.95 134.9 130.087 135.129 129.258C135.242 128.406 135.493 127.577 135.872 126.806C135.809 127.65 135.666 128.487 135.445 129.306C135.327 130.151 135.147 130.986 134.907 131.805Z" fill="#242425"/>
<path d="M137.47 132.312C137.518 131.243 137.682 130.181 137.96 129.148C138.132 128.107 138.402 127.084 138.767 126.094C138.721 127.164 138.557 128.225 138.277 129.258C138.11 130.301 137.84 131.324 137.47 132.312Z" fill="#242425"/>
<path d="M140.696 131.203C140.765 130.203 140.935 129.211 141.203 128.245C141.378 127.252 141.659 126.281 142.041 125.349C141.971 126.355 141.802 127.351 141.535 128.324C141.364 129.312 141.083 130.278 140.696 131.203Z" fill="#242425"/>
<path d="M110.13 136.255L104.497 126.493H166.235L159.321 136.318L110.13 136.255Z" fill="#48494B"/>
<path d="M209.033 131.805C208.97 130.95 209.045 130.09 209.255 129.258C209.359 128.402 209.617 127.571 210.014 126.806C209.941 127.649 209.798 128.485 209.587 129.306C209.478 130.154 209.292 130.99 209.033 131.805Z" fill="#242425"/>
<path d="M211.61 132.312C211.658 131.243 211.823 130.181 212.101 129.148C212.273 128.107 212.543 127.084 212.908 126.094C212.862 127.164 212.698 128.225 212.417 129.258C212.242 130.299 211.972 131.321 211.61 132.312Z" fill="#242425"/>
<path d="M214.835 131.203C214.895 130.201 215.065 129.209 215.341 128.245C215.516 127.254 215.791 126.284 216.164 125.349C215.937 127.343 215.491 129.306 214.835 131.203Z" fill="#242425"/>
</svg>
