<svg width="64" height="56" viewBox="0 0 64 56" fill="none" xmlns="http://www.w3.org/2000/svg">
<path d="M34.0864 21.7778H29.8109L30.1644 37.7532H33.7219L34.0864 21.7778ZM31.9431 44.6472C33.2468 44.6472 34.3626 43.5644 34.3737 42.2166C34.3626 40.8908 33.2468 39.8081 31.9431 39.8081C30.5953 39.8081 29.5015 40.8908 29.5126 42.2166C29.5015 43.5644 30.5953 44.6472 31.9431 44.6472Z" fill="#48494B"/>
<path fill-rule="evenodd" clip-rule="evenodd" d="M59.506 47.6418L34.8954 5.01492C33.6085 2.78607 30.3915 2.78607 29.1046 5.01493L4.494 47.6418C3.20717 49.8706 4.81571 52.6567 7.38937 52.6567H56.6106C59.1843 52.6567 60.7928 49.8706 59.506 47.6418ZM37.7907 3.34328C35.2171 -1.11443 28.7829 -1.11443 26.2093 3.34328L1.59863 45.9701C-0.97503 50.4279 2.24205 56 7.38937 56H56.6106C61.7579 56 64.975 50.4279 62.4014 45.9701L37.7907 3.34328Z" fill="#48494B"/>
</svg>
