<svg width="120" height="120" viewBox="0 0 120 120" fill="none" xmlns="http://www.w3.org/2000/svg">
<path d="M0 60C0 26.8629 26.8629 0 60 0V0C93.1371 0 120 26.8629 120 60V60C120 93.1371 93.1371 120 60 120V120C26.8629 120 0 93.1371 0 60V60Z" fill="white"/>
<path d="M60 10C32.43 10 10 32.43 10 60C10 87.57 32.43 110 60 110C87.57 110 110 87.57 110 60C110 32.43 87.57 10 60 10ZM81.035 73.965L73.965 81.035L60 67.07L46.035 81.035L38.965 73.965L52.93 60L38.965 46.035L46.035 38.965L60 52.93L73.965 38.965L81.035 46.035L67.07 60L81.035 73.965Z" fill="#C05050"/>
</svg>
